<svg width="360" height="48" viewBox="0 0 360 48" fill="none" xmlns="http://www.w3.org/2000/svg">
<rect x="25.2656" y="5.33203" width="6.86355" height="38.1308" rx="3.43178" transform="rotate(38.5 25.2656 5.33203)" fill="#8ED2FF"/>
<rect x="25.2656" y="5.33203" width="6.86355" height="38.1308" rx="3.43178" transform="rotate(38.5 25.2656 5.33203)" fill="#04369A"/>
<rect x="25.2656" y="5.33203" width="6.86355" height="38.1308" rx="3.43178" transform="rotate(38.5 25.2656 5.33203)" fill="url(#paint0_linear_1879_81143)"/>
<rect x="13.0469" y="5.35547" width="6.86355" height="20.972" rx="3.43178" transform="rotate(38.5 13.0469 5.35547)" fill="#8ED2FF"/>
<rect x="13.0469" y="5.35547" width="6.86355" height="20.972" rx="3.43178" transform="rotate(38.5 13.0469 5.35547)" fill="#04369A"/>
<rect x="13.0469" y="5.35547" width="6.86355" height="20.972" rx="3.43178" transform="rotate(38.5 13.0469 5.35547)" fill="url(#paint1_linear_1879_81143)"/>
<rect x="33.9141" y="9.77344" width="6.86355" height="38.1308" rx="3.43178" transform="rotate(38.5 33.9141 9.77344)" fill="#8ED2FF"/>
<rect x="33.9141" y="9.77344" width="6.86355" height="38.1308" rx="3.43178" transform="rotate(38.5 33.9141 9.77344)" fill="#04369A"/>
<rect x="33.9141" y="9.77344" width="6.86355" height="38.1308" rx="3.43178" transform="rotate(38.5 33.9141 9.77344)" fill="url(#paint2_linear_1879_81143)"/>
<rect x="35.4258" y="23.1602" width="6.86355" height="20.972" rx="3.43178" transform="rotate(38.5 35.4258 23.1602)" fill="#8ED2FF"/>
<rect x="35.4258" y="23.1602" width="6.86355" height="20.972" rx="3.43178" transform="rotate(38.5 35.4258 23.1602)" fill="#04369A"/>
<rect x="35.4258" y="23.1602" width="6.86355" height="20.972" rx="3.43178" transform="rotate(38.5 35.4258 23.1602)" fill="url(#paint3_linear_1879_81143)"/>
<path fill-rule="evenodd" clip-rule="evenodd" d="M85.8232 14.4453C87.357 14.4453 88.5324 14.7029 89.3505 15.2141C90.1789 15.7152 90.7838 16.2877 91.1622 16.932C91.5401 17.5653 91.8258 18.0865 92.0201 18.4953H92.388L92.838 15.7578C92.9335 15.1784 93.4343 14.7525 94.0216 14.7523H95.0857C95.8259 14.7523 96.3911 15.4166 96.2716 16.1469L92.5122 38.9914C92.1747 41.0164 91.4435 42.6639 90.3185 43.932C89.1936 45.2102 87.8131 46.1467 86.1771 46.7398C84.5407 47.3433 82.7846 47.6445 80.913 47.6445C79.1544 47.6444 77.6812 47.4194 76.4951 46.9695C75.3093 46.5299 74.3584 45.9468 73.6427 45.2211C73.2018 44.7802 72.8267 44.3179 72.5177 43.8383C72.193 43.3333 72.397 42.6815 72.9068 42.3641L74.2099 41.5531C74.7876 41.1934 75.5517 41.3853 75.9326 41.9492C76.0237 42.0841 76.1201 42.2233 76.2208 42.3664C76.6094 42.9287 77.1962 43.4153 77.9833 43.8242C78.7811 44.2435 79.9022 44.4523 81.3443 44.4523C83.2358 44.4522 84.8917 43.992 86.313 43.0719C87.7346 42.1514 88.6146 40.709 88.9521 38.7453L89.688 33.9594H89.3833C89.0561 34.3889 88.5999 34.9214 88.0169 35.5555C87.4342 36.179 86.652 36.7358 85.6708 37.2266C84.689 37.7072 83.4291 37.9484 81.8951 37.9484C79.9831 37.9483 78.3472 37.4982 76.9872 36.5984C75.627 35.6984 74.6507 34.3885 74.0576 32.6703C73.4748 30.9524 73.3861 28.8666 73.7951 26.4125C74.1939 23.9992 74.9617 21.8974 76.0966 20.1078C77.2421 18.3078 78.6545 16.9154 80.3318 15.9336C82.0088 14.9419 83.8394 14.4453 85.8232 14.4453ZM85.5771 17.6984C84.0333 17.6985 82.6987 18.0864 81.574 18.8633C80.4592 19.6406 79.553 20.6854 78.8576 21.9945C78.1623 23.3034 77.682 24.7565 77.4161 26.3516C77.1504 27.9875 77.1603 29.4345 77.4466 30.6922C77.733 31.9398 78.3156 32.9224 79.1951 33.6383C80.0848 34.3439 81.2924 34.6953 82.8161 34.6953C84.2582 34.6953 85.5419 34.364 86.6669 33.6992C87.802 33.0345 88.7423 32.0779 89.4888 30.8305C90.2352 29.583 90.7516 28.0898 91.038 26.3516C91.3244 24.6539 91.3043 23.1551 90.9771 21.8563C90.6498 20.5574 90.0311 19.5387 89.1208 18.8023C88.2209 18.0664 87.0392 17.6984 85.5771 17.6984Z" fill="#17224E"/>
<path fill-rule="evenodd" clip-rule="evenodd" d="M85.8232 14.4453C87.357 14.4453 88.5324 14.7029 89.3505 15.2141C90.1789 15.7152 90.7838 16.2877 91.1622 16.932C91.5401 17.5653 91.8258 18.0865 92.0201 18.4953H92.388L92.838 15.7578C92.9335 15.1784 93.4343 14.7525 94.0216 14.7523H95.0857C95.8259 14.7523 96.3911 15.4166 96.2716 16.1469L92.5122 38.9914C92.1747 41.0164 91.4435 42.6639 90.3185 43.932C89.1936 45.2102 87.8131 46.1467 86.1771 46.7398C84.5407 47.3433 82.7846 47.6445 80.913 47.6445C79.1544 47.6444 77.6812 47.4194 76.4951 46.9695C75.3093 46.5299 74.3584 45.9468 73.6427 45.2211C73.2018 44.7802 72.8267 44.3179 72.5177 43.8383C72.193 43.3333 72.397 42.6815 72.9068 42.3641L74.2099 41.5531C74.7876 41.1934 75.5517 41.3853 75.9326 41.9492C76.0237 42.0841 76.1201 42.2233 76.2208 42.3664C76.6094 42.9287 77.1962 43.4153 77.9833 43.8242C78.7811 44.2435 79.9022 44.4523 81.3443 44.4523C83.2358 44.4522 84.8917 43.992 86.313 43.0719C87.7346 42.1514 88.6146 40.709 88.9521 38.7453L89.688 33.9594H89.3833C89.0561 34.3889 88.5999 34.9214 88.0169 35.5555C87.4342 36.179 86.652 36.7358 85.6708 37.2266C84.689 37.7072 83.4291 37.9484 81.8951 37.9484C79.9831 37.9483 78.3472 37.4982 76.9872 36.5984C75.627 35.6984 74.6507 34.3885 74.0576 32.6703C73.4748 30.9524 73.3861 28.8666 73.7951 26.4125C74.1939 23.9992 74.9617 21.8974 76.0966 20.1078C77.2421 18.3078 78.6545 16.9154 80.3318 15.9336C82.0088 14.9419 83.8394 14.4453 85.8232 14.4453ZM85.5771 17.6984C84.0333 17.6985 82.6987 18.0864 81.574 18.8633C80.4592 19.6406 79.553 20.6854 78.8576 21.9945C78.1623 23.3034 77.682 24.7565 77.4161 26.3516C77.1504 27.9875 77.1603 29.4345 77.4466 30.6922C77.733 31.9398 78.3156 32.9224 79.1951 33.6383C80.0848 34.3439 81.2924 34.6953 82.8161 34.6953C84.2582 34.6953 85.5419 34.364 86.6669 33.6992C87.802 33.0345 88.7423 32.0779 89.4888 30.8305C90.2352 29.583 90.7516 28.0898 91.038 26.3516C91.3244 24.6539 91.3043 23.1551 90.9771 21.8563C90.6498 20.5574 90.0311 19.5387 89.1208 18.8023C88.2209 18.0664 87.0392 17.6984 85.5771 17.6984Z" fill="url(#paint4_linear_1879_81143)"/>
<path fill-rule="evenodd" clip-rule="evenodd" d="M110.972 14.4453C112.199 14.4453 113.38 14.6505 114.515 15.0594C115.65 15.4684 116.633 16.1336 117.461 17.0539C118.29 17.9641 118.869 19.1716 119.196 20.675C119.523 22.1781 119.503 24.0291 119.135 26.2273L119.051 26.7523C118.957 27.3342 118.454 27.7625 117.865 27.7625H101.751C101.466 29.6581 101.516 31.171 101.906 32.3023C102.315 33.458 103.026 34.2918 104.039 34.8031C105.051 35.3042 106.319 35.5555 107.843 35.5555C108.814 35.5555 109.71 35.4229 110.529 35.157C111.346 34.8809 112.078 34.4708 112.722 33.9289C113.135 33.5751 113.505 33.166 113.833 32.7031C114.162 32.2396 114.739 31.9885 115.284 32.15L116.318 32.457C117.023 32.6664 117.379 33.4605 116.969 34.0719C116.502 34.768 115.941 35.4063 115.284 35.9844C114.272 36.8741 113.084 37.5692 111.724 38.0703C110.374 38.5612 108.895 38.8086 107.29 38.8086C105.03 38.8084 103.163 38.306 101.69 37.3039C100.218 36.2917 99.1913 34.8805 98.6083 33.0711C98.0254 31.2508 97.933 29.1329 98.3318 26.7195C98.7306 24.3062 99.5222 22.1782 100.708 20.3375C101.895 18.4864 103.373 17.0439 105.143 16.0109C106.912 14.9679 108.855 14.4454 110.972 14.4453ZM110.421 17.6984C109.061 17.6984 107.791 18.066 106.615 18.8023C105.439 19.5282 104.458 20.4491 103.671 21.5633C102.954 22.5693 102.483 23.5936 102.258 24.6336H115.697C115.932 23.3041 115.872 22.1166 115.514 21.0734C115.166 20.0303 114.557 19.2065 113.688 18.6031C112.829 17.9998 111.74 17.6985 110.421 17.6984Z" fill="#17224E"/>
<path fill-rule="evenodd" clip-rule="evenodd" d="M110.972 14.4453C112.199 14.4453 113.38 14.6505 114.515 15.0594C115.65 15.4684 116.633 16.1336 117.461 17.0539C118.29 17.9641 118.869 19.1716 119.196 20.675C119.523 22.1781 119.503 24.0291 119.135 26.2273L119.051 26.7523C118.957 27.3342 118.454 27.7625 117.865 27.7625H101.751C101.466 29.6581 101.516 31.171 101.906 32.3023C102.315 33.458 103.026 34.2918 104.039 34.8031C105.051 35.3042 106.319 35.5555 107.843 35.5555C108.814 35.5555 109.71 35.4229 110.529 35.157C111.346 34.8809 112.078 34.4708 112.722 33.9289C113.135 33.5751 113.505 33.166 113.833 32.7031C114.162 32.2396 114.739 31.9885 115.284 32.15L116.318 32.457C117.023 32.6664 117.379 33.4605 116.969 34.0719C116.502 34.768 115.941 35.4063 115.284 35.9844C114.272 36.8741 113.084 37.5692 111.724 38.0703C110.374 38.5612 108.895 38.8086 107.29 38.8086C105.03 38.8084 103.163 38.306 101.69 37.3039C100.218 36.2917 99.1913 34.8805 98.6083 33.0711C98.0254 31.2508 97.933 29.1329 98.3318 26.7195C98.7306 24.3062 99.5222 22.1782 100.708 20.3375C101.895 18.4864 103.373 17.0439 105.143 16.0109C106.912 14.9679 108.855 14.4454 110.972 14.4453ZM110.421 17.6984C109.061 17.6984 107.791 18.066 106.615 18.8023C105.439 19.5282 104.458 20.4491 103.671 21.5633C102.954 22.5693 102.483 23.5936 102.258 24.6336H115.697C115.932 23.3041 115.872 22.1166 115.514 21.0734C115.166 20.0303 114.557 19.2065 113.688 18.6031C112.829 17.9998 111.74 17.6985 110.421 17.6984Z" fill="url(#paint5_linear_1879_81143)"/>
<path d="M153.161 9.10859C153.903 9.10859 154.467 9.77403 154.345 10.5055L153.637 14.7523H157.282C158.02 14.7523 158.584 15.4132 158.468 16.1422L158.36 16.8102C158.267 17.3921 157.766 17.82 157.176 17.8203H153.126L150.836 31.5664C150.673 32.5891 150.697 33.3566 150.911 33.868C151.136 34.3689 151.474 34.7066 151.924 34.8805C152.384 35.0441 152.881 35.1265 153.412 35.1266C153.811 35.1266 154.139 35.1042 154.394 35.0633C154.72 34.9982 155.03 35.2337 155.055 35.5648L155.184 37.2617C155.225 37.8099 154.885 38.314 154.347 38.4266C154.279 38.441 154.208 38.4567 154.134 38.4711C153.674 38.5734 153.105 38.6234 152.43 38.6234C151.408 38.6234 150.447 38.4042 149.547 37.9648C148.647 37.5251 147.956 36.8539 147.476 35.9539C146.995 35.054 146.866 33.9187 147.091 32.5484L149.522 17.8203H147.396C146.657 17.8203 146.093 17.1596 146.21 16.4305L146.318 15.7625C146.411 15.181 146.912 14.7526 147.501 14.7523H150.026L150.792 10.1117C150.888 9.53268 151.389 9.10899 151.976 9.10859H153.161Z" fill="#17224E"/>
<path d="M153.161 9.10859C153.903 9.10859 154.467 9.77403 154.345 10.5055L153.637 14.7523H157.282C158.02 14.7523 158.584 15.4132 158.468 16.1422L158.36 16.8102C158.267 17.3921 157.766 17.82 157.176 17.8203H153.126L150.836 31.5664C150.673 32.5891 150.697 33.3566 150.911 33.868C151.136 34.3689 151.474 34.7066 151.924 34.8805C152.384 35.0441 152.881 35.1265 153.412 35.1266C153.811 35.1266 154.139 35.1042 154.394 35.0633C154.72 34.9982 155.03 35.2337 155.055 35.5648L155.184 37.2617C155.225 37.8099 154.885 38.314 154.347 38.4266C154.279 38.441 154.208 38.4567 154.134 38.4711C153.674 38.5734 153.105 38.6234 152.43 38.6234C151.408 38.6234 150.447 38.4042 149.547 37.9648C148.647 37.5251 147.956 36.8539 147.476 35.9539C146.995 35.054 146.866 33.9187 147.091 32.5484L149.522 17.8203H147.396C146.657 17.8203 146.093 17.1596 146.21 16.4305L146.318 15.7625C146.411 15.181 146.912 14.7526 147.501 14.7523H150.026L150.792 10.1117C150.888 9.53268 151.389 9.10899 151.976 9.10859H153.161Z" fill="url(#paint6_linear_1879_81143)"/>
<path fill-rule="evenodd" clip-rule="evenodd" d="M64.0966 6.89844C64.6681 6.89844 65.1604 7.30154 65.2732 7.86172L71.1115 36.8797C71.2609 37.6226 70.6927 38.3164 69.9349 38.3164H68.4068C67.83 38.3161 67.3347 37.9058 67.2279 37.3391L65.7396 29.4195H53.0341L48.7263 37.6719C48.5195 38.068 48.1091 38.3163 47.6622 38.3164H46.4013C45.4955 38.3164 44.9157 37.3509 45.3419 36.5516L60.813 7.53359C61.0215 7.14266 61.4294 6.89864 61.8724 6.89844H64.0966ZM54.7966 26.0445H65.1044L62.4419 11.8695H62.1958L54.7966 26.0445Z" fill="#17224E"/>
<path fill-rule="evenodd" clip-rule="evenodd" d="M64.0966 6.89844C64.6681 6.89844 65.1604 7.30154 65.2732 7.86172L71.1115 36.8797C71.2609 37.6226 70.6927 38.3164 69.9349 38.3164H68.4068C67.83 38.3161 67.3347 37.9058 67.2279 37.3391L65.7396 29.4195H53.0341L48.7263 37.6719C48.5195 38.068 48.1091 38.3163 47.6622 38.3164H46.4013C45.4955 38.3164 44.9157 37.3509 45.3419 36.5516L60.813 7.53359C61.0215 7.14266 61.4294 6.89864 61.8724 6.89844H64.0966ZM54.7966 26.0445H65.1044L62.4419 11.8695H62.1958L54.7966 26.0445Z" fill="url(#paint7_linear_1879_81143)"/>
<path d="M135.64 14.4453C137.214 14.4455 138.543 14.7733 139.626 15.4273C140.721 16.0717 141.494 17.0541 141.944 18.3734C142.404 19.6825 142.471 21.3401 142.143 23.3445L139.795 37.3156C139.698 37.8934 139.197 38.3164 138.611 38.3164H137.423C136.682 38.3164 136.118 37.6509 136.24 36.9195L138.461 23.5883C138.768 21.748 138.527 20.307 137.74 19.2641C136.962 18.221 135.731 17.6985 134.043 17.6984C132.878 17.6984 131.799 17.9497 130.807 18.4508C129.825 18.9519 128.991 19.6832 128.306 20.6445C127.631 21.6058 127.171 22.7712 126.926 24.1414L124.758 37.3109C124.662 37.8907 124.162 38.3164 123.574 38.3164H122.388C121.647 38.3158 121.083 37.6505 121.204 36.9195L124.732 15.7555C124.828 15.1772 125.329 14.7528 125.915 14.7523H126.982C127.723 14.7528 128.286 15.4185 128.165 16.1492L127.783 18.4344H128.09C128.827 17.2379 129.825 16.2777 131.083 15.5516C132.341 14.8154 133.86 14.4453 135.64 14.4453Z" fill="#17224E"/>
<path d="M135.64 14.4453C137.214 14.4455 138.543 14.7733 139.626 15.4273C140.721 16.0717 141.494 17.0541 141.944 18.3734C142.404 19.6825 142.471 21.3401 142.143 23.3445L139.795 37.3156C139.698 37.8934 139.197 38.3164 138.611 38.3164H137.423C136.682 38.3164 136.118 37.6509 136.24 36.9195L138.461 23.5883C138.768 21.748 138.527 20.307 137.74 19.2641C136.962 18.221 135.731 17.6985 134.043 17.6984C132.878 17.6984 131.799 17.9497 130.807 18.4508C129.825 18.9519 128.991 19.6832 128.306 20.6445C127.631 21.6058 127.171 22.7712 126.926 24.1414L124.758 37.3109C124.662 37.8907 124.162 38.3164 123.574 38.3164H122.388C121.647 38.3158 121.083 37.6505 121.204 36.9195L124.732 15.7555C124.828 15.1772 125.329 14.7528 125.915 14.7523H126.982C127.723 14.7528 128.286 15.4185 128.165 16.1492L127.783 18.4344H128.09C128.827 17.2379 129.825 16.2777 131.083 15.5516C132.341 14.8154 133.86 14.4453 135.64 14.4453Z" fill="url(#paint8_linear_1879_81143)"/>
<rect x="172.102" y="21.6016" width="4.8" height="4.8" rx="2.4" fill="#04369A"/>
<path d="M191.135 27.6279C191.038 27.1232 191.356 26.6319 191.855 26.5101C193.322 26.1524 195.006 25.7225 196.907 25.2204C198.83 24.691 200.782 24.1524 202.763 23.6046C203.361 23.4391 203.957 23.8763 203.979 24.4968L204.005 25.2668C204.021 25.7055 203.736 26.0987 203.315 26.2216C201.382 26.7856 199.438 27.3495 197.484 27.9135C195.699 28.4079 194.049 28.8761 192.533 29.3181C191.989 29.4769 191.424 29.1336 191.317 28.5765L191.135 27.6279ZM192.784 14.6291C192.838 14.1428 193.249 13.775 193.738 13.775H205.155C205.727 13.775 206.172 14.2724 206.109 14.8412L206.01 15.7327C205.956 16.2189 205.545 16.5868 205.056 16.5868H193.639C193.067 16.5868 192.622 16.0894 192.685 15.5206L192.784 14.6291ZM199.132 6.62915C199.186 6.14288 199.597 5.775 200.086 5.775H201.063C201.635 5.775 202.08 6.27244 202.017 6.84122L198.505 38.448C198.414 39.2665 198.238 39.9002 197.975 40.349C197.713 40.7979 197.303 41.1411 196.745 41.3787C196.19 41.5899 195.472 41.722 194.589 41.7748C193.915 41.8351 193.105 41.8724 192.158 41.8868C191.64 41.8947 191.213 41.4808 191.113 40.9724C191.087 40.8368 191.056 40.6951 191.02 40.547C190.893 39.883 191.386 39.1827 192.062 39.1923C192.445 39.1978 192.812 39.2005 193.162 39.2005C193.959 39.2005 194.477 39.2005 194.716 39.2005C195.011 39.1741 195.218 39.1081 195.336 39.0025C195.48 38.8969 195.567 38.7121 195.596 38.448L199.132 6.62915ZM211.381 7.20074H221.821L221.513 9.973H211.073L211.381 7.20074ZM204.877 24.134C204.932 23.6477 205.343 23.2798 205.832 23.2798H223.342L223.034 26.0521H205.737C205.165 26.0521 204.72 25.5547 204.783 24.9859L204.877 24.134ZM222.306 23.2798H222.904L223.475 23.161L224.451 23.5977C224.938 23.8153 225.156 24.3888 224.92 24.8673C223.81 27.1249 222.496 29.1435 220.979 30.9233C219.268 32.9299 217.361 34.6725 215.257 36.151C213.154 37.6296 210.904 38.8705 208.508 39.8738C206.441 40.749 204.32 41.4736 202.145 42.0474C201.645 42.1794 201.138 41.8141 200.934 41.3391C200.809 41.0223 200.66 40.6923 200.486 40.349C200.306 39.971 200.492 39.4508 200.9 39.3581C202.915 38.9002 204.887 38.2933 206.815 37.5372C209.064 36.6659 211.163 35.5834 213.113 34.2897C215.093 32.9695 216.857 31.4382 218.405 29.6956C219.983 27.9267 221.266 25.9465 222.253 23.7551L222.306 23.2798ZM208.454 25.2996C209.276 27.7022 210.51 29.8672 212.155 31.7946C213.804 33.6956 215.829 35.3062 218.233 36.6263C220.345 37.7615 222.699 38.6426 225.297 39.2696C225.752 39.3794 225.916 39.9699 225.594 40.3094C225.317 40.6526 225.053 40.9959 224.802 41.3391C224.719 41.4528 224.641 41.5621 224.568 41.6671C224.329 42.0086 223.908 42.1847 223.505 42.0787C219.124 40.9253 215.46 39.055 212.513 36.4679C209.414 33.7484 207.163 30.3425 205.758 26.2501L208.454 25.2996ZM210.529 8.05488C210.583 7.56862 210.994 7.20074 211.484 7.20074H213.453L212.96 11.6364C212.826 12.8509 212.527 14.105 212.064 15.3987C211.605 16.666 210.869 17.9069 209.858 19.1214C209.021 20.1338 207.905 21.0503 206.511 21.871C206.103 22.1114 205.576 21.9479 205.281 21.5769C205.074 21.2864 204.853 21.0092 204.616 20.7452C204.361 20.4268 204.429 19.8967 204.784 19.6944C206.011 18.9947 206.967 18.2492 207.651 17.4581C208.504 16.4812 209.105 15.4911 209.456 14.4878C209.806 13.4845 210.035 12.5076 210.14 11.5571L210.529 8.05488ZM220.427 7.20074H222.223C222.795 7.20074 223.24 7.69817 223.177 8.26695L222.275 16.3888C222.213 16.9432 222.209 17.3393 222.262 17.5769C222.345 17.7881 222.546 17.8937 222.865 17.8937C223.051 17.8937 223.356 17.8937 223.781 17.8937C224.206 17.8937 224.631 17.8937 225.056 17.8937C225.481 17.8937 225.773 17.8937 225.933 17.8937C226.252 17.8937 226.598 17.8805 226.973 17.8541C227.486 17.7825 227.96 18.1651 227.938 18.6823C227.933 18.7859 227.928 18.8927 227.922 19.0026C227.912 19.161 227.907 19.3115 227.905 19.4541C227.897 19.9251 227.605 20.3671 227.136 20.4116C227.068 20.418 226.998 20.4236 226.926 20.4284C226.525 20.4548 226.125 20.468 225.727 20.468C225.514 20.468 225.169 20.468 224.691 20.468C224.212 20.468 223.747 20.468 223.296 20.468C222.871 20.468 222.565 20.468 222.379 20.468C221.45 20.468 220.747 20.336 220.272 20.0719C219.796 19.8079 219.499 19.3723 219.381 18.765C219.289 18.1578 219.3 17.3393 219.415 16.3096L220.427 7.20074Z" fill="#04369A"/>
<path d="M240.251 7.42802C240.078 6.89656 240.375 6.32088 240.914 6.17154L241.795 5.92721C242.269 5.79572 242.767 6.04346 242.932 6.50715C243.151 7.12319 243.359 7.77682 243.557 8.46806C243.734 9.06545 243.888 9.60854 244.017 10.0973C244.146 10.5838 243.864 11.0802 243.384 11.2315L242.467 11.5206C241.887 11.7032 241.283 11.3083 241.161 10.7134C241.068 10.2644 240.948 9.78 240.799 9.26013C240.62 8.61292 240.438 8.00221 240.251 7.42802ZM232.728 13.0449C232.782 12.5587 233.193 12.1908 233.682 12.1908H249.442C250.014 12.1908 250.46 12.6882 250.396 13.257L250.302 14.1089C250.248 14.5952 249.837 14.9631 249.347 14.9631H233.587C233.015 14.9631 232.57 14.4656 232.633 13.8968L232.728 13.0449ZM238.385 20.2303H246.035L245.727 23.0026H238.077L238.385 20.2303ZM244.999 20.2303H247.549C247.698 20.2303 247.814 20.3597 247.798 20.5076C247.78 20.666 247.759 20.8508 247.736 21.062C247.713 21.2732 247.679 21.4581 247.635 21.6165C247.221 24.864 246.848 27.623 246.516 29.8937C246.187 32.1379 245.89 33.9728 245.625 35.3986C245.36 36.8243 245.103 37.9464 244.853 38.7649C244.605 39.5569 244.331 40.1114 244.03 40.4282C243.635 40.8771 243.241 41.1939 242.849 41.3787C242.483 41.5635 242.031 41.6823 241.494 41.7352C241.01 41.788 240.37 41.8144 239.573 41.8144C239.104 41.8144 238.62 41.8095 238.123 41.7997C237.586 41.7891 237.169 41.3337 237.119 40.7993C237.105 40.6537 237.087 40.5037 237.066 40.349C236.97 39.7256 237.463 39.0755 238.093 39.1028C238.379 39.1151 238.653 39.1213 238.916 39.1213C239.603 39.1477 240.107 39.1609 240.425 39.1609C240.718 39.1609 240.961 39.1213 241.156 39.0421C241.348 38.9893 241.523 38.8441 241.682 38.6065C241.895 38.3688 242.092 37.9068 242.275 37.2203C242.487 36.5075 242.722 35.4646 242.981 34.0916C243.24 32.7187 243.516 30.9497 243.81 28.7847C244.13 26.6197 244.503 23.9795 244.929 20.864L244.999 20.2303ZM254.429 13.1809H268.22C268.792 13.1809 269.237 13.6783 269.174 14.2471L269.079 15.099C269.025 15.5853 268.614 15.9532 268.125 15.9532H254.121L254.429 13.1809ZM255.932 6.56276C256.072 6.09296 256.539 5.79802 257.023 5.88065L258.113 6.06705C258.682 6.16435 259.037 6.73835 258.863 7.28879C258.184 9.43724 257.421 11.5465 256.573 13.6165C255.591 15.9928 254.521 18.2106 253.363 20.27C252.38 21.9984 251.33 23.5551 250.213 24.94C249.921 25.3022 249.347 25.2729 249.018 24.9432C248.785 24.6528 248.523 24.3755 248.234 24.1115C248.22 24.0963 248.207 24.0811 248.193 24.0662C247.848 23.6829 247.828 23.0954 248.156 22.6972C249.173 21.4607 250.124 20.0575 251.011 18.4878C252.069 16.6132 253.024 14.5934 253.875 12.4284C254.648 10.5243 255.333 8.56904 255.932 6.56276ZM263.392 14.6462L266.301 15.0027C265.105 19.5439 263.665 23.5439 261.979 27.0026C260.296 30.4349 258.211 33.4184 255.725 35.953C253.431 38.269 250.677 40.2474 247.462 41.8881C247.051 42.0982 246.532 41.8612 246.307 41.4579C246.129 41.1411 245.939 40.8243 245.735 40.5074C245.502 40.0909 245.632 39.5166 246.062 39.3103C249.061 37.874 251.61 36.108 253.709 34.0124C256.036 31.7154 257.962 28.9696 259.485 25.7749C261.039 22.5538 262.341 18.8442 263.392 14.6462ZM255.343 15.7155C255.573 19.3855 256.096 22.8046 256.913 25.9729C257.733 29.1148 258.929 31.8606 260.501 34.2105C261.899 36.2401 263.657 37.8667 265.774 39.0905C266.205 39.3397 266.276 39.9618 265.92 40.3094C265.619 40.6262 265.333 40.9299 265.061 41.2203C264.986 41.3072 264.913 41.3931 264.842 41.478C264.535 41.8451 264.009 41.9613 263.601 41.7116C261.302 40.3055 259.411 38.4652 257.93 36.1906C256.325 33.656 255.113 30.6989 254.293 27.3194C253.476 23.9135 252.947 20.1907 252.705 16.1512L255.343 15.7155ZM237.375 13.5373H240.244L239.166 23.2402C238.925 25.4052 238.536 27.5966 237.997 29.8144C237.488 32.0058 236.679 34.1444 235.571 36.2302C234.635 38.035 233.359 39.7606 231.745 41.4072C231.34 41.8204 230.659 41.7586 230.253 41.3468C230.186 41.2792 230.116 41.2106 230.044 41.1411C229.968 41.0733 229.892 41.0071 229.818 40.9424C229.372 40.5563 229.338 39.8646 229.748 39.4405C231.176 37.9616 232.307 36.4163 233.139 34.8045C234.15 32.8771 234.871 30.9365 235.3 28.9828C235.759 27.0026 236.093 25.0752 236.301 23.2006L237.375 13.5373Z" fill="#04369A"/>
<path d="M278.625 38.5669H299.705L299.445 40.9035H278.366L278.625 38.5669ZM274.323 17.7578C274.377 17.2715 274.788 16.9036 275.277 16.9036H305.781C306.353 16.9036 306.798 17.4011 306.735 17.9699L306.127 23.4382H303.099L303.565 19.2403H277.067L276.695 22.5841C276.641 23.0704 276.23 23.4382 275.741 23.4382H274.764C274.192 23.4382 273.747 22.9408 273.81 22.372L274.323 17.7578ZM280.301 21.6957H300.347C300.919 21.6957 301.364 22.1931 301.301 22.7619L300.63 28.8019C300.576 29.2881 300.165 29.656 299.676 29.656H279.416L279.667 27.3986H297.877L298.256 23.9927H280.045L280.301 21.6957ZM279.272 32.3887H301.271C301.843 32.3887 302.288 32.8861 302.225 33.4549L301.352 41.3166C301.298 41.8029 300.887 42.1708 300.397 42.1708H299.381C298.808 42.1708 298.363 41.6734 298.426 41.1046L299.135 34.7253H279.012L279.272 32.3887ZM278.173 22.5498C278.228 22.0636 278.639 21.6957 279.128 21.6957H281.297L279.108 41.3959C279.054 41.8821 278.643 42.25 278.154 42.25H277.057C276.485 42.25 276.04 41.7526 276.103 41.1838L278.173 22.5498ZM288.674 15.4848C288.453 14.9072 288.787 14.2514 289.393 14.1284L290.278 13.9488C290.674 13.8682 291.083 14.0434 291.268 14.4034C291.475 14.806 291.667 15.2434 291.843 15.7155C292.11 16.4284 292.281 17.0357 292.358 17.5373L289.494 18.2106C289.42 17.6825 289.25 17.0621 288.984 16.3492C288.884 16.0519 288.781 15.7637 288.674 15.4848ZM277.848 8.9829H289.721C290.168 8.9829 290.516 9.37145 290.467 9.81572L290.387 10.5335C290.345 10.9134 290.024 11.2007 289.642 11.2007H277.602L277.848 8.9829ZM294.46 9.02251H307.887C308.334 9.02251 308.682 9.41106 308.633 9.85533L308.553 10.5731C308.511 10.953 308.19 11.2403 307.808 11.2403H294.214L294.46 9.02251ZM277.995 6.34558C278.179 5.92456 278.627 5.67996 279.078 5.76777L279.987 5.94479C280.586 6.06138 280.926 6.69975 280.67 7.25341C279.979 8.74874 279.179 10.2097 278.27 11.6364C277.331 13.0933 276.366 14.3656 275.375 15.4534C275.056 15.8037 274.504 15.8173 274.085 15.5967C273.786 15.4119 273.487 15.2403 273.186 15.0819C272.816 14.8531 272.73 14.3093 273.037 14.0019C274.009 13.0275 274.902 11.8957 275.715 10.6067C276.598 9.22515 277.358 7.80479 277.995 6.34558ZM294.856 6.44378C295.032 6.01377 295.481 5.75592 295.939 5.83851L296.851 6.00315C297.446 6.11061 297.795 6.73541 297.551 7.28881C297.009 8.5189 296.375 9.71726 295.648 10.8839C294.903 12.0972 294.112 13.1593 293.275 14.0704C292.971 14.4008 292.448 14.4194 292.05 14.2106C291.779 14.0258 291.492 13.8542 291.191 13.6957C290.824 13.4683 290.744 12.9369 291.039 12.6221C291.798 11.8134 292.496 10.8908 293.132 9.85418C293.803 8.74429 294.377 7.60749 294.856 6.44378ZM281.01 10.6463L283.485 9.89379C283.907 10.6331 284.32 11.4647 284.722 12.3888C284.985 12.9359 285.193 13.4388 285.348 13.8976C285.504 14.3614 285.226 14.8412 284.761 14.9943L283.949 15.2615C283.406 15.4403 282.826 15.107 282.651 14.5622C282.519 14.1511 282.355 13.7038 282.159 13.2205C281.813 12.27 281.43 11.4119 281.01 10.6463ZM297.963 10.8443L300.42 9.89379C300.975 10.6331 301.509 11.4515 302.02 12.3492C302.349 12.8792 302.618 13.3701 302.828 13.8219C303.039 14.2769 302.802 14.796 302.34 14.9901L301.55 15.321C301.04 15.5349 300.454 15.2748 300.223 14.7721C300.031 14.3516 299.794 13.8872 299.515 13.3789C299.033 12.4548 298.516 11.6099 297.963 10.8443Z" fill="#04369A"/>
<path d="M329.124 17.6561L328.557 22.765H343.34L343.908 17.6561H329.124ZM329.951 10.2106L329.393 15.2403H344.176L344.735 10.2106H329.951ZM327.398 8.45092C327.452 7.96465 327.863 7.59677 328.352 7.59677H346.822C347.394 7.59677 347.839 8.09421 347.776 8.66299L346.018 24.4851C345.964 24.9713 345.553 25.3392 345.064 25.3392H326.594C326.022 25.3392 325.576 24.8418 325.64 24.273L327.398 8.45092ZM324.429 30.8666C324.483 30.3803 324.894 30.0125 325.383 30.0125H344.889C345.461 30.0125 345.906 30.5099 345.843 31.0787L345.757 31.8514C345.703 32.3376 345.292 32.7055 344.803 32.7055H325.297C324.725 32.7055 324.28 32.2081 324.343 31.6393L324.429 30.8666ZM320.454 39.025C320.508 38.5387 320.919 38.1708 321.408 38.1708H345.337C345.909 38.1708 346.355 38.6683 346.291 39.237L346.201 40.0493C346.147 40.5356 345.736 40.9035 345.247 40.9035H321.318C320.746 40.9035 320.301 40.406 320.364 39.8373L320.454 39.025ZM312.92 9.28259C312.974 8.79633 313.385 8.42845 313.875 8.42845H324.375C324.947 8.42845 325.392 8.92589 325.329 9.49466L325.23 10.3862C325.176 10.8724 324.765 11.2403 324.276 11.2403H313.775C313.203 11.2403 312.758 10.7429 312.821 10.1741L312.92 9.28259ZM312.043 20.7677C312.097 20.2814 312.508 19.9135 312.997 19.9135H322.501C323.073 19.9135 323.518 20.411 323.455 20.9797L323.361 21.8316C323.307 22.3179 322.896 22.6858 322.406 22.6858H312.902C312.33 22.6858 311.885 22.1883 311.948 21.6196L312.043 20.7677ZM309.732 35.912C309.665 35.4364 309.96 34.9846 310.422 34.8542C311.334 34.5969 312.327 34.3163 313.4 34.0124C314.828 33.59 316.328 33.128 317.897 32.6263C319.109 32.2264 320.319 31.834 321.529 31.4492C322.121 31.2609 322.732 31.6781 322.774 32.298L322.837 33.222C322.867 33.6629 322.592 34.0673 322.171 34.2021C320.176 34.8412 318.17 35.4909 316.151 36.151C314.332 36.7254 312.656 37.2568 311.123 37.7455C310.556 37.9262 309.962 37.5533 309.88 36.9639L309.732 35.912ZM317.833 9.53735H320.702L317.974 34.0916L315.043 34.6461L317.833 9.53735ZM336.202 8.82449H338.792L337.098 24.0719H337.337L335.634 39.3985H332.566L334.269 24.0719H334.508L336.202 8.82449Z" fill="#04369A"/>
<defs>
<linearGradient id="paint0_linear_1879_81143" x1="28.6974" y1="5.33203" x2="28.6974" y2="43.4629" gradientUnits="userSpaceOnUse">
<stop stop-color="#6997F4"/>
<stop offset="1" stop-color="#94B5F7"/>
</linearGradient>
<linearGradient id="paint1_linear_1879_81143" x1="16.4787" y1="5.35547" x2="16.4787" y2="26.3274" gradientUnits="userSpaceOnUse">
<stop stop-color="#6997F4"/>
<stop offset="1" stop-color="#94B5F7"/>
</linearGradient>
<linearGradient id="paint2_linear_1879_81143" x1="37.3458" y1="9.77344" x2="37.3458" y2="47.9043" gradientUnits="userSpaceOnUse">
<stop stop-color="#6997F4"/>
<stop offset="1" stop-color="#94B5F7"/>
</linearGradient>
<linearGradient id="paint3_linear_1879_81143" x1="38.8576" y1="23.1602" x2="38.8576" y2="44.1321" gradientUnits="userSpaceOnUse">
<stop stop-color="#6997F4"/>
<stop offset="1" stop-color="#94B5F7"/>
</linearGradient>
<linearGradient id="paint4_linear_1879_81143" x1="45.2559" y1="21.5188" x2="159.259" y2="21.5188" gradientUnits="userSpaceOnUse">
<stop stop-color="#296BEF"/>
<stop offset="1" stop-color="#04369A"/>
</linearGradient>
<linearGradient id="paint5_linear_1879_81143" x1="45.2559" y1="21.5188" x2="159.259" y2="21.5188" gradientUnits="userSpaceOnUse">
<stop stop-color="#296BEF"/>
<stop offset="1" stop-color="#04369A"/>
</linearGradient>
<linearGradient id="paint6_linear_1879_81143" x1="45.2559" y1="21.5188" x2="159.259" y2="21.5188" gradientUnits="userSpaceOnUse">
<stop stop-color="#296BEF"/>
<stop offset="1" stop-color="#04369A"/>
</linearGradient>
<linearGradient id="paint7_linear_1879_81143" x1="45.2559" y1="21.5188" x2="159.259" y2="21.5188" gradientUnits="userSpaceOnUse">
<stop stop-color="#296BEF"/>
<stop offset="1" stop-color="#04369A"/>
</linearGradient>
<linearGradient id="paint8_linear_1879_81143" x1="45.2559" y1="21.5188" x2="159.259" y2="21.5188" gradientUnits="userSpaceOnUse">
<stop stop-color="#296BEF"/>
<stop offset="1" stop-color="#04369A"/>
</linearGradient>
</defs>
</svg>
