<svg width="888" height="198" viewBox="0 0 888 198" fill="none" xmlns="http://www.w3.org/2000/svg">
<path d="M6.482 11.744H3.402V8.664H10.626V11.744H7.518V12.864H11.97V15.412C11.97 16.252 11.536 16.672 10.696 16.672H9.576L9.31 15.706L10.374 15.748C10.766 15.748 10.976 15.552 10.976 15.188V13.788H7.518V17.428H6.482V13.788H3.094V16.756H2.1V12.864H6.482V11.744ZM6.482 4.492H7.518V6.634H9.296C9.73 6.018 10.108 5.374 10.416 4.688L11.354 5.038C11.032 5.654 10.696 6.186 10.36 6.634H12.824V9.462H11.788V7.586H2.212V9.476H1.176V6.634H3.458C3.192 6.102 2.87 5.598 2.506 5.136L3.458 4.786C3.822 5.304 4.158 5.92 4.452 6.634H6.482V4.492ZM9.66 10.89V9.518H4.382V10.89H9.66ZM16.982 9.448V11.898H20.538V9.448H16.982ZM16.926 12.822C16.772 14.614 16.254 16.098 15.358 17.274L14.588 16.588C15.484 15.342 15.946 13.76 15.974 11.842V5.122H26.404V15.608C26.404 16.588 25.914 17.078 24.934 17.078H23.324L23.058 16.084C23.618 16.112 24.136 16.14 24.612 16.14C25.116 16.14 25.382 15.846 25.382 15.258V12.822H21.574V16.924H20.538V12.822H16.926ZM25.382 11.898V9.448H21.574V11.898H25.382ZM25.382 8.51V6.102H21.574V8.51H25.382ZM20.538 6.102H16.982V8.51H20.538V6.102ZM30.31 17.274H29.05L28.84 16.294C29.232 16.322 29.596 16.35 29.96 16.35C30.296 16.35 30.478 16.168 30.478 15.818V12.402C29.946 12.612 29.4 12.808 28.854 12.976L28.616 11.968C29.246 11.814 29.862 11.618 30.478 11.38V8.216H28.784V7.25H30.478V4.604H31.514V7.25H32.928V8.216H31.514V10.946C31.92 10.75 32.326 10.554 32.718 10.33V11.352C32.326 11.562 31.92 11.758 31.514 11.954V16.084C31.514 16.868 31.108 17.274 30.31 17.274ZM34.02 5.052H40.124V9.91H34.02V5.052ZM39.144 9.084V7.88H35V9.084H39.144ZM35 7.096H39.144V5.878H35V7.096ZM33.04 10.89H41.048V11.786H37.548V13.368H40.474V14.278H37.548V16.084C38.108 16.168 38.766 16.21 39.536 16.21C40.264 16.21 40.894 16.182 41.412 16.14L41.132 17.12C40.572 17.12 40.054 17.106 39.606 17.106C37.758 17.092 36.498 16.91 35.826 16.574C35.294 16.294 34.804 15.762 34.384 14.978C34.048 15.846 33.586 16.644 32.984 17.372L32.242 16.728C33.306 15.44 33.894 13.984 34.006 12.388L34.902 12.486C34.874 12.99 34.804 13.466 34.692 13.942C35.14 14.88 35.658 15.482 36.246 15.748C36.344 15.79 36.456 15.832 36.582 15.874V11.786H33.04V10.89ZM48.258 17.232H46.452L46.242 16.252C46.83 16.28 47.376 16.308 47.908 16.308C48.328 16.308 48.538 16.098 48.538 15.706V9.882H43.036V8.888H54.964V9.882H49.56V15.958C49.56 16.798 49.126 17.232 48.258 17.232ZM45.192 11.422L46.186 11.632C45.598 13.564 44.786 15.23 43.722 16.63L42.84 16.084C43.918 14.684 44.702 13.13 45.192 11.422ZM52.584 11.282C53.536 12.794 54.376 14.39 55.076 16.098L54.152 16.518C53.396 14.656 52.57 13.018 51.674 11.59L52.584 11.282ZM44.324 5.332H53.718V6.312H44.324V5.332ZM67.368 17.344H65.758L65.506 16.378L67.158 16.406C67.62 16.406 67.858 16.154 67.858 15.65V6.102H61.166V5.15H68.852V15.944C68.852 16.868 68.348 17.344 67.368 17.344ZM61.488 7.754H66.892V8.72H61.488V7.754ZM61.992 10.246H66.332V14.586H61.992V10.246ZM65.38 13.704V11.128H62.972V13.704H65.38ZM58.268 4.702C59.22 5.416 60.018 6.13 60.662 6.858L59.976 7.558C59.388 6.872 58.576 6.144 57.568 5.388L58.268 4.702ZM56.616 8.846H59.612V14.978C60.018 14.6 60.452 14.166 60.928 13.676L61.194 14.754C60.424 15.552 59.598 16.266 58.73 16.882L58.338 15.986C58.534 15.804 58.646 15.608 58.646 15.384V9.812H56.616V8.846ZM76.258 17.232H74.452L74.242 16.252C74.83 16.28 75.376 16.308 75.908 16.308C76.328 16.308 76.538 16.098 76.538 15.706V9.882H71.036V8.888H82.964V9.882H77.56V15.958C77.56 16.798 77.126 17.232 76.258 17.232ZM73.192 11.422L74.186 11.632C73.598 13.564 72.786 15.23 71.722 16.63L70.84 16.084C71.918 14.684 72.702 13.13 73.192 11.422ZM80.584 11.282C81.536 12.794 82.376 14.39 83.076 16.098L82.152 16.518C81.396 14.656 80.57 13.018 79.674 11.59L80.584 11.282ZM72.324 5.332H81.718V6.312H72.324V5.332ZM88.41 5.374H93.016V6.34H90.468C90.398 7.04 90.3 7.698 90.174 8.328H92.75V9.196C92.246 13.074 90.832 15.79 88.536 17.358L88.032 16.462C89.152 15.692 90.034 14.614 90.678 13.242C90.09 12.668 89.502 12.206 88.928 11.842C88.648 12.332 88.354 12.78 88.032 13.186L87.528 12.206C88.62 10.778 89.278 8.818 89.502 6.34H88.41V5.374ZM89.334 11.016C89.95 11.38 90.524 11.814 91.07 12.29C91.406 11.366 91.644 10.344 91.812 9.252H89.95C89.782 9.882 89.572 10.47 89.334 11.016ZM95.564 17.302H94.024L93.8 16.336C94.304 16.378 94.766 16.406 95.214 16.406C95.62 16.406 95.83 16.196 95.83 15.776V4.604H96.838V16.028C96.838 16.868 96.404 17.302 95.564 17.302ZM85.918 9.812C85.568 10.344 85.204 10.848 84.812 11.324L84.476 10.26C85.708 8.58 86.604 6.662 87.164 4.492L88.116 4.926C87.808 6.032 87.402 7.068 86.926 8.048V17.428H85.918V9.812ZM93.618 5.892H94.542V14.572H93.618V5.892Z" fill="#33373D" fill-opacity="0.58"/>
<path d="M0 58C0 46.9543 8.9543 38 20 38H281.333C283.542 38 285.333 39.7909 285.333 42V90C285.333 101.046 276.379 110 265.333 110H20C8.95432 110 0 101.046 0 90V58Z" fill="#F2F4FA"/>
<path d="M36.488 55.59L37.202 56.906C36.012 57.298 34.696 57.536 33.254 57.62V59.79H37.496V61.176H36.208V68.47H34.766V61.176H33.254V62.506C33.184 64.984 32.638 66.958 31.616 68.442L30.566 67.336C31.35 66.174 31.784 64.564 31.84 62.506V56.43C33.576 56.402 35.116 56.122 36.488 55.59ZM24.798 56.57H27.22C27.052 56.22 26.87 55.898 26.674 55.604L28.186 55.352C28.354 55.716 28.508 56.122 28.676 56.57H31.224V57.914H24.798V56.57ZM24.658 59.748H26.086C25.918 59.286 25.722 58.852 25.498 58.46L26.786 57.97C26.996 58.474 27.192 59.062 27.388 59.748H28.62C28.83 59.174 29.012 58.586 29.166 57.97L30.468 58.432C30.3 58.908 30.132 59.342 29.95 59.748H31.308V61.078H28.774V62.212H31.07V63.542H28.774V67.21C28.774 68.078 28.284 68.512 27.318 68.512H26.59L26.268 67.168C26.478 67.224 26.674 67.266 26.842 67.266C27.15 67.266 27.318 67.126 27.318 66.86V63.542H24.882V62.212H27.318V61.078H24.658V59.748ZM25.666 64.088L26.982 64.368C26.66 65.796 26.212 67.028 25.624 68.078L24.406 67.308C25.008 66.3 25.428 65.222 25.666 64.088ZM30.202 64.004C30.538 64.872 30.818 65.67 31.014 66.398L29.782 66.874C29.572 66.006 29.306 65.152 28.998 64.326L30.202 64.004ZM50.418 61.456H47.464V62.212H50.572V63.402H47.464V64.158H50.978V65.376H47.464V66.398H46.036V65.376H43.026V64.158H46.036V63.402H43.46V62.212H46.036V61.456H43.754V60.252H46.036V59.482H43.068V58.306H46.036V57.578H43.754V56.374H46.036V55.478H47.464V56.374H50.418V58.306H51.216V59.482H50.418V61.456ZM47.464 57.578V58.306H49.018V57.578H47.464ZM47.464 59.482V60.252H49.018V59.482H47.464ZM46.414 66.846C48.01 66.846 49.662 66.818 51.37 66.762L51.118 68.148H47.044C44.44 68.148 42.592 67.77 41.486 67.042L41.206 66.818C40.786 67.406 40.282 67.924 39.694 68.372L38.728 67.126C39.316 66.72 39.82 66.244 40.212 65.684C39.708 64.928 39.288 63.976 38.952 62.828L40.184 62.366C40.408 63.15 40.66 63.822 40.94 64.368C41.276 63.556 41.486 62.618 41.57 61.568H39.078V60.462C39.806 59.51 40.478 58.516 41.094 57.452H39.078V56.08H42.718V57.27C42.116 58.404 41.528 59.398 40.94 60.252H42.9V61.12C42.844 62.898 42.494 64.424 41.878 65.684C42.032 65.838 42.2 65.964 42.368 66.062C43.264 66.566 44.608 66.818 46.414 66.846ZM59.658 55.338C59.882 55.786 60.092 56.29 60.288 56.85H65.286V58.264H55.08V61.148C55.038 64.228 54.59 66.706 53.75 68.568L52.504 67.462C53.204 65.95 53.568 63.836 53.596 61.148V56.85H58.664C58.468 56.402 58.258 55.996 58.02 55.618L59.658 55.338ZM77.788 63.08V68.456H76.304V67.798H69.78V68.456H68.296V63.08H77.788ZM69.78 66.426H76.304V64.452H69.78V66.426ZM69.402 58.712C68.926 59.342 68.366 59.916 67.75 60.434L66.882 59.286C68.114 58.292 68.94 57.074 69.374 55.646L70.83 55.814C70.676 56.346 70.48 56.836 70.256 57.312H72.44V55.492H73.91V57.312H78.32V58.712H73.91V60.518H79.398V61.946H66.602V60.518H72.44V58.712H69.402Z" fill="#262629" fill-opacity="0.72"/>
<path d="M27.472 83.426H28.452V85.596H29.936V86.548H28.452V88.564C29.124 88.424 29.754 88.284 30.342 88.144V89.068C29.726 89.236 29.096 89.376 28.452 89.516V92.344H27.472V89.712C26.632 89.852 25.75 89.992 24.826 90.118L24.7 89.138C25.68 89.026 26.604 88.886 27.472 88.746V86.548H25.12L24.896 85.638C25.344 84.756 25.764 83.636 26.156 82.278H24.672V81.298H26.408C26.548 80.738 26.674 80.15 26.8 79.548L27.752 79.688C27.626 80.248 27.5 80.78 27.374 81.298H30.02V82.278H27.108C26.744 83.538 26.352 84.644 25.918 85.596H27.472V83.426ZM33.058 87.752H30.538V86.772H36.684V87.752H34.052V90.958H37.314V91.924H29.754V90.958H33.058V87.752ZM33.996 84.028C33.1 84.868 31.98 85.568 30.65 86.142L30.02 85.316C32.358 84.35 33.982 82.992 34.878 81.256H30.58V80.29H36.026V81.074C35.69 81.914 35.228 82.67 34.64 83.37C35.718 84.07 36.628 84.756 37.384 85.456L36.684 86.17C36.012 85.484 35.116 84.77 33.996 84.028ZM45.714 79.814L46.638 80.178C46.036 82.782 45.252 84.77 44.272 86.142L43.502 85.47C44.482 84.07 45.224 82.194 45.714 79.814ZM48.962 87.346C49.718 88.816 50.39 90.384 50.95 92.064L50.012 92.484C49.858 92.008 49.704 91.56 49.55 91.14C47.898 91.532 46.064 91.84 44.034 92.036L43.838 91.07C44.65 90.482 45.658 88.256 46.876 84.392L47.87 84.728C46.988 87.36 46.106 89.432 45.238 90.944C46.652 90.804 47.982 90.58 49.214 90.272C48.836 89.32 48.444 88.438 48.038 87.654L48.962 87.346ZM41.822 85.372V92.344H40.828V85.386C40.352 86.744 39.75 87.976 38.994 89.096L38.56 88.004C39.624 86.618 40.366 85.036 40.814 83.272H38.784V82.306H40.828V79.576H41.822V82.306H43.502V83.272H41.822V84.252C42.466 85.008 43.138 85.876 43.824 86.842L43.236 87.724C42.69 86.744 42.214 85.96 41.822 85.372ZM48.976 79.66C49.438 81.984 50.264 83.874 51.44 85.358L50.768 86.156C49.508 84.588 48.64 82.586 48.136 80.122L48.976 79.66ZM58.006 84.952H55.024V90.734C55.024 91.056 55.192 91.224 55.556 91.224H58.23C58.706 91.224 59.014 91.098 59.126 90.874C59.252 90.608 59.35 90.09 59.406 89.32L60.358 89.628C60.26 90.818 60.078 91.546 59.826 91.826C59.602 92.05 59.154 92.162 58.496 92.162H55.164C54.38 92.162 54.002 91.798 54.002 91.084V84.056H58.986V87.78C58.972 88.536 58.58 88.928 57.81 88.956C57.278 88.956 56.76 88.942 56.27 88.914L56.018 87.962C56.55 88.018 57.026 88.046 57.446 88.046C57.81 88.046 58.006 87.85 58.006 87.472V84.952ZM56.228 79.688H56.97C58.188 80.976 59.364 82.334 60.484 83.762L59.826 84.462C58.622 82.866 57.572 81.592 56.676 80.64C55.64 82.18 54.45 83.594 53.078 84.882L52.49 84.07C53.862 82.824 55.108 81.368 56.228 79.688ZM61.31 80.794H62.29V89.516H61.31V80.794ZM63.648 92.274H61.478L61.254 91.308C61.968 91.35 62.654 91.378 63.298 91.378C63.648 91.378 63.83 91.168 63.83 90.748V79.604H64.838V91C64.838 91.84 64.432 92.274 63.648 92.274ZM78.236 85.302H75.24V86.422H78.516V87.248H75.24V88.41H78.922V89.264H75.24V90.65H74.26V89.264H71.082V88.41H74.26V87.248H71.516V86.422H74.26V85.302H71.81V84.462H74.26V83.342H71.124V82.502H74.26V81.396H71.81V80.556H74.26V79.534H75.24V80.556H78.236V82.502H79.174V83.342H78.236V85.302ZM75.24 81.396V82.502H77.256V81.396H75.24ZM75.24 83.342V84.462H77.256V83.342H75.24ZM74.582 91.154C76.122 91.154 77.704 91.126 79.328 91.084L79.16 92.05H75.016C72.496 92.05 70.69 91.686 69.598 90.958C69.416 90.818 69.262 90.692 69.122 90.552C68.674 91.21 68.114 91.784 67.47 92.274L66.812 91.42C67.47 90.944 68.016 90.384 68.464 89.74C67.918 88.956 67.47 87.962 67.134 86.758L67.974 86.45C68.254 87.444 68.59 88.256 68.954 88.872C69.43 87.878 69.71 86.716 69.794 85.386H67.204V84.602C68.016 83.566 68.772 82.446 69.444 81.242H67.148V80.29H70.578V81.116C69.878 82.404 69.178 83.51 68.506 84.462H70.704V85.064C70.648 86.912 70.27 88.48 69.598 89.768C69.822 90.006 70.046 90.188 70.284 90.328C71.236 90.86 72.678 91.126 74.582 91.154ZM87.8821 81.004H88.7781V91H87.6301V82.404C87.0001 83.048 86.2161 83.496 85.2781 83.776V82.628C85.7261 82.502 86.2021 82.306 86.6781 82.026C87.1541 81.718 87.5461 81.382 87.8821 81.004ZM92.3392 84.91C92.7733 84.91 93.3053 85.106 93.9213 85.526C94.5233 85.918 94.9573 86.128 95.2233 86.128C95.5453 86.128 95.9093 85.792 96.3293 85.148L97.0293 85.652C96.4273 86.562 95.8253 87.024 95.2233 87.024C94.7893 87.024 94.2713 86.814 93.6693 86.408C93.0533 86.002 92.6193 85.806 92.3392 85.806C92.0033 85.806 91.6393 86.128 91.2333 86.772L90.5333 86.282C91.1213 85.358 91.7233 84.91 92.3392 84.91ZM98.2893 81.004H99.4933L105.149 89.138H105.191V81.004H106.339V91H105.163L99.4793 82.782H99.4373V91H98.2893V81.004ZM118.488 83.706H119.524V92.386H118.488V83.706ZM118.558 79.576H119.454C120.63 81.508 122.646 83.202 125.502 84.672L124.9 85.582C122.268 84.21 120.294 82.53 119.006 80.514C117.452 82.726 115.492 84.434 113.112 85.638L112.51 84.728C115.128 83.398 117.144 81.676 118.558 79.576ZM133.37 79.352C133.636 79.856 133.888 80.416 134.14 81.046H139.236V82.012H128.862V85.148C128.806 88.214 128.33 90.664 127.42 92.512L126.594 91.77C127.378 90.174 127.798 87.976 127.826 85.148V81.046H133.034C132.81 80.5 132.544 79.996 132.264 79.548L133.37 79.352ZM151.612 87.234V92.386H150.59V91.644H143.506V92.386H142.484V87.234H151.612ZM143.506 90.692H150.59V88.2H143.506V90.692ZM143.324 82.502C142.848 83.146 142.288 83.748 141.63 84.294L141.028 83.496C142.288 82.488 143.156 81.242 143.604 79.772L144.612 79.884C144.43 80.472 144.206 81.018 143.926 81.536H146.67V79.548H147.692V81.536H152.27V82.502H147.692V84.77H153.334V85.764H140.678V84.77H146.67V82.502H143.324ZM156.442 81.914H154.776V80.934H159.102V81.914H157.478V88.242C158.08 88.032 158.654 87.822 159.2 87.598V88.606C157.968 89.124 156.54 89.6 154.916 90.034L154.622 89.04C155.252 88.886 155.854 88.732 156.442 88.564V81.914ZM159.634 80.164H167.39V81.144H164.044C163.96 81.676 163.862 82.166 163.75 82.642H166.718V89.222H165.738V83.566H161.244V89.222H160.278V82.642H162.742C162.882 82.166 162.98 81.662 163.05 81.144H159.634V80.164ZM164.632 89.25C165.78 90.09 166.76 90.93 167.544 91.77L166.816 92.498C166.116 91.686 165.164 90.818 163.96 89.894L164.632 89.25ZM162.924 84.462H163.932V86.87C163.876 88.382 163.484 89.586 162.728 90.496C161.986 91.322 160.782 91.98 159.102 92.456L158.556 91.588C160.18 91.154 161.328 90.566 161.972 89.838C162.56 89.082 162.882 88.088 162.924 86.87V84.462ZM179.71 80.248V92.386H178.702V91.476H171.338V92.414H170.316V80.248H179.71ZM171.338 90.496H178.702V87.864H171.338V90.496ZM171.338 86.94H178.702V84.476H171.338V86.94ZM171.338 83.552H178.702V81.228H171.338V83.552Z" fill="#262629" fill-opacity="0.72"/>
<path d="M301.332 58C301.332 46.9543 310.286 38 321.332 38H582.665C584.874 38 586.665 39.7909 586.665 42V90C586.665 101.046 577.711 110 566.665 110H321.332C310.286 110 301.332 101.046 301.332 90V58Z" fill="#F2F4FA"/>
<path d="M337.82 55.59L338.534 56.906C337.344 57.298 336.028 57.536 334.586 57.62V59.79H338.828V61.176H337.54V68.47H336.098V61.176H334.586V62.506C334.516 64.984 333.97 66.958 332.948 68.442L331.898 67.336C332.682 66.174 333.116 64.564 333.172 62.506V56.43C334.908 56.402 336.448 56.122 337.82 55.59ZM326.13 56.57H328.552C328.384 56.22 328.202 55.898 328.006 55.604L329.518 55.352C329.686 55.716 329.84 56.122 330.008 56.57H332.556V57.914H326.13V56.57ZM325.99 59.748H327.418C327.25 59.286 327.054 58.852 326.83 58.46L328.118 57.97C328.328 58.474 328.524 59.062 328.72 59.748H329.952C330.162 59.174 330.344 58.586 330.498 57.97L331.8 58.432C331.632 58.908 331.464 59.342 331.282 59.748H332.64V61.078H330.106V62.212H332.402V63.542H330.106V67.21C330.106 68.078 329.616 68.512 328.65 68.512H327.922L327.6 67.168C327.81 67.224 328.006 67.266 328.174 67.266C328.482 67.266 328.65 67.126 328.65 66.86V63.542H326.214V62.212H328.65V61.078H325.99V59.748ZM326.998 64.088L328.314 64.368C327.992 65.796 327.544 67.028 326.956 68.078L325.738 67.308C326.34 66.3 326.76 65.222 326.998 64.088ZM331.534 64.004C331.87 64.872 332.15 65.67 332.346 66.398L331.114 66.874C330.904 66.006 330.638 65.152 330.33 64.326L331.534 64.004ZM351.75 61.456H348.796V62.212H351.904V63.402H348.796V64.158H352.31V65.376H348.796V66.398H347.368V65.376H344.358V64.158H347.368V63.402H344.792V62.212H347.368V61.456H345.086V60.252H347.368V59.482H344.4V58.306H347.368V57.578H345.086V56.374H347.368V55.478H348.796V56.374H351.75V58.306H352.548V59.482H351.75V61.456ZM348.796 57.578V58.306H350.35V57.578H348.796ZM348.796 59.482V60.252H350.35V59.482H348.796ZM347.746 66.846C349.342 66.846 350.994 66.818 352.702 66.762L352.45 68.148H348.376C345.772 68.148 343.924 67.77 342.818 67.042L342.538 66.818C342.118 67.406 341.614 67.924 341.026 68.372L340.06 67.126C340.648 66.72 341.152 66.244 341.544 65.684C341.04 64.928 340.62 63.976 340.284 62.828L341.516 62.366C341.74 63.15 341.992 63.822 342.272 64.368C342.608 63.556 342.818 62.618 342.902 61.568H340.41V60.462C341.138 59.51 341.81 58.516 342.426 57.452H340.41V56.08H344.05V57.27C343.448 58.404 342.86 59.398 342.272 60.252H344.232V61.12C344.176 62.898 343.826 64.424 343.21 65.684C343.364 65.838 343.532 65.964 343.7 66.062C344.596 66.566 345.94 66.818 347.746 66.846ZM359.058 61.218H356.622V66.356C356.622 66.72 356.804 66.902 357.196 66.902H359.52C359.926 66.902 360.178 66.79 360.262 66.58C360.36 66.356 360.444 65.908 360.5 65.208L361.872 65.684C361.76 66.916 361.578 67.658 361.34 67.91C361.102 68.134 360.64 68.246 359.968 68.246H356.538C355.614 68.246 355.152 67.798 355.152 66.902V60.434L354.578 61.008L353.724 59.832C355.04 58.628 356.244 57.214 357.35 55.562H358.414C359.66 56.85 360.822 58.194 361.914 59.566L360.962 60.56C359.772 58.964 358.792 57.746 358.008 56.934C357.308 57.97 356.524 58.978 355.628 59.93H360.486V63.836C360.472 64.62 360.038 65.04 359.184 65.096C358.624 65.096 358.106 65.068 357.63 65.04L357.266 63.682C357.784 63.738 358.232 63.766 358.596 63.766C358.904 63.766 359.058 63.612 359.058 63.332V61.218ZM362.474 56.738H363.902V65.348H362.474V56.738ZM364.91 68.33H362.824L362.488 66.944C363.16 67 363.804 67.028 364.406 67.028C364.742 67.028 364.91 66.818 364.91 66.426V55.548H366.366V66.79C366.366 67.812 365.876 68.33 364.91 68.33ZM371 57.466H368.858V56.234H373.394C373.296 56.024 373.198 55.828 373.1 55.646L374.682 55.394C374.794 55.646 374.892 55.926 375.004 56.234H379.806V57.466H377.622L377.258 58.194H380.464V59.454H368.2V58.194H371.294L371 57.466ZM372.82 58.194H375.732L376.096 57.466H372.526L372.82 58.194ZM369.6 59.944H379.064V64.396H374.766C375.298 64.928 375.704 65.404 375.984 65.81L374.766 66.664C374.458 66.216 374.038 65.712 373.506 65.152L374.724 64.396H369.6V59.944ZM377.636 63.304V62.688H371.028V63.304H377.636ZM371.028 61.652H377.636V61.05H371.028V61.652ZM369.068 64.9L370.496 65.194C370.174 66.3 369.726 67.252 369.152 68.064L367.892 67.266C368.452 66.524 368.844 65.74 369.068 64.9ZM376.306 68.232H372.89C371.756 68.232 371.196 67.728 371.196 66.748V64.97H372.68V66.426C372.68 66.762 372.89 66.944 373.31 66.944H376.026C376.264 66.944 376.432 66.888 376.53 66.776C376.67 66.664 376.754 66.314 376.796 65.74L378.182 66.202C378.07 67.182 377.86 67.77 377.552 67.966C377.286 68.134 376.866 68.232 376.306 68.232ZM379.092 64.662C379.848 65.572 380.436 66.356 380.842 67.028L379.624 67.882C379.204 67.14 378.63 66.314 377.916 65.404L379.092 64.662Z" fill="#262629" fill-opacity="0.72"/>
<path d="M330.96 81.704H333.452V79.59H334.432V81.704H337.414V85.932H338.506V86.912H334.684C335.552 88.816 336.938 90.356 338.828 91.532L338.142 92.316C336.238 91.014 334.838 89.376 333.956 87.388C333.326 89.628 332.08 91.266 330.218 92.33L329.602 91.504C331.394 90.552 332.57 89.026 333.102 86.912H330.386V85.932H333.298C333.396 85.288 333.452 84.588 333.452 83.86V82.642H330.96V81.704ZM334.432 82.642V83.65C334.432 84.462 334.376 85.218 334.264 85.932H336.434V82.642H334.432ZM326.396 82.264L327.194 82.32C327.152 83.72 326.984 85.064 326.69 86.324L325.864 86.086C326.172 84.882 326.354 83.608 326.396 82.264ZM329.924 81.956C330.316 82.852 330.652 83.874 330.96 85.036L330.134 85.232C329.882 84.182 329.56 83.174 329.168 82.194L329.924 81.956ZM327.894 79.604H328.888V92.344H327.894V79.604ZM344.288 80.71H347.858V79.576H348.796V80.71H352.31V81.634H348.796V82.824H351.848V86.394H348.796V90.678H347.858V86.8C347.144 88.046 346.038 89.11 344.54 89.992L343.91 89.194C345.45 88.41 346.542 87.472 347.2 86.394H344.806V82.824H347.858V81.634H344.288V80.71ZM350.924 85.498V83.706H348.796V85.498H350.924ZM347.858 85.498V83.706H345.744V85.498H347.858ZM349.902 86.814C350.896 87.612 351.736 88.41 352.422 89.222L351.75 89.894C351.134 89.11 350.308 88.298 349.244 87.43L349.902 86.814ZM341.096 79.786C342.062 80.514 342.874 81.242 343.532 81.97L342.818 82.67C342.23 81.97 341.432 81.228 340.41 80.444L341.096 79.786ZM349.258 92.148C348.488 92.148 347.648 92.134 346.752 92.12C345.856 92.106 345.114 92.022 344.554 91.868C343.994 91.7 343.504 91.35 343.07 90.846C342.874 90.608 342.692 90.496 342.524 90.496C342.188 90.496 341.642 91.14 340.886 92.428L340.13 91.742C340.858 90.566 341.516 89.852 342.076 89.6V85.344H340.088V84.42H343.014V89.656C343.126 89.74 343.238 89.838 343.364 89.978C343.7 90.384 344.064 90.678 344.456 90.86C344.89 91.056 345.52 91.168 346.36 91.196C347.102 91.21 348.026 91.224 349.118 91.224C349.79 91.224 350.462 91.21 351.148 91.196C351.834 91.182 352.366 91.168 352.73 91.14L352.478 92.148H349.258ZM359.338 84.952H356.356V90.734C356.356 91.056 356.524 91.224 356.888 91.224H359.562C360.038 91.224 360.346 91.098 360.458 90.874C360.584 90.608 360.682 90.09 360.738 89.32L361.69 89.628C361.592 90.818 361.41 91.546 361.158 91.826C360.934 92.05 360.486 92.162 359.828 92.162H356.496C355.712 92.162 355.334 91.798 355.334 91.084V84.056H360.318V87.78C360.304 88.536 359.912 88.928 359.142 88.956C358.61 88.956 358.092 88.942 357.602 88.914L357.35 87.962C357.882 88.018 358.358 88.046 358.778 88.046C359.142 88.046 359.338 87.85 359.338 87.472V84.952ZM357.56 79.688H358.302C359.52 80.976 360.696 82.334 361.816 83.762L361.158 84.462C359.954 82.866 358.904 81.592 358.008 80.64C356.972 82.18 355.782 83.594 354.41 84.882L353.822 84.07C355.194 82.824 356.44 81.368 357.56 79.688ZM362.642 80.794H363.622V89.516H362.642V80.794ZM364.98 92.274H362.81L362.586 91.308C363.3 91.35 363.986 91.378 364.63 91.378C364.98 91.378 365.162 91.168 365.162 90.748V79.604H366.17V91C366.17 91.84 365.764 92.274 364.98 92.274ZM379.568 85.302H376.572V86.422H379.848V87.248H376.572V88.41H380.254V89.264H376.572V90.65H375.592V89.264H372.414V88.41H375.592V87.248H372.848V86.422H375.592V85.302H373.142V84.462H375.592V83.342H372.456V82.502H375.592V81.396H373.142V80.556H375.592V79.534H376.572V80.556H379.568V82.502H380.506V83.342H379.568V85.302ZM376.572 81.396V82.502H378.588V81.396H376.572ZM376.572 83.342V84.462H378.588V83.342H376.572ZM375.914 91.154C377.454 91.154 379.036 91.126 380.66 91.084L380.492 92.05H376.348C373.828 92.05 372.022 91.686 370.93 90.958C370.748 90.818 370.594 90.692 370.454 90.552C370.006 91.21 369.446 91.784 368.802 92.274L368.144 91.42C368.802 90.944 369.348 90.384 369.796 89.74C369.25 88.956 368.802 87.962 368.466 86.758L369.306 86.45C369.586 87.444 369.922 88.256 370.286 88.872C370.762 87.878 371.042 86.716 371.126 85.386H368.536V84.602C369.348 83.566 370.104 82.446 370.776 81.242H368.48V80.29H371.91V81.116C371.21 82.404 370.51 83.51 369.838 84.462H372.036V85.064C371.98 86.912 371.602 88.48 370.93 89.768C371.154 90.006 371.378 90.188 371.616 90.328C372.568 90.86 374.01 91.126 375.914 91.154ZM389.214 81.004H390.11V91H388.962V82.404C388.332 83.048 387.548 83.496 386.61 83.776V82.628C387.058 82.502 387.534 82.306 388.01 82.026C388.486 81.718 388.878 81.382 389.214 81.004ZM393.671 84.91C394.105 84.91 394.637 85.106 395.253 85.526C395.855 85.918 396.289 86.128 396.555 86.128C396.877 86.128 397.241 85.792 397.661 85.148L398.361 85.652C397.759 86.562 397.157 87.024 396.555 87.024C396.121 87.024 395.603 86.814 395.001 86.408C394.385 86.002 393.951 85.806 393.671 85.806C393.335 85.806 392.971 86.128 392.565 86.772L391.865 86.282C392.453 85.358 393.055 84.91 393.671 84.91ZM399.621 81.004H400.825L406.481 89.138H406.523V81.004H407.671V91H406.495L400.811 82.782H400.769V91H399.621V81.004ZM419.82 83.706H420.856V92.386H419.82V83.706ZM419.89 79.576H420.786C421.962 81.508 423.978 83.202 426.834 84.672L426.232 85.582C423.6 84.21 421.626 82.53 420.338 80.514C418.784 82.726 416.824 84.434 414.444 85.638L413.842 84.728C416.46 83.398 418.476 81.676 419.89 79.576ZM434.702 79.352C434.968 79.856 435.22 80.416 435.472 81.046H440.568V82.012H430.194V85.148C430.138 88.214 429.662 90.664 428.752 92.512L427.926 91.77C428.71 90.174 429.13 87.976 429.158 85.148V81.046H434.366C434.142 80.5 433.876 79.996 433.596 79.548L434.702 79.352ZM452.944 87.234V92.386H451.922V91.644H444.838V92.386H443.816V87.234H452.944ZM444.838 90.692H451.922V88.2H444.838V90.692ZM444.656 82.502C444.18 83.146 443.62 83.748 442.962 84.294L442.36 83.496C443.62 82.488 444.488 81.242 444.936 79.772L445.944 79.884C445.762 80.472 445.538 81.018 445.258 81.536H448.002V79.548H449.024V81.536H453.602V82.502H449.024V84.77H454.666V85.764H442.01V84.77H448.002V82.502H444.656ZM461.344 84.952H458.362V90.734C458.362 91.056 458.53 91.224 458.894 91.224H461.568C462.044 91.224 462.352 91.098 462.464 90.874C462.59 90.608 462.688 90.09 462.744 89.32L463.696 89.628C463.598 90.818 463.416 91.546 463.164 91.826C462.94 92.05 462.492 92.162 461.834 92.162H458.502C457.718 92.162 457.34 91.798 457.34 91.084V84.056H462.324V87.78C462.31 88.536 461.918 88.928 461.148 88.956C460.616 88.956 460.098 88.942 459.608 88.914L459.356 87.962C459.888 88.018 460.364 88.046 460.784 88.046C461.148 88.046 461.344 87.85 461.344 87.472V84.952ZM459.566 79.688H460.308C461.526 80.976 462.702 82.334 463.822 83.762L463.164 84.462C461.96 82.866 460.91 81.592 460.014 80.64C458.978 82.18 457.788 83.594 456.416 84.882L455.828 84.07C457.2 82.824 458.446 81.368 459.566 79.688ZM464.648 80.794H465.628V89.516H464.648V80.794ZM466.986 92.274H464.816L464.592 91.308C465.306 91.35 465.992 91.378 466.636 91.378C466.986 91.378 467.168 91.168 467.168 90.748V79.604H468.176V91C468.176 91.84 467.77 92.274 466.986 92.274ZM473.174 81.284H470.92V80.416H475.722C475.596 80.108 475.456 79.842 475.316 79.604L476.394 79.436C476.534 79.73 476.688 80.052 476.828 80.416H481.756V81.284H479.474L478.928 82.39H482.414V83.272H470.262V82.39H473.622L473.174 81.284ZM474.672 82.39H477.878L478.424 81.284H474.224L474.672 82.39ZM471.858 84.098H480.818V88.242H471.858V84.098ZM479.838 87.458V86.534H472.838V87.458H479.838ZM472.838 85.792H479.838V84.896H472.838V85.792ZM471.298 88.9L472.278 89.096C471.942 90.216 471.494 91.182 470.906 91.994L470.038 91.448C470.612 90.678 471.032 89.824 471.298 88.9ZM478.256 92.176H474.84C473.888 92.176 473.426 91.742 473.426 90.874V89.026H474.462V90.664C474.462 91.056 474.686 91.266 475.134 91.266H478.074C478.382 91.266 478.592 91.21 478.704 91.098C478.872 90.958 478.984 90.524 479.04 89.824L479.992 90.132C479.894 91.098 479.698 91.686 479.418 91.91C479.166 92.078 478.788 92.176 478.256 92.176ZM476.492 88.508C477.08 89.096 477.542 89.628 477.85 90.09L477.01 90.678C476.674 90.174 476.226 89.628 475.638 89.04L476.492 88.508ZM480.888 88.774C481.672 89.712 482.288 90.524 482.708 91.224L481.868 91.812C481.42 91.042 480.832 90.202 480.076 89.278L480.888 88.774Z" fill="#262629" fill-opacity="0.72"/>
<path d="M602.668 58C602.668 46.9543 611.622 38 622.668 38H884.001C886.21 38 888.001 39.7909 888.001 42V90C888.001 101.046 879.047 110 868.001 110H622.668C611.622 110 602.668 101.046 602.668 90V58Z" fill="#F2F4FA"/>
<path d="M639.156 55.59L639.87 56.906C638.68 57.298 637.364 57.536 635.922 57.62V59.79H640.164V61.176H638.876V68.47H637.434V61.176H635.922V62.506C635.852 64.984 635.306 66.958 634.284 68.442L633.234 67.336C634.018 66.174 634.452 64.564 634.508 62.506V56.43C636.244 56.402 637.784 56.122 639.156 55.59ZM627.466 56.57H629.888C629.72 56.22 629.538 55.898 629.342 55.604L630.854 55.352C631.022 55.716 631.176 56.122 631.344 56.57H633.892V57.914H627.466V56.57ZM627.326 59.748H628.754C628.586 59.286 628.39 58.852 628.166 58.46L629.454 57.97C629.664 58.474 629.86 59.062 630.056 59.748H631.288C631.498 59.174 631.68 58.586 631.834 57.97L633.136 58.432C632.968 58.908 632.8 59.342 632.618 59.748H633.976V61.078H631.442V62.212H633.738V63.542H631.442V67.21C631.442 68.078 630.952 68.512 629.986 68.512H629.258L628.936 67.168C629.146 67.224 629.342 67.266 629.51 67.266C629.818 67.266 629.986 67.126 629.986 66.86V63.542H627.55V62.212H629.986V61.078H627.326V59.748ZM628.334 64.088L629.65 64.368C629.328 65.796 628.88 67.028 628.292 68.078L627.074 67.308C627.676 66.3 628.096 65.222 628.334 64.088ZM632.87 64.004C633.206 64.872 633.486 65.67 633.682 66.398L632.45 66.874C632.24 66.006 631.974 65.152 631.666 64.326L632.87 64.004ZM653.086 61.456H650.132V62.212H653.24V63.402H650.132V64.158H653.646V65.376H650.132V66.398H648.704V65.376H645.694V64.158H648.704V63.402H646.128V62.212H648.704V61.456H646.422V60.252H648.704V59.482H645.736V58.306H648.704V57.578H646.422V56.374H648.704V55.478H650.132V56.374H653.086V58.306H653.884V59.482H653.086V61.456ZM650.132 57.578V58.306H651.686V57.578H650.132ZM650.132 59.482V60.252H651.686V59.482H650.132ZM649.082 66.846C650.678 66.846 652.33 66.818 654.038 66.762L653.786 68.148H649.712C647.108 68.148 645.26 67.77 644.154 67.042L643.874 66.818C643.454 67.406 642.95 67.924 642.362 68.372L641.396 67.126C641.984 66.72 642.488 66.244 642.88 65.684C642.376 64.928 641.956 63.976 641.62 62.828L642.852 62.366C643.076 63.15 643.328 63.822 643.608 64.368C643.944 63.556 644.154 62.618 644.238 61.568H641.746V60.462C642.474 59.51 643.146 58.516 643.762 57.452H641.746V56.08H645.386V57.27C644.784 58.404 644.196 59.398 643.608 60.252H645.568V61.12C645.512 62.898 645.162 64.424 644.546 65.684C644.7 65.838 644.868 65.964 645.036 66.062C645.932 66.566 647.276 66.818 649.082 66.846ZM662.326 55.338C662.55 55.786 662.76 56.29 662.956 56.85H667.954V58.264H657.748V61.148C657.706 64.228 657.258 66.706 656.418 68.568L655.172 67.462C655.872 65.95 656.236 63.836 656.264 61.148V56.85H661.332C661.136 56.402 660.926 55.996 660.688 55.618L662.326 55.338ZM680.456 63.08V68.456H678.972V67.798H672.448V68.456H670.964V63.08H680.456ZM672.448 66.426H678.972V64.452H672.448V66.426ZM672.07 58.712C671.594 59.342 671.034 59.916 670.418 60.434L669.55 59.286C670.782 58.292 671.608 57.074 672.042 55.646L673.498 55.814C673.344 56.346 673.148 56.836 672.924 57.312H675.108V55.492H676.578V57.312H680.988V58.712H676.578V60.518H682.066V61.946H669.27V60.518H675.108V58.712H672.07ZM695.632 56.304V67.868H694.204V66.86H691.334V68.036H689.92V56.304H695.632ZM691.334 65.488H694.204V57.662H691.334V65.488ZM683.606 59.202H685.902V57.648C685.286 57.746 684.656 57.816 684.04 57.858L683.564 56.556C685.748 56.374 687.498 56.038 688.786 55.548L689.472 56.752C688.758 57.004 688.03 57.228 687.302 57.396V59.202H689.542V60.56H687.302V61.064C688.086 61.722 688.87 62.478 689.668 63.318L688.814 64.592C688.226 63.724 687.722 63.024 687.302 62.492V68.302H685.902V62.856C685.342 63.976 684.656 64.998 683.83 65.936L683.2 64.326C684.418 63.234 685.314 62.002 685.902 60.63V60.56H683.606V59.202ZM702.394 61.218H699.958V66.356C699.958 66.72 700.14 66.902 700.532 66.902H702.856C703.262 66.902 703.514 66.79 703.598 66.58C703.696 66.356 703.78 65.908 703.836 65.208L705.208 65.684C705.096 66.916 704.914 67.658 704.676 67.91C704.438 68.134 703.976 68.246 703.304 68.246H699.874C698.95 68.246 698.488 67.798 698.488 66.902V60.434L697.914 61.008L697.06 59.832C698.376 58.628 699.58 57.214 700.686 55.562H701.75C702.996 56.85 704.158 58.194 705.25 59.566L704.298 60.56C703.108 58.964 702.128 57.746 701.344 56.934C700.644 57.97 699.86 58.978 698.964 59.93H703.822V63.836C703.808 64.62 703.374 65.04 702.52 65.096C701.96 65.096 701.442 65.068 700.966 65.04L700.602 63.682C701.12 63.738 701.568 63.766 701.932 63.766C702.24 63.766 702.394 63.612 702.394 63.332V61.218ZM705.81 56.738H707.238V65.348H705.81V56.738ZM708.246 68.33H706.16L705.824 66.944C706.496 67 707.14 67.028 707.742 67.028C708.078 67.028 708.246 66.818 708.246 66.426V55.548H709.702V66.79C709.702 67.812 709.212 68.33 708.246 68.33ZM714.336 57.466H712.194V56.234H716.73C716.632 56.024 716.534 55.828 716.436 55.646L718.018 55.394C718.13 55.646 718.228 55.926 718.34 56.234H723.142V57.466H720.958L720.594 58.194H723.8V59.454H711.536V58.194H714.63L714.336 57.466ZM716.156 58.194H719.068L719.432 57.466H715.862L716.156 58.194ZM712.936 59.944H722.4V64.396H718.102C718.634 64.928 719.04 65.404 719.32 65.81L718.102 66.664C717.794 66.216 717.374 65.712 716.842 65.152L718.06 64.396H712.936V59.944ZM720.972 63.304V62.688H714.364V63.304H720.972ZM714.364 61.652H720.972V61.05H714.364V61.652ZM712.404 64.9L713.832 65.194C713.51 66.3 713.062 67.252 712.488 68.064L711.228 67.266C711.788 66.524 712.18 65.74 712.404 64.9ZM719.642 68.232H716.226C715.092 68.232 714.532 67.728 714.532 66.748V64.97H716.016V66.426C716.016 66.762 716.226 66.944 716.646 66.944H719.362C719.6 66.944 719.768 66.888 719.866 66.776C720.006 66.664 720.09 66.314 720.132 65.74L721.518 66.202C721.406 67.182 721.196 67.77 720.888 67.966C720.622 68.134 720.202 68.232 719.642 68.232ZM722.428 64.662C723.184 65.572 723.772 66.356 724.178 67.028L722.96 67.882C722.54 67.14 721.966 66.314 721.252 65.404L722.428 64.662Z" fill="#262629" fill-opacity="0.72"/>
<path d="M628.936 92.246H627.69L627.48 91.294C627.872 91.336 628.25 91.364 628.6 91.364C629.02 91.364 629.244 91.112 629.244 90.636V87.248C628.656 87.472 628.068 87.668 627.452 87.864L627.2 86.912C627.9 86.744 628.572 86.534 629.244 86.282V83.104H627.438V82.138H629.244V79.59H630.224V82.138H631.526V83.104H630.224V85.876C630.672 85.666 631.106 85.442 631.526 85.218V86.198C631.106 86.422 630.672 86.632 630.224 86.828V90.888C630.224 91.784 629.79 92.246 628.936 92.246ZM631.652 80.71H633.43V79.632H634.396V80.71H636.706V79.632H637.686V80.71H639.604V81.648H637.686V82.768H636.706V81.648H634.396V82.824H633.43V81.648H631.652V80.71ZM633.43 86.016C632.842 86.492 632.226 86.912 631.582 87.276L631.064 86.478C632.828 85.512 634.2 84.252 635.152 82.712H636.02C636.832 84.084 638.218 85.274 640.192 86.296L639.646 87.122C638.96 86.758 638.344 86.366 637.812 85.96V86.506H633.43V86.016ZM637.448 85.666C636.692 85.022 636.062 84.322 635.586 83.566C635.054 84.364 634.466 85.064 633.822 85.666H637.448ZM638.568 87.71V92.372H637.602V91.686H633.57V92.372H632.59V87.71H638.568ZM633.57 90.776H637.602V88.62H633.57V90.776ZM652.904 85.302H649.908V86.422H653.184V87.248H649.908V88.41H653.59V89.264H649.908V90.65H648.928V89.264H645.75V88.41H648.928V87.248H646.184V86.422H648.928V85.302H646.478V84.462H648.928V83.342H645.792V82.502H648.928V81.396H646.478V80.556H648.928V79.534H649.908V80.556H652.904V82.502H653.842V83.342H652.904V85.302ZM649.908 81.396V82.502H651.924V81.396H649.908ZM649.908 83.342V84.462H651.924V83.342H649.908ZM649.25 91.154C650.79 91.154 652.372 91.126 653.996 91.084L653.828 92.05H649.684C647.164 92.05 645.358 91.686 644.266 90.958C644.084 90.818 643.93 90.692 643.79 90.552C643.342 91.21 642.782 91.784 642.138 92.274L641.48 91.42C642.138 90.944 642.684 90.384 643.132 89.74C642.586 88.956 642.138 87.962 641.802 86.758L642.642 86.45C642.922 87.444 643.258 88.256 643.622 88.872C644.098 87.878 644.378 86.716 644.462 85.386H641.872V84.602C642.684 83.566 643.44 82.446 644.112 81.242H641.816V80.29H645.246V81.116C644.546 82.404 643.846 83.51 643.174 84.462H645.372V85.064C645.316 86.912 644.938 88.48 644.266 89.768C644.49 90.006 644.714 90.188 644.952 90.328C645.904 90.86 647.346 91.126 649.25 91.154ZM662.55 81.004H663.446V91H662.298V82.404C661.668 83.048 660.884 83.496 659.946 83.776V82.628C660.394 82.502 660.87 82.306 661.346 82.026C661.822 81.718 662.214 81.382 662.55 81.004ZM667.007 84.91C667.441 84.91 667.973 85.106 668.589 85.526C669.191 85.918 669.625 86.128 669.891 86.128C670.213 86.128 670.577 85.792 670.997 85.148L671.697 85.652C671.095 86.562 670.493 87.024 669.891 87.024C669.457 87.024 668.939 86.814 668.337 86.408C667.721 86.002 667.287 85.806 667.007 85.806C666.671 85.806 666.307 86.128 665.901 86.772L665.201 86.282C665.789 85.358 666.391 84.91 667.007 84.91ZM672.957 81.004H674.161L679.817 89.138H679.859V81.004H681.007V91H679.831L674.147 82.782H674.105V91H672.957V81.004ZM693.156 83.706H694.192V92.386H693.156V83.706ZM693.226 79.576H694.122C695.298 81.508 697.314 83.202 700.17 84.672L699.568 85.582C696.936 84.21 694.962 82.53 693.674 80.514C692.12 82.726 690.16 84.434 687.78 85.638L687.178 84.728C689.796 83.398 691.812 81.676 693.226 79.576ZM713.596 81.06V84.196H712.574V82.04H702.746V84.196H701.724V81.06H707.1C706.932 80.584 706.764 80.15 706.568 79.758L707.702 79.562C707.884 80.01 708.066 80.5 708.234 81.06H713.596ZM703.726 83.664H711.566V84.644H703.726V83.664ZM701.584 86.296H713.778V87.262H709.816V90.58C709.816 91 710.012 91.224 710.418 91.224H712.28C712.532 91.224 712.7 91.126 712.798 90.944C712.91 90.734 712.994 90.104 713.05 89.04L714.002 89.348C713.918 90.692 713.75 91.518 713.498 91.798C713.274 92.05 712.938 92.19 712.462 92.19H710.096C709.228 92.19 708.808 91.714 708.808 90.79V87.262H706.456V87.36C706.414 88.732 706.036 89.838 705.336 90.678C704.636 91.434 703.502 92.036 701.934 92.47L701.36 91.574C702.886 91.182 703.95 90.664 704.566 90.006C705.126 89.334 705.42 88.452 705.462 87.36V87.262H701.584V86.296ZM715.934 81.788H718.188V81.004H715.43V80.22H718.188V79.562H719.084V80.22H721.688V81.004H719.084V81.788H721.338V84.224H719.084V84.448C719.91 84.784 720.75 85.162 721.59 85.596L721.072 86.366C720.288 85.82 719.616 85.4 719.084 85.12V86.562H718.188V84.966C717.362 85.666 716.522 86.226 715.654 86.66L715.22 85.848C716.2 85.512 717.18 84.966 718.174 84.224H715.934V81.788ZM720.526 83.538V82.488H719.084V83.538H720.526ZM718.188 83.538V82.488H716.746V83.538H718.188ZM723.536 81.578C723.438 81.774 723.34 81.956 723.256 82.124C723.662 82.936 724.194 83.608 724.838 84.168L724.908 84.098C725.454 83.468 725.818 82.628 725.986 81.578H723.536ZM724.138 84.728C723.578 84.21 723.102 83.622 722.724 82.978C722.528 83.244 722.318 83.496 722.108 83.734L721.52 82.992C722.388 82.04 722.976 80.864 723.284 79.492L724.18 79.604C724.096 79.996 723.984 80.36 723.872 80.71H727.694V81.578H726.882C726.686 82.838 726.266 83.86 725.622 84.644L725.566 84.7C726.252 85.148 727.036 85.512 727.932 85.778L727.414 86.576C726.434 86.268 725.594 85.848 724.866 85.316C724.18 85.792 723.284 86.198 722.192 86.506L721.842 85.68C722.794 85.428 723.55 85.106 724.138 84.728ZM721.072 87.92H716.158V87.038H727.218V87.92H722.08V89.11H726.364V89.978H722.08V91.196H727.89V92.092H715.458V91.196H717.698V88.564H718.622V91.196H721.072V87.92ZM734.33 81.984V91.532H733.35V90.734H730.802V91.938H729.822V81.984H731.124C731.404 81.2 731.6 80.388 731.726 79.548L732.734 79.688C732.566 80.514 732.356 81.284 732.076 81.984H734.33ZM730.802 89.796H733.35V86.73H730.802V89.796ZM730.802 85.82H733.35V82.936H730.802V85.82ZM736.766 85.232C737.774 86.394 738.53 87.416 739.062 88.284L738.264 88.844C737.69 87.92 736.92 86.884 735.954 85.736L736.766 85.232ZM741.568 81.998C741.568 86.646 741.498 89.53 741.358 90.622C741.218 91.686 740.574 92.232 739.398 92.232C739.118 92.232 738.642 92.204 737.97 92.176L737.732 91.252C738.32 91.28 738.824 91.294 739.258 91.294C739.916 91.294 740.294 90.93 740.406 90.216C740.49 89.432 740.546 87.01 740.574 82.978H736.724C736.332 83.86 735.87 84.658 735.324 85.372L734.722 84.574C735.702 83.202 736.36 81.522 736.724 79.534L737.718 79.66C737.55 80.486 737.354 81.27 737.102 81.998H741.568ZM750.038 79.352C750.304 79.856 750.556 80.416 750.808 81.046H755.904V82.012H745.53V85.148C745.474 88.214 744.998 90.664 744.088 92.512L743.262 91.77C744.046 90.174 744.466 87.976 744.494 85.148V81.046H749.702C749.478 80.5 749.212 79.996 748.932 79.548L750.038 79.352ZM768.28 87.234V92.386H767.258V91.644H760.174V92.386H759.152V87.234H768.28ZM760.174 90.692H767.258V88.2H760.174V90.692ZM759.992 82.502C759.516 83.146 758.956 83.748 758.298 84.294L757.696 83.496C758.956 82.488 759.824 81.242 760.272 79.772L761.28 79.884C761.098 80.472 760.874 81.018 760.594 81.536H763.338V79.548H764.36V81.536H768.938V82.502H764.36V84.77H770.002V85.764H757.346V84.77H763.338V82.502H759.992ZM783.414 80.514V91.84H782.434V90.734H779.032V91.98H778.066V80.514H783.414ZM779.032 89.782H782.434V81.452H779.032V89.782ZM771.668 83.412H774.118V81.396C773.418 81.508 772.704 81.592 771.976 81.648L771.654 80.752C773.74 80.584 775.476 80.234 776.876 79.702L777.352 80.542C776.624 80.808 775.882 81.032 775.098 81.2V83.412H777.492V84.35H775.098V85.05C775.91 85.764 776.722 86.576 777.548 87.5L776.96 88.368C776.232 87.374 775.616 86.576 775.098 85.988V92.302H774.118V86.086C773.516 87.416 772.718 88.62 771.724 89.698L771.304 88.606C772.606 87.374 773.544 85.988 774.118 84.448V84.35H771.668V83.412ZM790.68 84.952H787.698V90.734C787.698 91.056 787.866 91.224 788.23 91.224H790.904C791.38 91.224 791.688 91.098 791.8 90.874C791.926 90.608 792.024 90.09 792.08 89.32L793.032 89.628C792.934 90.818 792.752 91.546 792.5 91.826C792.276 92.05 791.828 92.162 791.17 92.162H787.838C787.054 92.162 786.676 91.798 786.676 91.084V84.056H791.66V87.78C791.646 88.536 791.254 88.928 790.484 88.956C789.952 88.956 789.434 88.942 788.944 88.914L788.692 87.962C789.224 88.018 789.7 88.046 790.12 88.046C790.484 88.046 790.68 87.85 790.68 87.472V84.952ZM788.902 79.688H789.644C790.862 80.976 792.038 82.334 793.158 83.762L792.5 84.462C791.296 82.866 790.246 81.592 789.35 80.64C788.314 82.18 787.124 83.594 785.752 84.882L785.164 84.07C786.536 82.824 787.782 81.368 788.902 79.688ZM793.984 80.794H794.964V89.516H793.984V80.794ZM796.322 92.274H794.152L793.928 91.308C794.642 91.35 795.328 91.378 795.972 91.378C796.322 91.378 796.504 91.168 796.504 90.748V79.604H797.512V91C797.512 91.84 797.106 92.274 796.322 92.274ZM802.51 81.284H800.256V80.416H805.058C804.932 80.108 804.792 79.842 804.652 79.604L805.73 79.436C805.87 79.73 806.024 80.052 806.164 80.416H811.092V81.284H808.81L808.264 82.39H811.75V83.272H799.598V82.39H802.958L802.51 81.284ZM804.008 82.39H807.214L807.76 81.284H803.56L804.008 82.39ZM801.194 84.098H810.154V88.242H801.194V84.098ZM809.174 87.458V86.534H802.174V87.458H809.174ZM802.174 85.792H809.174V84.896H802.174V85.792ZM800.634 88.9L801.614 89.096C801.278 90.216 800.83 91.182 800.242 91.994L799.374 91.448C799.948 90.678 800.368 89.824 800.634 88.9ZM807.592 92.176H804.176C803.224 92.176 802.762 91.742 802.762 90.874V89.026H803.798V90.664C803.798 91.056 804.022 91.266 804.47 91.266H807.41C807.718 91.266 807.928 91.21 808.04 91.098C808.208 90.958 808.32 90.524 808.376 89.824L809.328 90.132C809.23 91.098 809.034 91.686 808.754 91.91C808.502 92.078 808.124 92.176 807.592 92.176ZM805.828 88.508C806.416 89.096 806.878 89.628 807.186 90.09L806.346 90.678C806.01 90.174 805.562 89.628 804.974 89.04L805.828 88.508ZM810.224 88.774C811.008 89.712 811.624 90.524 812.044 91.224L811.204 91.812C810.756 91.042 810.168 90.202 809.412 89.278L810.224 88.774Z" fill="#262629" fill-opacity="0.72"/>
<path d="M0 146C0 134.954 8.9543 126 20 126H281.333C283.542 126 285.333 127.791 285.333 130V178C285.333 189.046 276.379 198 265.333 198H20C8.95432 198 0 189.046 0 178V146Z" fill="#F2F4FA"/>
<path d="M28.76 149.47V150.842C28.382 150.996 28.004 151.15 27.626 151.29V154.916C27.626 155.882 27.15 156.372 26.226 156.372H25.036L24.728 154.944C25.064 155 25.4 155.042 25.722 155.042C26.03 155.042 26.198 154.874 26.198 154.538V151.766C25.778 151.892 25.372 152.004 24.952 152.116L24.602 150.716C25.134 150.618 25.666 150.506 26.198 150.366V147.342H24.784V145.928H26.198V143.506H27.626V145.928H28.858V147.342H27.626V149.918C28.004 149.778 28.382 149.624 28.76 149.47ZM30.692 148.938V154.496C31.252 154.328 31.784 154.132 32.26 153.908L32.526 155.252C31.49 155.672 30.314 156.022 28.998 156.33L28.634 154.972C29.04 154.846 29.25 154.566 29.25 154.132V143.576H30.692V147.51H32.414V148.938H30.692ZM35.564 156.316H34.304C33.352 156.316 32.89 155.798 32.89 154.79V143.548H34.332V147.426C35.06 147.146 35.76 146.81 36.432 146.39L37.272 147.594C36.236 148.14 35.256 148.56 34.332 148.868V154.468C34.332 154.776 34.472 154.93 34.752 154.93H35.298C35.508 154.93 35.662 154.818 35.774 154.608C35.886 154.384 35.97 153.698 36.012 152.522L37.342 152.942C37.23 154.58 37.034 155.56 36.754 155.868C36.502 156.162 36.096 156.316 35.564 156.316ZM39.988 149.386H50.04V153.054H45.714V153.6H50.306V154.538H45.714V155.126H51.314V156.218H38.686V155.126H44.258V154.538H39.722V153.6H44.258V153.054H39.988V149.386ZM48.654 152.214V151.612H45.714V152.214H48.654ZM44.258 152.214V151.612H41.374V152.214H44.258ZM41.374 150.828H44.258V150.24H41.374V150.828ZM45.714 150.24V150.828H48.654V150.24H45.714ZM40.296 143.702H49.746V147.3H40.296V143.702ZM48.346 146.488V145.914H41.696V146.488H48.346ZM41.696 145.102H48.346V144.528H41.696V145.102ZM38.686 147.832H51.314V148.868H38.686V147.832ZM59 146.544H60.386V145.606H61.772V146.544H63.172V147.692H61.772V148.644H63.354V149.848H58.818V148.644H60.386V147.692H59V146.544ZM59.182 150.534H62.976V154.356H59.182V150.534ZM61.744 153.18V151.71H60.428V153.18H61.744ZM65.062 143.926V154.93C65.062 155.896 64.558 156.386 63.55 156.386H62.276L61.94 155.056C62.36 155.098 62.766 155.126 63.13 155.126C63.494 155.126 63.676 154.888 63.676 154.426V145.242H58.51V151.78C58.482 153.712 58.062 155.266 57.25 156.47L56.172 155.476C56.788 154.524 57.11 153.334 57.138 151.878V143.926H65.062ZM54.492 143.604C55.332 144.276 56.046 144.962 56.634 145.634L55.64 146.642C55.122 145.998 54.394 145.326 53.47 144.598L54.492 143.604ZM52.504 147.636H55.724V153.096C55.948 152.872 56.2 152.634 56.452 152.382L56.816 153.824C56.088 154.552 55.318 155.21 54.506 155.798L53.946 154.496C54.198 154.3 54.324 154.062 54.324 153.768V149.036H52.504V147.636ZM67.148 145.69H69.318V145.158H66.7V144.066H69.318V143.506H70.606V144.066H73.07V145.158H70.606V145.69H72.776V146.782C73.574 145.886 74.12 144.78 74.414 143.492L75.716 143.66C75.646 143.968 75.562 144.248 75.478 144.528H79.076V145.76H78.362C78.166 146.894 77.774 147.832 77.2 148.574C77.83 148.952 78.544 149.26 79.328 149.484L78.558 150.632C77.662 150.352 76.878 149.974 76.206 149.498C75.548 149.932 74.68 150.296 73.616 150.604L73.126 149.414C73.938 149.204 74.624 148.952 75.17 148.644C74.75 148.224 74.386 147.776 74.078 147.286C73.91 147.51 73.728 147.72 73.56 147.916L72.776 146.894V148.35H70.606V148.392C71.39 148.686 72.188 149.022 72.986 149.4L72.244 150.492C71.6 150.002 71.054 149.61 70.606 149.33V150.59H69.318V149.302C68.59 149.89 67.848 150.366 67.092 150.744L66.462 149.596C67.358 149.316 68.268 148.91 69.178 148.35H67.148V145.69ZM74.834 146.096C75.184 146.768 75.632 147.342 76.178 147.832C76.626 147.3 76.934 146.6 77.102 145.76H75.002L74.834 146.096ZM71.628 147.412V146.67H70.606V147.412H71.628ZM69.318 147.412V146.67H68.296V147.412H69.318ZM72.174 152.158H67.428V150.898H78.6V152.158H73.63V152.928H77.746V154.16H73.63V154.93H79.272V156.218H66.728V154.93H68.814V152.592H70.158V154.93H72.174V152.158Z" fill="#262629" fill-opacity="0.72"/>
<path d="M28.76 173.68V174.632C28.312 174.828 27.85 175.01 27.402 175.178V179.098C27.402 179.91 27.024 180.316 26.268 180.316H25.05L24.84 179.322C25.204 179.364 25.568 179.392 25.918 179.392C26.254 179.392 26.422 179.21 26.422 178.846V175.514C25.918 175.668 25.414 175.808 24.91 175.948L24.672 174.982C25.26 174.856 25.848 174.716 26.422 174.548V171.118H24.84V170.152H26.422V167.562H27.402V170.152H28.788V171.118H27.402V174.226C27.864 174.058 28.312 173.876 28.76 173.68ZM30.44 172.714V178.958C31.112 178.776 31.714 178.552 32.274 178.286L32.456 179.224C31.518 179.616 30.44 179.952 29.236 180.232L28.984 179.294C29.292 179.196 29.446 178.986 29.446 178.678V167.702H30.44V171.734H32.414V172.714H30.44ZM35.48 180.204H34.304C33.492 180.204 33.086 179.756 33.086 178.888V167.604H34.08V171.832C34.92 171.552 35.746 171.16 36.53 170.656L37.118 171.482C36.054 172.07 35.046 172.532 34.08 172.84V178.678C34.08 179.056 34.262 179.252 34.626 179.252H35.312C35.634 179.252 35.858 179.14 35.998 178.944C36.18 178.692 36.292 177.936 36.348 176.676L37.272 176.97C37.174 178.51 36.978 179.434 36.684 179.77C36.432 180.05 36.04 180.204 35.48 180.204ZM40.142 173.428H49.886V176.998H45.49V177.782H50.236V178.454H45.49V179.28H51.258V180.064H38.742V179.28H44.482V178.454H39.792V177.782H44.482V176.998H40.142V173.428ZM48.92 176.368V175.514H45.49V176.368H48.92ZM44.482 176.368V175.514H41.108V176.368H44.482ZM41.108 174.926H44.482V174.058H41.108V174.926ZM45.49 174.058V174.926H48.92V174.058H45.49ZM40.45 167.786H49.592V171.244H40.45V167.786ZM48.612 170.642V169.816H41.43V170.642H48.612ZM41.43 169.214H48.612V168.402H41.43V169.214ZM38.728 171.972H51.272V172.728H38.728V171.972ZM60.106 167.52L61.086 167.646C60.96 168.01 60.806 168.36 60.638 168.696H64.642V169.564C64.18 170.488 63.48 171.286 62.542 171.958C63.354 172.322 64.292 172.63 65.37 172.882L64.978 173.82C63.62 173.484 62.486 173.064 61.576 172.56C60.596 173.092 59.434 173.526 58.076 173.862L57.698 172.952C58.832 172.686 59.826 172.35 60.666 171.958C60.078 171.51 59.602 171.006 59.266 170.474C58.972 170.754 58.664 171.006 58.328 171.258L57.754 170.502C58.902 169.69 59.686 168.696 60.106 167.52ZM59.896 169.802C60.288 170.432 60.848 170.978 61.59 171.454C62.43 170.922 63.074 170.32 63.55 169.62H60.036C59.98 169.676 59.938 169.746 59.896 169.802ZM55.528 167.548L56.424 167.968C56.088 169.018 55.682 170.012 55.192 170.936V180.414H54.226V172.532C53.792 173.162 53.316 173.764 52.798 174.324L52.504 173.316C53.89 171.636 54.898 169.718 55.528 167.548ZM56.438 170.026H57.348V177.95H56.438V170.026ZM62.038 173.47L62.766 173.932C62.234 174.38 61.702 174.744 61.156 175.038C60.568 175.346 59.798 175.654 58.846 175.962L58.356 175.164C59.14 174.968 59.854 174.73 60.498 174.436C61.058 174.156 61.562 173.834 62.038 173.47ZM63.368 174.506L64.04 175.024C62.92 176.424 61.282 177.418 59.112 178.034L58.706 177.18C60.778 176.634 62.332 175.738 63.368 174.506ZM58.552 180.498L58.132 179.574C59.728 179.154 61.016 178.65 62.01 178.062C63.004 177.488 63.858 176.732 64.558 175.808L65.272 176.34C64.656 177.306 63.718 178.16 62.458 178.888C61.198 179.588 59.896 180.134 58.552 180.498ZM74.344 170.6C74.232 170.936 74.12 171.244 74.008 171.538C74.456 173.162 75.058 174.59 75.786 175.794C76.584 174.352 77.004 172.616 77.032 170.6H74.344ZM77.998 170.6C77.942 173.022 77.396 175.052 76.374 176.69C77.256 177.922 78.306 178.888 79.538 179.588L78.964 180.428C77.732 179.728 76.668 178.762 75.786 177.53C74.862 178.72 73.63 179.672 72.118 180.386L71.488 179.56C73.07 178.86 74.316 177.908 75.226 176.676C74.526 175.542 73.938 174.226 73.476 172.728C73.196 173.26 72.902 173.736 72.58 174.156L71.964 173.372C72.986 171.944 73.672 169.998 74.036 167.548L75.016 167.716C74.904 168.402 74.764 169.046 74.624 169.634H79.09V170.6H77.998ZM68.478 178.272C69.654 177.88 70.872 177.376 72.104 176.76L72.258 177.684C70.802 178.384 69.192 179.042 67.4 179.63L67.106 178.762C67.358 178.65 67.498 178.426 67.498 178.062V172.84H70.634V169.522H66.798V168.556H71.614V173.764H68.478V178.272ZM83.164 167.506L84.158 167.59L83.962 169.466H92.446V170.432H83.864L83.626 172.714H91.494C91.494 176.522 91.228 178.72 90.696 179.322C90.178 179.896 89.058 180.19 87.35 180.19C86.902 180.19 86.44 180.162 85.964 180.134L85.698 179.21C86.384 179.266 86.86 179.308 87.14 179.308C88.722 179.308 89.674 179.042 89.982 178.51C90.304 177.936 90.472 176.312 90.472 173.652H82.506L83.164 167.506ZM80.7 175.906H88.61V176.872H80.7V175.906ZM96.422 172.448C95.932 173.12 95.386 173.764 94.798 174.366L94.504 173.358C96.016 171.678 97.108 169.76 97.794 167.604L98.704 168.024C98.368 169.032 97.934 169.998 97.43 170.908V180.4H96.422V172.448ZM98.438 170.978H101.322C101.336 170.698 101.35 170.418 101.35 170.138V167.604H102.316V170.138C102.316 170.418 102.302 170.698 102.288 170.978H106.992V171.958H104.08V178.832C104.08 179.112 104.206 179.252 104.486 179.252H105.704C105.858 179.252 105.984 179.168 106.096 179.014C106.222 178.804 106.306 178.062 106.348 176.774L107.258 177.068C107.16 178.552 107.006 179.462 106.81 179.77C106.614 180.022 106.32 180.162 105.956 180.176H104.22C103.478 180.176 103.114 179.784 103.114 179.014V171.958H102.232C101.924 175.696 100.748 178.496 98.732 180.358L97.99 179.714C99.866 178.006 100.958 175.43 101.266 171.958H98.438V170.978ZM104.15 167.856C105.018 168.458 105.76 169.074 106.348 169.69L105.662 170.376C105.13 169.774 104.416 169.144 103.492 168.486L104.15 167.856ZM112.858 167.464L113.796 167.898C113.306 169.074 112.676 170.166 111.92 171.202V180.428H110.912V172.434C110.282 173.12 109.596 173.778 108.854 174.394L108.532 173.344C110.52 171.636 111.962 169.676 112.858 167.464ZM119.312 180.176H116.638C115.658 180.176 115.168 179.672 115.168 178.692V174.422C114.58 174.758 113.978 175.066 113.362 175.36L112.914 174.408C113.698 174.044 114.454 173.666 115.168 173.246V167.632H116.176V172.63C117.646 171.65 118.934 170.53 120.04 169.284L120.74 170.082C119.438 171.482 117.912 172.728 116.176 173.82V178.552C116.176 178.986 116.4 179.21 116.876 179.21H119.144C119.508 179.21 119.788 179.084 119.956 178.86C120.11 178.636 120.208 177.824 120.264 176.438L121.202 176.746C121.104 178.356 120.936 179.336 120.698 179.672C120.446 180.008 119.984 180.176 119.312 180.176ZM128.944 167.52L129.84 167.996C129.588 168.276 129.322 168.542 129.042 168.794H133.06V169.592C131.548 172.28 128.734 173.792 124.646 174.114L124.212 173.204C125.472 173.12 126.592 172.938 127.6 172.644C127.166 172.112 126.704 171.622 126.228 171.188L127.11 170.768C127.614 171.244 128.09 171.748 128.538 172.308C129.994 171.72 131.128 170.838 131.912 169.69H127.824C126.732 170.334 125.444 170.824 123.946 171.16L123.358 170.236C125.85 169.76 127.712 168.864 128.944 167.52ZM128.412 176.27C128.944 176.816 129.462 177.404 129.938 178.034C131.492 177.362 132.71 176.396 133.606 175.164H129.462C128.23 175.752 126.774 176.2 125.08 176.494L124.478 175.598C127.53 175.29 129.784 174.352 131.24 172.812L132.108 173.288C131.772 173.624 131.422 173.946 131.03 174.24H134.866V175.038C132.878 178.342 129.182 180.05 123.75 180.176L123.344 179.21C125.528 179.196 127.418 178.93 129 178.398C128.524 177.768 128.034 177.194 127.516 176.69L128.412 176.27ZM137.75 175.01H142.524V173.638H143.56V175.01H148.208V175.976H143.56V179.084C143.56 179.924 143.126 180.358 142.258 180.358H140.69L140.466 179.392C140.97 179.434 141.46 179.462 141.908 179.462C142.314 179.462 142.524 179.252 142.524 178.832V175.976H137.75V175.01ZM140.06 176.844L140.76 177.46C139.892 178.454 138.828 179.322 137.568 180.064L136.924 179.21C138.17 178.538 139.22 177.754 140.06 176.844ZM148.11 180.036C147.088 179.028 146.052 178.146 145.002 177.39L145.66 176.774C146.556 177.334 147.62 178.174 148.838 179.294L148.11 180.036ZM141.124 167.408L142.104 167.632C141.88 167.982 141.67 168.318 141.446 168.626H146.906V169.41C146.108 170.39 145.142 171.23 144.008 171.944C145.52 172.574 147.312 173.022 149.384 173.288L148.922 174.226C146.598 173.89 144.638 173.316 143.014 172.518C141.334 173.386 139.36 174.002 137.064 174.38L136.63 173.47C138.702 173.176 140.508 172.686 142.048 171.986C141.236 171.496 140.536 170.95 139.934 170.348C139.36 170.894 138.744 171.384 138.1 171.804L137.456 171.034C138.94 170.11 140.158 168.892 141.124 167.408ZM140.55 169.732C141.222 170.404 142.048 170.992 143.028 171.496C144.036 170.922 144.904 170.264 145.646 169.522H140.732L140.55 169.732ZM157.364 167.352C157.63 167.856 157.882 168.416 158.134 169.046H163.23V170.012H152.856V173.148C152.8 176.214 152.324 178.664 151.414 180.512L150.588 179.77C151.372 178.174 151.792 175.976 151.82 173.148V169.046H157.028C156.804 168.5 156.538 167.996 156.258 167.548L157.364 167.352ZM175.606 175.234V180.386H174.584V179.644H167.5V180.386H166.478V175.234H175.606ZM167.5 178.692H174.584V176.2H167.5V178.692ZM167.318 170.502C166.842 171.146 166.282 171.748 165.624 172.294L165.022 171.496C166.282 170.488 167.15 169.242 167.598 167.772L168.606 167.884C168.424 168.472 168.2 169.018 167.92 169.536H170.664V167.548H171.686V169.536H176.264V170.502H171.686V172.77H177.328V173.764H164.672V172.77H170.664V170.502H167.318Z" fill="#262629" fill-opacity="0.72"/>
<path d="M301.332 146C301.332 134.954 310.286 126 321.332 126H582.665C584.874 126 586.665 127.791 586.665 130V178C586.665 189.046 577.711 198 566.665 198H321.332C310.286 198 301.332 189.046 301.332 178V146Z" fill="#F2F4FA"/>
<path d="M337.694 150.856V156.512H336.266V155.882H330.694V156.512H329.266V150.856H337.694ZM330.694 154.51H336.266V152.228H330.694V154.51ZM336.406 146.25H328.734V147.958H336.406V146.25ZM328.734 149.302V149.89C328.72 152.452 328.104 154.664 326.9 156.526L325.752 155.49C326.76 154.034 327.278 152.172 327.292 149.89V144.878H331.87C331.688 144.416 331.492 143.982 331.296 143.59L332.822 143.338C333.004 143.8 333.186 144.318 333.368 144.878H337.862V149.302H328.734ZM342.482 143.38L343.84 144.038L343.7 144.5H347.018C346.906 144.192 346.794 143.912 346.668 143.646L348.152 143.394C348.264 143.73 348.376 144.094 348.488 144.5H352.366V145.788H343.644V144.668C343.378 145.452 343.056 146.194 342.692 146.922V156.484H341.222V149.288C340.9 149.722 340.564 150.142 340.214 150.548L339.724 148.98C340.956 147.398 341.88 145.536 342.482 143.38ZM344.456 146.32H351.344V149.176H344.456V146.32ZM349.93 148.112V147.398H345.884V148.112H349.93ZM352.45 149.722V152.354H351.624V153.152H348.782V155C348.782 155.896 348.292 156.358 347.312 156.358H345.758L345.436 154.944C345.912 155 346.374 155.028 346.808 155.028C347.13 155.028 347.298 154.888 347.298 154.636V153.152H344.414V152.354H343.42V149.722H352.45ZM344.82 151.906H351.05V150.982H344.82V151.906ZM360.99 143.338C361.214 143.786 361.424 144.29 361.62 144.85H366.618V146.264H356.412V149.148C356.37 152.228 355.922 154.706 355.082 156.568L353.836 155.462C354.536 153.95 354.9 151.836 354.928 149.148V144.85H359.996C359.8 144.402 359.59 143.996 359.352 143.618L360.99 143.338ZM379.12 151.08V156.456H377.636V155.798H371.112V156.456H369.628V151.08H379.12ZM371.112 154.426H377.636V152.452H371.112V154.426ZM370.734 146.712C370.258 147.342 369.698 147.916 369.082 148.434L368.214 147.286C369.446 146.292 370.272 145.074 370.706 143.646L372.162 143.814C372.008 144.346 371.812 144.836 371.588 145.312H373.772V143.492H375.242V145.312H379.652V146.712H375.242V148.518H380.73V149.946H367.934V148.518H373.772V146.712H370.734Z" fill="#262629" fill-opacity="0.72"/>
<path d="M330.96 169.704H333.452V167.59H334.432V169.704H337.414V173.932H338.506V174.912H334.684C335.552 176.816 336.938 178.356 338.828 179.532L338.142 180.316C336.238 179.014 334.838 177.376 333.956 175.388C333.326 177.628 332.08 179.266 330.218 180.33L329.602 179.504C331.394 178.552 332.57 177.026 333.102 174.912H330.386V173.932H333.298C333.396 173.288 333.452 172.588 333.452 171.86V170.642H330.96V169.704ZM334.432 170.642V171.65C334.432 172.462 334.376 173.218 334.264 173.932H336.434V170.642H334.432ZM326.396 170.264L327.194 170.32C327.152 171.72 326.984 173.064 326.69 174.324L325.864 174.086C326.172 172.882 326.354 171.608 326.396 170.264ZM329.924 169.956C330.316 170.852 330.652 171.874 330.96 173.036L330.134 173.232C329.882 172.182 329.56 171.174 329.168 170.194L329.924 169.956ZM327.894 167.604H328.888V180.344H327.894V167.604ZM344.288 168.71H347.858V167.576H348.796V168.71H352.31V169.634H348.796V170.824H351.848V174.394H348.796V178.678H347.858V174.8C347.144 176.046 346.038 177.11 344.54 177.992L343.91 177.194C345.45 176.41 346.542 175.472 347.2 174.394H344.806V170.824H347.858V169.634H344.288V168.71ZM350.924 173.498V171.706H348.796V173.498H350.924ZM347.858 173.498V171.706H345.744V173.498H347.858ZM349.902 174.814C350.896 175.612 351.736 176.41 352.422 177.222L351.75 177.894C351.134 177.11 350.308 176.298 349.244 175.43L349.902 174.814ZM341.096 167.786C342.062 168.514 342.874 169.242 343.532 169.97L342.818 170.67C342.23 169.97 341.432 169.228 340.41 168.444L341.096 167.786ZM349.258 180.148C348.488 180.148 347.648 180.134 346.752 180.12C345.856 180.106 345.114 180.022 344.554 179.868C343.994 179.7 343.504 179.35 343.07 178.846C342.874 178.608 342.692 178.496 342.524 178.496C342.188 178.496 341.642 179.14 340.886 180.428L340.13 179.742C340.858 178.566 341.516 177.852 342.076 177.6V173.344H340.088V172.42H343.014V177.656C343.126 177.74 343.238 177.838 343.364 177.978C343.7 178.384 344.064 178.678 344.456 178.86C344.89 179.056 345.52 179.168 346.36 179.196C347.102 179.21 348.026 179.224 349.118 179.224C349.79 179.224 350.462 179.21 351.148 179.196C351.834 179.182 352.366 179.168 352.73 179.14L352.478 180.148H349.258ZM361.998 175.906H358.736V174.968H366.212V175.906H363.006V178.972H366.73V179.952H358.176V178.972H361.998V175.906ZM355.614 180.274H354.382L354.172 179.294C354.55 179.322 354.914 179.35 355.264 179.35C355.628 179.35 355.81 179.168 355.81 178.804V175.36C355.25 175.57 354.69 175.766 354.13 175.948L353.878 174.94C354.536 174.772 355.18 174.576 355.81 174.352V171.216H354.102V170.25H355.81V167.576H356.846V170.25H358.008V171.216H356.846V173.932C357.266 173.736 357.672 173.54 358.064 173.33V174.352C357.658 174.548 357.252 174.744 356.846 174.926V179.056C356.846 179.868 356.426 180.274 355.614 180.274ZM362.376 167.408C362.614 167.912 362.852 168.472 363.076 169.102H366.366V171.748H365.428V170.012H359.548V171.748H358.596V169.102H362.068C361.844 168.542 361.606 168.024 361.354 167.576L362.376 167.408ZM361.074 170.88L361.956 171.23C361.312 172.616 360.472 173.68 359.422 174.408L358.694 173.778C359.744 173.05 360.542 172.084 361.074 170.88ZM363.776 170.852C364.644 171.748 365.414 172.756 366.086 173.848L365.204 174.296C364.518 173.148 363.762 172.112 362.922 171.216L363.776 170.852ZM369.516 170.278C369.264 170.838 368.97 171.3 368.634 171.664L367.822 171.076C368.522 170.32 368.97 169.284 369.166 167.954L370.118 168.108C370.048 168.556 369.964 168.962 369.852 169.34H371.476V167.604H372.484V169.34H375.102V170.278H372.484V172.084H375.508V173.022H372.484V174.492H375.214V178.188C375.214 179.014 374.794 179.434 373.954 179.434H373.212L372.96 178.482L373.646 178.524C374.038 178.524 374.248 178.342 374.248 177.978V175.43H372.484V180.414H371.476V175.43H369.698V179.532H368.718V174.492H371.476V173.022H368.088V172.084H371.476V170.278H369.516ZM376.334 168.864H377.314V177.516H376.334V168.864ZM378.896 180.274H376.838L376.614 179.308C377.286 179.35 377.93 179.378 378.546 179.378C378.966 179.378 379.19 179.154 379.19 178.706V167.604H380.184V178.958C380.184 179.826 379.75 180.274 378.896 180.274ZM382.032 173.358H394.618V174.366H382.032V173.358ZM400.092 173.68V174.632C399.644 174.828 399.182 175.01 398.734 175.178V179.098C398.734 179.91 398.356 180.316 397.6 180.316H396.382L396.172 179.322C396.536 179.364 396.9 179.392 397.25 179.392C397.586 179.392 397.754 179.21 397.754 178.846V175.514C397.25 175.668 396.746 175.808 396.242 175.948L396.004 174.982C396.592 174.856 397.18 174.716 397.754 174.548V171.118H396.172V170.152H397.754V167.562H398.734V170.152H400.12V171.118H398.734V174.226C399.196 174.058 399.644 173.876 400.092 173.68ZM401.772 172.714V178.958C402.444 178.776 403.046 178.552 403.606 178.286L403.788 179.224C402.85 179.616 401.772 179.952 400.568 180.232L400.316 179.294C400.624 179.196 400.778 178.986 400.778 178.678V167.702H401.772V171.734H403.746V172.714H401.772ZM406.812 180.204H405.636C404.824 180.204 404.418 179.756 404.418 178.888V167.604H405.412V171.832C406.252 171.552 407.078 171.16 407.862 170.656L408.45 171.482C407.386 172.07 406.378 172.532 405.412 172.84V178.678C405.412 179.056 405.594 179.252 405.958 179.252H406.644C406.966 179.252 407.19 179.14 407.33 178.944C407.512 178.692 407.624 177.936 407.68 176.676L408.604 176.97C408.506 178.51 408.31 179.434 408.016 179.77C407.764 180.05 407.372 180.204 406.812 180.204ZM416.696 167.352C416.962 167.856 417.214 168.416 417.466 169.046H422.562V170.012H412.188V173.148C412.132 176.214 411.656 178.664 410.746 180.512L409.92 179.77C410.704 178.174 411.124 175.976 411.152 173.148V169.046H416.36C416.136 168.5 415.87 167.996 415.59 167.548L416.696 167.352ZM434.938 175.234V180.386H433.916V179.644H426.832V180.386H425.81V175.234H434.938ZM426.832 178.692H433.916V176.2H426.832V178.692ZM426.65 170.502C426.174 171.146 425.614 171.748 424.956 172.294L424.354 171.496C425.614 170.488 426.482 169.242 426.93 167.772L427.938 167.884C427.756 168.472 427.532 169.018 427.252 169.536H429.996V167.548H431.018V169.536H435.596V170.502H431.018V172.77H436.66V173.764H424.004V172.77H429.996V170.502H426.65ZM442.988 169.984V179.532H442.008V178.734H439.46V179.938H438.48V169.984H439.782C440.062 169.2 440.258 168.388 440.384 167.548L441.392 167.688C441.224 168.514 441.014 169.284 440.734 169.984H442.988ZM439.46 177.796H442.008V174.73H439.46V177.796ZM439.46 173.82H442.008V170.936H439.46V173.82ZM445.424 173.232C446.432 174.394 447.188 175.416 447.72 176.284L446.922 176.844C446.348 175.92 445.578 174.884 444.612 173.736L445.424 173.232ZM450.226 169.998C450.226 174.646 450.156 177.53 450.016 178.622C449.876 179.686 449.232 180.232 448.056 180.232C447.776 180.232 447.3 180.204 446.628 180.176L446.39 179.252C446.978 179.28 447.482 179.294 447.916 179.294C448.574 179.294 448.952 178.93 449.064 178.216C449.148 177.432 449.204 175.01 449.232 170.978H445.382C444.99 171.86 444.528 172.658 443.982 173.372L443.38 172.574C444.36 171.202 445.018 169.522 445.382 167.534L446.376 167.66C446.208 168.486 446.012 169.27 445.76 169.998H450.226ZM452.9 168.402H463.806V169.382H461.468V173.092H464.534V174.058H461.468V180.26H460.446V174.058H456.4C456.274 175.5 456.008 176.69 455.588 177.642C455.056 178.818 454.174 179.728 452.942 180.372L452.396 179.504C453.53 178.86 454.328 178.006 454.776 176.942C455.07 176.13 455.266 175.178 455.378 174.058H452.144V173.092H455.434C455.434 172.91 455.448 172.742 455.448 172.602V169.382H452.9V168.402ZM456.484 169.382V172.602C456.484 172.77 456.47 172.938 456.47 173.092H460.446V169.382H456.484ZM477.554 175.066V180.456H476.574V179.728H470.414V180.456H469.434V175.066H477.554ZM470.414 178.776H476.574V176.018H470.414V178.776ZM476.714 170.026H468.524V172.224H476.714V170.026ZM468.524 173.162V173.764C468.51 176.34 467.894 178.566 466.662 180.414L465.878 179.714C466.97 178.174 467.516 176.2 467.53 173.764V169.074H472.192C471.996 168.542 471.772 168.052 471.52 167.604L472.57 167.436C472.78 167.912 472.99 168.458 473.214 169.074H477.708V173.162H468.524ZM482.496 167.506L483.49 167.59L483.294 169.466H491.778V170.432H483.196L482.958 172.714H490.826C490.826 176.522 490.56 178.72 490.028 179.322C489.51 179.896 488.39 180.19 486.682 180.19C486.234 180.19 485.772 180.162 485.296 180.134L485.03 179.21C485.716 179.266 486.192 179.308 486.472 179.308C488.054 179.308 489.006 179.042 489.314 178.51C489.636 177.936 489.804 176.312 489.804 173.652H481.838L482.496 167.506ZM480.032 175.906H487.942V176.872H480.032V175.906ZM500.346 172.616V173.442C499.688 173.498 499.002 173.568 498.288 173.638V174.716H497.364V173.708C496.44 173.764 495.46 173.834 494.452 173.89L494.326 172.994C495.39 172.938 496.412 172.896 497.364 172.84V171.678H494.76L494.536 170.88C494.928 170.432 495.306 169.9 495.642 169.27H494.144V168.374H496.09C496.216 168.066 496.342 167.758 496.454 167.45L497.462 167.618C497.364 167.87 497.266 168.122 497.154 168.374H500.57V169.27H496.734C496.426 169.858 496.09 170.39 495.74 170.852H497.364V169.928H498.288V170.852H500.472V171.678H498.288V172.784C499.016 172.728 499.702 172.672 500.346 172.616ZM502.306 171.692C502.152 172.868 501.774 173.89 501.172 174.758L500.472 174.03C501.088 173.12 501.424 172.042 501.452 170.782V168.584C503.188 168.416 504.56 168.108 505.54 167.66L506.184 168.416C505.148 168.864 503.888 169.186 502.376 169.354V170.81H506.576V171.692H505.092V174.73H504.126V171.692H502.306ZM505.008 175.136V180.4H503.972V179.854H496.86V180.4H495.824V175.136H505.008ZM496.86 178.986H503.972V177.894H496.86V178.986ZM496.86 177.082H503.972V175.99H496.86V177.082ZM510.706 167.492L511.644 167.926C511.322 168.962 510.93 169.956 510.468 170.88V180.4H509.446V172.63C509.054 173.218 508.62 173.792 508.158 174.324L507.822 173.26C509.138 171.58 510.104 169.648 510.706 167.492ZM515.914 167.492C516.054 167.842 516.18 168.248 516.32 168.696H520.31V169.592H511.644V168.696H515.312C515.186 168.332 515.046 167.982 514.892 167.66L515.914 167.492ZM512.568 170.404H519.232V173.05H512.568V170.404ZM518.252 172.28V171.174H513.548V172.28H518.252ZM520.338 173.862V176.256H519.582V176.886H516.558V179.154C516.558 179.91 516.138 180.302 515.326 180.302H513.744L513.534 179.322C514.038 179.35 514.514 179.378 514.976 179.378C515.34 179.378 515.522 179.21 515.522 178.902V176.886H512.456V176.256H511.518V173.862H520.338ZM512.498 176.018H519.372V174.744H512.498V176.018Z" fill="#262629" fill-opacity="0.72"/>
<path d="M602.668 146C602.668 134.954 611.622 126 622.668 126H884.001C886.21 126 888.001 127.791 888.001 130V178C888.001 189.046 879.047 198 868.001 198H622.668C611.622 198 602.668 189.046 602.668 178V146Z" fill="#F2F4FA"/>
<path d="M628.908 143.562H630.28V144.486H631.862V143.548H633.234V144.486H634.62V145.858H633.234V146.824H631.862V145.858H630.28V146.614H628.908V145.858H627.34V144.486H628.908V143.562ZM628.068 150.786C628.04 150.814 628.012 150.828 628.012 150.856L627.074 149.736C627.69 149.036 628.236 148.042 628.712 146.754L630.098 147.062C630.042 147.202 630 147.328 629.944 147.454H633.976V149.12C634.76 147.692 635.278 145.802 635.558 143.436L636.972 143.688C636.874 144.318 636.776 144.92 636.664 145.48H639.954V146.894H639.212C639.142 149.134 638.75 151.038 638.022 152.634C638.666 153.726 639.408 154.566 640.276 155.182L639.408 156.456C638.596 155.84 637.896 155.014 637.28 153.992C636.608 155 635.796 155.854 634.83 156.554L634.032 155.28C635.068 154.594 635.908 153.698 636.524 152.578C636.076 151.626 635.698 150.562 635.376 149.372C635.194 149.722 635.012 150.044 634.816 150.338L633.976 149.288C633.948 152.158 633.892 153.978 633.794 154.734C633.654 155.826 632.996 156.386 631.834 156.386C631.568 156.386 631.106 156.358 630.462 156.316L630.126 155.014C630.7 155.056 631.19 155.084 631.61 155.084C632.086 155.084 632.38 154.734 632.464 154.062C632.548 153.558 632.59 151.794 632.618 148.798H629.356C629.174 149.162 628.992 149.484 628.796 149.792H631.75V154.076H628.068V150.786ZM630.49 152.83V150.996H629.314V152.83H630.49ZM637.882 146.894H636.328L636.16 147.44C636.44 148.784 636.79 149.96 637.21 150.996C637.602 149.792 637.826 148.42 637.882 146.894ZM649.04 143.506H650.454V144.276H653.772V145.452H650.454V146.04H653.282V147.188H650.454V147.79H654.108V148.994H645.428V147.79H649.04V147.188H646.408V146.04H649.04V145.452H645.82V144.276H649.04V143.506ZM647.766 152.522V153.208H651.77V152.522H647.766ZM651.77 151.43V150.73H647.766V151.43H651.77ZM647.766 154.314V156.456H646.394V149.554H653.17V155.014C653.17 155.91 652.708 156.372 651.798 156.372H650.636L650.286 155.098L651.392 155.154C651.644 155.154 651.77 155 651.77 154.706V154.314H647.766ZM643.16 143.604C644.042 144.276 644.798 144.962 645.428 145.634L644.42 146.642C643.888 145.998 643.118 145.326 642.124 144.598L643.16 143.604ZM641.172 147.636H644.448V153.348C644.784 153.026 645.12 152.676 645.47 152.312L645.862 153.852C645.022 154.678 644.14 155.42 643.216 156.078L642.67 154.762C642.908 154.552 643.034 154.286 643.034 153.978V149.036H641.172V147.636ZM656.208 143.576H657.608V144.976H659.918V143.604H661.318V144.976H662.004V146.334H661.318V151.808H662.074V153.166H655.34V151.808H656.208V146.334H655.494V144.976H656.208V143.576ZM657.608 151.808H659.918V150.842H657.608V151.808ZM659.918 146.334H657.608V147.314H659.918V146.334ZM657.608 149.568H659.918V148.588H657.608V149.568ZM660.114 153.25C660.66 153.95 661.094 154.566 661.416 155.098C662.158 153.88 662.536 152.41 662.55 150.674V143.926H667.632V154.93C667.632 155.854 667.156 156.33 666.204 156.33H664.748L664.356 154.902C664.86 154.944 665.322 154.972 665.742 154.972C666.022 154.972 666.162 154.776 666.162 154.398V151.99H663.922C663.712 153.824 663.152 155.35 662.242 156.568L661.22 155.644L660.38 156.232C660.044 155.56 659.568 154.804 658.98 153.964L660.114 153.25ZM656.95 153.292L658.112 153.852C657.608 154.86 657.034 155.714 656.376 156.442L655.2 155.602C655.872 154.958 656.46 154.188 656.95 153.292ZM664.006 148.644V150.66H666.162V148.644H664.006ZM666.162 147.314V145.298H664.006V147.314H666.162ZM671.902 143.394L673.162 143.996C672.462 145.536 671.272 146.922 669.564 148.182L669.13 146.782C670.376 145.83 671.3 144.696 671.902 143.394ZM672.406 146.628L673.652 147.216C673.344 147.916 672.952 148.602 672.476 149.246V156.372H671.062V150.856C670.628 151.262 670.166 151.654 669.69 152.032L669.256 150.646C670.656 149.512 671.706 148.168 672.406 146.628ZM677.138 143.478H678.552V144.85H681.534V146.18H678.552V147.51H682.108V148.854H673.68V147.51H677.138V146.18H674.184V144.85H677.138V143.478ZM673.722 150.142H678.986V149.26H680.442V150.142H681.912V151.5H680.442V154.692C680.442 155.77 679.91 156.316 678.874 156.316H676.886L676.55 154.93C677.194 154.986 677.796 155.014 678.356 155.014C678.776 155.014 678.986 154.776 678.986 154.328V151.5H673.722V150.142ZM675.612 151.78C676.368 152.536 676.956 153.208 677.362 153.796L676.228 154.594C675.794 153.964 675.206 153.264 674.478 152.494L675.612 151.78Z" fill="#3E4552" fill-opacity="0.36"/>
<path d="M627.676 168.122H639.674V169.06H634.172V170.278H638.512V175.822H634.004C633.836 176.746 633.57 177.488 633.178 178.048C635.138 178.874 637.462 179.336 640.15 179.42L639.898 180.386C637.084 180.274 634.634 179.728 632.548 178.776C631.568 179.616 629.958 180.148 627.732 180.4L627.298 179.476C629.244 179.322 630.672 178.93 631.568 178.286C630.756 177.838 630 177.32 629.314 176.732L630.084 176.2C630.742 176.746 631.47 177.222 632.254 177.628C632.59 177.152 632.842 176.55 632.982 175.822H628.88V170.278H633.164V169.06H627.676V168.122ZM637.518 174.94V173.456H634.172V173.946L634.13 174.94H637.518ZM633.122 174.94C633.15 174.618 633.164 174.282 633.164 173.946V173.456H629.874V174.94H633.122ZM629.874 172.616H633.164V171.146H629.874V172.616ZM634.172 171.146V172.616H637.518V171.146H634.172ZM647.612 167.52L648.508 167.996C648.256 168.276 647.99 168.542 647.71 168.794H651.728V169.592C650.216 172.28 647.402 173.792 643.314 174.114L642.88 173.204C644.14 173.12 645.26 172.938 646.268 172.644C645.834 172.112 645.372 171.622 644.896 171.188L645.778 170.768C646.282 171.244 646.758 171.748 647.206 172.308C648.662 171.72 649.796 170.838 650.58 169.69H646.492C645.4 170.334 644.112 170.824 642.614 171.16L642.026 170.236C644.518 169.76 646.38 168.864 647.612 167.52ZM647.08 176.27C647.612 176.816 648.13 177.404 648.606 178.034C650.16 177.362 651.378 176.396 652.274 175.164H648.13C646.898 175.752 645.442 176.2 643.748 176.494L643.146 175.598C646.198 175.29 648.452 174.352 649.908 172.812L650.776 173.288C650.44 173.624 650.09 173.946 649.698 174.24H653.534V175.038C651.546 178.342 647.85 180.05 642.418 180.176L642.012 179.21C644.196 179.196 646.086 178.93 647.668 178.398C647.192 177.768 646.702 177.194 646.184 176.69L647.08 176.27ZM656.978 180.274H655.718L655.508 179.294C655.9 179.322 656.264 179.35 656.628 179.35C656.964 179.35 657.146 179.168 657.146 178.818V175.402C656.614 175.612 656.068 175.808 655.522 175.976L655.284 174.968C655.914 174.814 656.53 174.618 657.146 174.38V171.216H655.452V170.25H657.146V167.604H658.182V170.25H659.596V171.216H658.182V173.946C658.588 173.75 658.994 173.554 659.386 173.33V174.352C658.994 174.562 658.588 174.758 658.182 174.954V179.084C658.182 179.868 657.776 180.274 656.978 180.274ZM660.688 168.052H666.792V172.91H660.688V168.052ZM665.812 172.084V170.88H661.668V172.084H665.812ZM661.668 170.096H665.812V168.878H661.668V170.096ZM659.708 173.89H667.716V174.786H664.216V176.368H667.142V177.278H664.216V179.084C664.776 179.168 665.434 179.21 666.204 179.21C666.932 179.21 667.562 179.182 668.08 179.14L667.8 180.12C667.24 180.12 666.722 180.106 666.274 180.106C664.426 180.092 663.166 179.91 662.494 179.574C661.962 179.294 661.472 178.762 661.052 177.978C660.716 178.846 660.254 179.644 659.652 180.372L658.91 179.728C659.974 178.44 660.562 176.984 660.674 175.388L661.57 175.486C661.542 175.99 661.472 176.466 661.36 176.942C661.808 177.88 662.326 178.482 662.914 178.748C663.012 178.79 663.124 178.832 663.25 178.874V174.786H659.708V173.89ZM674.926 180.232H673.12L672.91 179.252C673.498 179.28 674.044 179.308 674.576 179.308C674.996 179.308 675.206 179.098 675.206 178.706V172.882H669.704V171.888H681.632V172.882H676.228V178.958C676.228 179.798 675.794 180.232 674.926 180.232ZM671.86 174.422L672.854 174.632C672.266 176.564 671.454 178.23 670.39 179.63L669.508 179.084C670.586 177.684 671.37 176.13 671.86 174.422ZM679.252 174.282C680.204 175.794 681.044 177.39 681.744 179.098L680.82 179.518C680.064 177.656 679.238 176.018 678.342 174.59L679.252 174.282ZM670.992 168.332H680.386V169.312H670.992V168.332ZM694.036 180.344H692.426L692.174 179.378L693.826 179.406C694.288 179.406 694.526 179.154 694.526 178.65V169.102H687.834V168.15H695.52V178.944C695.52 179.868 695.016 180.344 694.036 180.344ZM688.156 170.754H693.56V171.72H688.156V170.754ZM688.66 173.246H693V177.586H688.66V173.246ZM692.048 176.704V174.128H689.64V176.704H692.048ZM684.936 167.702C685.888 168.416 686.686 169.13 687.33 169.858L686.644 170.558C686.056 169.872 685.244 169.144 684.236 168.388L684.936 167.702ZM683.284 171.846H686.28V177.978C686.686 177.6 687.12 177.166 687.596 176.676L687.862 177.754C687.092 178.552 686.266 179.266 685.398 179.882L685.006 178.986C685.202 178.804 685.314 178.608 685.314 178.384V172.812H683.284V171.846ZM699.272 177.334C699.58 177.334 699.846 177.46 700.042 177.726C700.224 177.978 700.322 178.3 700.322 178.706C700.322 179.322 700.14 179.868 699.776 180.344C699.412 180.792 698.922 181.1 698.334 181.254V180.568C698.698 180.442 698.992 180.232 699.216 179.952C699.412 179.658 699.524 179.35 699.524 179.014C699.468 179.042 699.356 179.07 699.216 179.07C698.978 179.07 698.782 178.986 698.614 178.818C698.446 178.65 698.362 178.44 698.362 178.202C698.362 177.936 698.446 177.726 698.614 177.572C698.782 177.404 698.992 177.334 699.272 177.334ZM713.118 167.534H714.07V168.696H716.072V167.548H717.024V168.696H718.564V169.648H717.024V170.852H716.072V169.648H714.07V170.642H713.118V169.648H711.396V168.696H713.118V167.534ZM712.236 174.212C712.082 174.408 711.928 174.604 711.788 174.772L711.144 174.002C711.872 173.176 712.474 172.098 712.936 170.754L713.902 170.964C713.818 171.202 713.72 171.44 713.636 171.664H717.78C717.78 175.472 717.71 177.81 717.584 178.706C717.458 179.77 716.87 180.302 715.806 180.302C715.54 180.302 715.092 180.274 714.448 180.246L714.224 179.35C714.784 179.378 715.26 179.406 715.68 179.406C716.24 179.406 716.562 179.042 716.66 178.314C716.758 177.698 716.814 175.78 716.842 172.588H713.23C712.978 173.092 712.698 173.554 712.404 173.974H715.582V177.992H712.236V174.212ZM714.7 177.124V174.814H713.104V177.124H714.7ZM719.768 167.492L720.748 167.674C720.65 168.388 720.524 169.06 720.384 169.704H723.926V170.67H723.002C722.946 172.994 722.526 174.968 721.77 176.62C722.456 177.852 723.268 178.818 724.22 179.49L723.632 180.372C722.708 179.672 721.924 178.748 721.266 177.586C720.58 178.706 719.712 179.658 718.648 180.428L718.088 179.546C719.208 178.776 720.09 177.782 720.734 176.578C720.202 175.472 719.768 174.212 719.404 172.784C719.152 173.33 718.886 173.82 718.606 174.268L717.99 173.498C718.858 172.014 719.46 170.012 719.768 167.492ZM722.092 170.67H720.146C720.076 170.908 720.006 171.146 719.936 171.37C720.258 172.966 720.678 174.338 721.21 175.514C721.742 174.128 722.036 172.518 722.092 170.67ZM733.264 167.562H734.23V168.472H737.702V169.298H734.23V170.236H737.198V171.048H734.23V172H738.052V172.84H729.484V172H733.264V171.048H730.436V170.236H733.264V169.298H729.876V168.472H733.264V167.562ZM731.514 176.368V177.39H736.036V176.368H731.514ZM736.036 175.584V174.548H731.514V175.584H736.036ZM731.514 178.174V180.4H730.548V173.722H737.002V179.182C737.002 179.938 736.596 180.316 735.812 180.316H734.636L734.398 179.42L735.518 179.462C735.854 179.462 736.036 179.294 736.036 178.972V178.174H731.514ZM726.95 167.716C727.888 168.416 728.672 169.13 729.316 169.844L728.63 170.544C728.042 169.872 727.244 169.158 726.236 168.402L726.95 167.716ZM725.256 171.846H728.224V177.992C728.644 177.6 729.078 177.166 729.554 176.676L729.82 177.74C729.036 178.552 728.196 179.28 727.328 179.91L726.936 179.014C727.146 178.818 727.258 178.608 727.258 178.37V172.812H725.256V171.846ZM740.418 167.604H741.398V169.172H744.128V167.632H745.108V169.172H745.948V170.11H745.108V176.032H746.018V176.984H739.396V176.032H740.418V170.11H739.55V169.172H740.418V167.604ZM741.398 176.032H744.128V174.66H741.398V176.032ZM744.128 170.11H741.398V171.51H744.128V170.11ZM741.398 173.778H744.128V172.392H741.398V173.778ZM743.876 177.348C744.534 178.188 745.038 178.93 745.388 179.546C746.312 178.244 746.774 176.606 746.802 174.646V168.094H751.45V179.07C751.45 179.868 751.03 180.274 750.218 180.274H748.734L748.454 179.28C748.972 179.308 749.448 179.336 749.896 179.336C750.26 179.336 750.442 179.126 750.442 178.706V175.836H747.726C747.53 177.684 746.97 179.21 746.046 180.442L745.276 179.728C745.304 179.7 745.318 179.672 745.332 179.644L744.59 180.176C744.226 179.462 743.722 178.678 743.092 177.838L743.876 177.348ZM741.146 177.334L741.958 177.726C741.426 178.734 740.81 179.616 740.11 180.358L739.312 179.784C740.012 179.098 740.628 178.286 741.146 177.334ZM747.796 172.42V174.562C747.796 174.688 747.782 174.8 747.782 174.912H750.442V172.42H747.796ZM750.442 171.496V169.046H747.796V171.496H750.442ZM756.126 167.478L757.008 167.884C756.28 169.424 755.118 170.796 753.494 171.986L753.2 171.02C754.544 169.984 755.51 168.808 756.126 167.478ZM756.644 170.698L757.512 171.104C757.176 171.86 756.756 172.574 756.252 173.246V180.33H755.286V174.366C754.782 174.898 754.222 175.388 753.62 175.85L753.326 174.884C754.838 173.666 755.944 172.266 756.644 170.698ZM761.362 167.534H762.328V169.06H765.478V169.97H762.328V171.72H766.052V172.644H757.708V171.72H761.362V169.97H758.24V169.06H761.362V167.534ZM757.778 174.352H763.21V173.316H764.218V174.352H765.856V175.29H764.218V178.888C764.218 179.798 763.756 180.26 762.86 180.26H760.872L760.648 179.294C761.292 179.336 761.922 179.364 762.51 179.364C762.972 179.364 763.21 179.112 763.21 178.636V175.29H757.778V174.352ZM759.43 175.836C760.214 176.634 760.816 177.334 761.236 177.922L760.452 178.482C760.004 177.838 759.402 177.11 758.646 176.326L759.43 175.836Z" fill="#3E4552" fill-opacity="0.36"/>
</svg>
