<svg width="393" height="32" viewBox="0 0 393 32" fill="none" xmlns="http://www.w3.org/2000/svg">
<path d="M4.73981 6.52H19.9558V16.84H13.0198V20.056H22.9078V21.328H13.0198V27.352H11.6998V21.328H1.83581V20.056H11.6998V16.84H4.73981V6.52ZM18.6358 15.616V12.28H6.05981V15.616H18.6358ZM6.05981 11.104H18.6358V7.768H6.05981V11.104ZM35.5078 5.44H36.8518V13.024H45.7318V14.272H36.8518V25.024H47.9638V26.296H26.7238V25.024H35.5078V5.44ZM55.5718 5.128L56.8438 5.272C56.5558 7.048 56.2438 8.68 55.9558 10.168H60.2278V10.96C59.9638 14.824 59.1478 18.16 57.7558 20.968C59.2198 22.12 60.4198 23.128 61.3318 24.04L60.4438 25.048C59.5318 24.136 58.4278 23.152 57.1318 22.096C55.8838 24.184 54.2998 25.96 52.3798 27.424L51.5158 26.32C53.4118 24.928 54.9478 23.248 56.1238 21.28C54.9958 20.368 53.7478 19.432 52.3798 18.448C53.1478 16.288 53.8198 13.96 54.3958 11.44H51.6598V10.168H54.6598C54.9958 8.536 55.3078 6.856 55.5718 5.128ZM56.7238 20.176C57.9478 17.68 58.6918 14.752 58.9558 11.44H55.6678C55.0678 14.08 54.4438 16.288 53.7958 18.04C54.8758 18.784 55.8598 19.504 56.7238 20.176ZM61.2118 15.664H66.8518V12.448C68.1958 11.272 69.4678 9.832 70.6678 8.128H61.9558V6.832H72.1798V8.128C71.0038 9.808 69.6598 11.392 68.1478 12.88V15.664H73.2358V16.96H68.1478V25.048C68.1478 26.392 67.5478 27.088 66.3718 27.088H63.0118L62.6758 25.84C63.6358 25.864 64.6918 25.888 65.8438 25.888C66.5158 25.888 66.8518 25.456 66.8518 24.64V16.96H61.2118V15.664ZM78.4198 7.864H80.0518L79.8118 20.56H78.6598L78.4198 7.864ZM79.2358 22.6C79.5718 22.6 79.8598 22.696 80.0998 22.936C80.3398 23.152 80.4598 23.44 80.4598 23.8C80.4598 24.136 80.3398 24.424 80.0998 24.664C79.8598 24.88 79.5718 25 79.2358 25C78.8758 25 78.5878 24.88 78.3718 24.64C78.1318 24.4 78.0118 24.136 78.0118 23.8C78.0118 23.44 78.1318 23.152 78.3718 22.936C78.5878 22.696 78.8758 22.6 79.2358 22.6ZM107.604 5.416H108.948V13.432H115.356V14.704H108.948V25.24H116.268V26.512H102.228V25.24H107.604V5.416ZM96.8282 5.656C98.4842 6.952 99.8762 8.224 101.028 9.52L100.14 10.432C99.0842 9.184 97.6682 7.888 95.8922 6.52L96.8282 5.656ZM94.2602 12.928H99.2042V24.016C100.116 23.296 101.124 22.408 102.228 21.376L102.564 22.768C101.124 24.112 99.5882 25.336 97.9562 26.416L97.4282 25.24C97.7642 24.976 97.9322 24.688 97.9322 24.4V14.2H94.2602V12.928ZM130.356 16.72V18.04C128.892 18.544 127.356 19 125.748 19.408V25.144C125.748 26.392 125.076 27.016 123.756 27.016H121.116L120.828 25.792C121.692 25.84 122.532 25.864 123.3 25.864C124.068 25.864 124.452 25.504 124.452 24.808V19.72C122.844 20.08 121.188 20.392 119.46 20.68L119.268 19.408C121.092 19.12 122.82 18.784 124.452 18.4V13.384H119.316V12.136H124.452V8.368C123.108 8.656 121.716 8.896 120.252 9.088L119.988 7.84C123.444 7.456 126.492 6.736 129.132 5.704L129.588 6.928C128.388 7.36 127.116 7.744 125.748 8.08V12.136H132.036C131.868 10.144 131.796 7.936 131.796 5.488H133.092C133.092 8.008 133.164 10.216 133.308 12.136H140.868V13.384H133.404C133.572 15.208 133.812 16.768 134.124 18.016C134.292 18.736 134.484 19.408 134.7 20.032C135.972 18.544 137.076 16.84 138.012 14.92L139.14 15.52C138.036 17.8 136.716 19.768 135.18 21.4C135.54 22.336 135.948 23.128 136.38 23.8C137.196 25 137.868 25.6 138.396 25.6C138.972 25.576 139.476 24.136 139.884 21.304L141.036 21.928C140.46 25.288 139.644 26.992 138.588 26.992C137.652 26.992 136.644 26.248 135.564 24.808C135.06 24.112 134.604 23.296 134.196 22.36C132.42 24.016 130.38 25.288 128.1 26.176L127.38 25.072C129.804 24.16 131.916 22.816 133.692 21.064C133.38 20.2 133.116 19.288 132.876 18.28C132.54 16.888 132.3 15.256 132.132 13.384H125.748V18.088C127.38 17.656 128.916 17.2 130.356 16.72ZM135.732 5.8C137.46 6.976 138.924 8.176 140.124 9.4L139.212 10.312C138.132 9.16 136.668 7.936 134.844 6.64L135.732 5.8ZM162.732 27.184H160.38L160.02 25.936L162.468 25.984C163.236 25.984 163.644 25.504 163.644 24.544V8.416H157.596V7.144H164.94V24.88C164.94 26.416 164.196 27.184 162.732 27.184ZM153.9 5.464C155.1 6.904 156.012 8.176 156.636 9.28L155.604 10C154.932 8.8 154.044 7.504 152.892 6.088L153.9 5.464ZM149.796 5.344L150.972 5.896C150.3 7.84 149.484 9.664 148.524 11.368V27.4H147.228V13.384C146.364 14.632 145.404 15.784 144.348 16.864L143.94 15.52C146.652 12.52 148.596 9.136 149.796 5.344ZM151.86 9.52H153.156V27.328H151.86V9.52ZM170.772 7H189.3V8.272H185.172V15.088H190.572V16.36H185.172V27.16H183.876V16.36H176.508C176.316 18.88 175.86 20.968 175.14 22.624C174.228 24.592 172.74 26.152 170.652 27.28L169.908 26.176C171.876 25.072 173.292 23.56 174.132 21.64C174.684 20.2 175.044 18.424 175.212 16.36H169.476V15.088H175.284C175.284 14.704 175.308 14.368 175.308 14.032V8.272H170.772V7ZM176.604 8.272V14.032C176.604 14.392 176.58 14.752 176.58 15.088H183.876V8.272H176.604ZM197.1 5.368L198.372 5.512C198.132 7.192 197.916 8.752 197.7 10.192H201.348V10.96C201.156 14.896 200.46 18.28 199.26 21.112C200.46 22.336 201.42 23.44 202.164 24.4L201.3 25.408C200.58 24.472 199.716 23.464 198.684 22.36C197.7 24.328 196.452 25.984 194.964 27.376L194.148 26.368C195.636 25 196.86 23.344 197.796 21.424C196.86 20.464 195.804 19.432 194.652 18.352C195.228 16.24 195.756 13.912 196.212 11.416H194.1V10.192H196.428C196.668 8.632 196.908 7.024 197.1 5.368ZM198.348 20.176C199.356 17.656 199.956 14.728 200.148 11.416H197.484C197.004 14.032 196.524 16.216 196.02 17.944C196.884 18.736 197.652 19.48 198.348 20.176ZM214.092 17.368V27.352H212.844V25.84H204.9V27.352H203.652V17.368H214.092ZM204.9 24.592H212.844V18.568H204.9V24.592ZM202.62 14.92L202.38 13.744C203.94 12.784 205.74 10 207.756 5.44L208.98 5.848C207.42 9.28 205.884 11.872 204.372 13.648C207.444 13.432 210.276 13.12 212.892 12.712C212.148 11.32 211.38 10 210.612 8.8L211.74 8.248C213.108 10.384 214.38 12.712 215.58 15.208L214.404 15.808C214.092 15.136 213.78 14.464 213.468 13.84C210.204 14.32 206.604 14.68 202.62 14.92ZM227.748 11.656C229.764 12.592 231.588 13.72 233.268 15.016L232.548 16.12C230.772 14.68 228.924 13.528 227.052 12.712L227.748 11.656ZM221.484 17.416H238.14V18.424C236.508 22.336 233.34 25.312 228.684 27.328L227.82 26.224C232.044 24.448 234.996 21.928 236.628 18.64H221.484V17.416ZM229.5 5.488H230.412C233.46 8.896 236.964 11.608 240.948 13.6L240.276 14.8C236.244 12.736 232.812 10.024 229.956 6.712C227.34 9.832 223.884 12.544 219.612 14.824L218.964 13.624C223.188 11.44 226.692 8.728 229.5 5.488ZM244.836 14.08H253.668C254.004 12.304 254.244 10.336 254.364 8.128H245.484V6.88H264.3V8.128H255.684C255.54 10.36 255.324 12.352 255.012 14.08H265.02V15.352H255.948C257.604 20.104 260.868 23.776 265.716 26.32L264.924 27.376C259.788 24.64 256.404 20.656 254.724 15.424C254.292 17.32 253.716 18.88 253.02 20.128C251.388 22.96 248.676 25.36 244.86 27.376L244.02 26.32C247.644 24.448 250.236 22.24 251.772 19.672C252.444 18.52 252.972 17.08 253.404 15.352H244.836V14.08ZM277.356 9.736V25.864H276.108V24.4H271.26V26.536H270.012V9.736H272.172C272.676 8.368 273.036 6.928 273.252 5.44L274.572 5.608C274.308 7.096 273.924 8.464 273.42 9.736H277.356ZM271.26 23.2H276.108V17.512H271.26V23.2ZM271.26 16.336H276.108V10.984H271.26V16.336ZM281.436 15.16C283.26 17.176 284.652 18.928 285.612 20.44L284.58 21.184C283.572 19.552 282.156 17.776 280.38 15.832L281.436 15.16ZM289.788 9.76C289.788 17.512 289.668 22.312 289.452 24.136C289.212 26.056 288.108 27.016 286.116 27.016C285.66 27.016 284.868 26.992 283.764 26.968L283.452 25.768C284.412 25.816 285.252 25.84 285.972 25.84C287.268 25.84 288.012 25.12 288.204 23.704C288.396 22.264 288.492 18.04 288.54 11.056H281.46C280.788 12.616 279.996 14.008 279.036 15.256L278.268 14.248C279.996 11.848 281.172 8.896 281.796 5.416L283.068 5.56C282.78 7.048 282.42 8.464 281.964 9.76H289.788ZM304.188 8.656H295.764V7.408H313.932V8.656H305.484V24.304H315.54V25.576H294.108V24.304H304.188V8.656ZM329.172 10.264C328.068 12.616 326.772 14.656 325.284 16.432L324.372 15.352C326.628 12.712 328.404 9.352 329.7 5.32L330.996 5.632C330.612 6.832 330.18 7.936 329.748 8.992H340.5V10.264H332.124V14.632H339.396V15.928H332.124V20.368H339.588V21.64H332.124V27.352H330.828V10.264H329.172ZM321.948 13.288C321.084 14.44 320.148 15.544 319.116 16.6L318.708 15.232C321.396 12.328 323.316 9.064 324.516 5.44L325.716 5.992C325.068 7.912 324.252 9.688 323.244 11.344V27.352H321.948V13.288ZM351.108 7.576V24.52H349.836V23.08H346.284V25.048H344.988V7.576H351.108ZM346.284 21.832H349.836V8.824H346.284V21.832ZM358.068 7.936H354.684V15.904H358.068V7.936ZM359.292 15.904H362.844V7.936H359.292V15.904ZM364.116 6.712V17.128H354.684V24.088C354.684 25.144 355.188 25.672 356.196 25.696H362.22C362.892 25.672 363.348 25.36 363.636 24.736C363.852 24.208 363.996 23.008 364.092 21.16L365.34 21.568C365.22 23.296 365.028 24.52 364.788 25.264C364.38 26.368 363.636 26.92 362.556 26.944H355.764C354.18 26.944 353.412 26.128 353.412 24.496V6.712H364.116ZM375.54 14.032C376.308 14.032 377.196 14.272 378.252 14.8C378.924 15.16 379.644 15.568 380.412 16.024C381.996 16.936 383.244 17.392 384.156 17.392C385.404 17.392 386.652 16.456 387.9 14.584L388.908 15.352C387.444 17.56 385.86 18.688 384.156 18.688C383.052 18.688 381.708 18.232 380.124 17.32C379.356 16.84 378.636 16.408 377.964 16.072C377.004 15.568 376.188 15.328 375.54 15.328C374.1 15.328 372.756 16.216 371.508 18.016L370.5 17.224C371.964 15.088 373.644 14.032 375.54 14.032Z" fill="#17224E"/>
</svg>
