<svg width="352" height="96" viewBox="0 0 352 96" fill="none" xmlns="http://www.w3.org/2000/svg">
<path fill-rule="evenodd" clip-rule="evenodd" d="M39.6726 37.3367C39.1001 37.3367 38.5235 37.1537 38.0376 36.7759C36.8805 35.8767 36.6753 34.2145 37.5794 33.0634L42.3099 27.0402C43.2138 25.889 44.8848 25.685 46.0418 26.5842C47.1989 27.4836 47.4041 29.1457 46.5 30.2967L41.7695 36.32C41.2452 36.9876 40.4629 37.3367 39.6726 37.3367Z" fill="#8ED2FF"/>
<mask id="mask0_1993_83442" style="mask-type:luminance" maskUnits="userSpaceOnUse" x="32" y="20" width="11" height="12">
<path fill-rule="evenodd" clip-rule="evenodd" d="M32.2852 20H42.3333V31.3132H32.2852V20Z" fill="white"/>
</mask>
<g mask="url(#mask0_1993_83442)">
<path fill-rule="evenodd" clip-rule="evenodd" d="M34.9422 31.3132C34.3697 31.3132 33.7931 31.1303 33.307 30.7525C32.1501 29.8532 31.9449 28.1911 32.8488 27.04L37.5794 21.0168C38.4835 19.8655 40.1542 19.6615 41.3115 20.5608C42.4684 21.4601 42.6736 23.1223 41.7696 24.2734L37.0391 30.2966C36.5147 30.9641 35.7324 31.3132 34.9422 31.3132Z" fill="#8ED2FF"/>
</g>
<mask id="mask1_1993_83442" style="mask-type:luminance" maskUnits="userSpaceOnUse" x="22" y="20" width="11" height="12">
<path fill-rule="evenodd" clip-rule="evenodd" d="M22.5938 20H32.868V31.6011H22.5938V20Z" fill="white"/>
</mask>
<g mask="url(#mask1_1993_83442)">
<path fill-rule="evenodd" clip-rule="evenodd" d="M25.2507 31.6011C24.6784 31.6011 24.1017 31.418 23.6158 31.0404C22.4587 30.141 22.2534 28.479 23.1575 27.3279L28.1142 21.0167C29.0182 19.8654 30.689 19.6616 31.846 20.5608C33.0031 21.46 33.2083 23.1222 32.3042 24.2733L27.3476 30.5845C26.8234 31.252 26.041 31.6011 25.2507 31.6011Z" fill="#296BEF"/>
</g>
<mask id="mask2_1993_83442" style="mask-type:luminance" maskUnits="userSpaceOnUse" x="25" y="26" width="13" height="14">
<path fill-rule="evenodd" clip-rule="evenodd" d="M25.4609 26.0234H37.6009V40.0002H25.4609V26.0234Z" fill="white"/>
</mask>
<g mask="url(#mask2_1993_83442)">
<path fill-rule="evenodd" clip-rule="evenodd" d="M28.1179 40.0002C27.5454 40.0002 26.9689 39.8171 26.483 39.4394C25.3259 38.54 25.1206 36.878 26.0246 35.727L32.847 27.0402C33.7511 25.889 35.422 25.685 36.5789 26.5842C37.736 27.4836 37.9412 29.1457 37.0371 30.2967L30.2149 38.9836C29.6904 39.6511 28.9082 40.0002 28.1179 40.0002Z" fill="#296BEF"/>
</g>
<mask id="mask3_1993_83442" style="mask-type:luminance" maskUnits="userSpaceOnUse" x="34" y="32" width="9" height="8">
<path fill-rule="evenodd" clip-rule="evenodd" d="M34.9219 32.0469H42.3314V40.0002H34.9219V32.0469Z" fill="white"/>
</mask>
<g mask="url(#mask3_1993_83442)">
<path fill-rule="evenodd" clip-rule="evenodd" d="M37.5789 40.0003C37.0063 40.0003 36.4298 39.8172 35.9437 39.4393C34.7868 38.5401 34.5816 36.8781 35.4857 35.727L37.5775 33.0635C38.4816 31.9124 40.1523 31.7084 41.3095 32.6076C42.4665 33.5069 42.6717 35.169 41.7676 36.3201L39.6758 38.9836C39.1514 39.6512 38.3691 40.0003 37.5789 40.0003Z" fill="#296BEF"/>
</g>
<mask id="mask4_1993_83442" style="mask-type:luminance" maskUnits="userSpaceOnUse" x="16" y="32" width="8" height="8">
<path fill-rule="evenodd" clip-rule="evenodd" d="M16 32.0469H23.4094V40.0002H16V32.0469Z" fill="white"/>
</mask>
<g mask="url(#mask4_1993_83442)">
<path fill-rule="evenodd" clip-rule="evenodd" d="M18.6569 40.0003C18.0845 40.0003 17.5078 39.8172 17.0219 39.4395C15.8648 38.5401 15.6598 36.8781 16.5637 35.727L18.6555 33.0635C19.5595 31.9124 21.2305 31.7084 22.3874 32.6076C23.5445 33.5069 23.7497 35.169 22.8456 36.3201L20.7538 38.9836C20.2296 39.6512 19.4472 40.0003 18.6569 40.0003Z" fill="#FFA600"/>
</g>
<mask id="mask5_1993_83442" style="mask-type:luminance" maskUnits="userSpaceOnUse" x="44" y="32" width="8" height="8">
<path fill-rule="evenodd" clip-rule="evenodd" d="M44.3828 32.0469H51.7923V40.0002H44.3828V32.0469Z" fill="white"/>
</mask>
<g mask="url(#mask5_1993_83442)">
<path fill-rule="evenodd" clip-rule="evenodd" d="M47.0398 40.0003C46.4673 40.0003 45.8907 39.8172 45.4048 39.4393C44.2477 38.5401 44.0425 36.8781 44.9466 35.727L47.0386 33.0635C47.9425 31.9124 49.6133 31.7084 50.7704 32.6076C51.9274 33.5069 52.1326 35.169 51.2285 36.3201L49.1367 38.9836C48.6123 39.6512 47.8301 40.0003 47.0398 40.0003Z" fill="#8ED2FF"/>
</g>
<rect x="64" y="23" width="1" height="14" rx="0.5" fill="#002163" fill-opacity="0.4"/>
<path d="M79.916 37.602H78.368L78.098 36.342C78.566 36.378 79.034 36.414 79.466 36.414C79.952 36.414 80.204 36.162 80.204 35.658V31.266C79.484 31.572 78.728 31.86 77.972 32.112L77.648 30.816C78.512 30.582 79.376 30.294 80.204 29.952V25.848H78.008V24.606H80.204V21.312H81.5V24.606H83.552V25.848H81.5V29.376C82.166 29.052 82.814 28.692 83.462 28.296V29.628C82.814 29.988 82.166 30.348 81.5 30.672V35.982C81.5 37.062 80.96 37.602 79.916 37.602ZM84.146 28.998H92.75V30.204C92.192 31.896 91.274 33.354 89.978 34.56C91.184 35.388 92.66 36.108 94.406 36.72L93.704 37.836C91.85 37.116 90.302 36.288 89.06 35.352C87.656 36.396 85.928 37.242 83.894 37.872L83.192 36.774C85.1 36.18 86.702 35.424 88.016 34.488C86.63 33.228 85.694 31.824 85.226 30.258H84.146V28.998ZM86.414 30.258C86.882 31.554 87.71 32.724 88.934 33.768C90.068 32.76 90.914 31.59 91.472 30.258H86.414ZM85.532 22.014H91.58V25.884C91.58 26.316 91.832 26.55 92.336 26.55H93.848V27.756H92.012C90.86 27.756 90.302 27.216 90.302 26.172V23.238H86.81V24.282C86.81 25.974 85.982 27.288 84.326 28.224L83.462 27.234C84.83 26.568 85.532 25.632 85.532 24.408V22.014ZM105.818 28.062C105.494 28.566 105.152 29.034 104.792 29.466L104 28.512C105.404 26.712 106.358 24.282 106.862 21.24L108.14 21.456C107.978 22.374 107.78 23.238 107.546 24.03H112.856V25.272H111.524C111.416 28.296 110.714 30.888 109.418 33.03C110.552 34.65 111.902 35.892 113.45 36.756L112.712 37.854C111.146 36.954 109.796 35.712 108.68 34.128C107.6 35.568 106.232 36.774 104.54 37.746L103.802 36.576C105.53 35.64 106.898 34.452 107.942 32.994C107.096 31.554 106.394 29.916 105.818 28.062ZM107.15 25.272C106.97 25.776 106.772 26.244 106.556 26.694C107.096 28.674 107.798 30.384 108.644 31.842C109.652 29.988 110.192 27.792 110.282 25.272H107.15ZM97.07 24.012H100.508C100.184 23.148 99.788 22.32 99.356 21.51L100.616 21.15C101.12 22.194 101.534 23.148 101.822 24.012H104.522V25.254H100.148V26.91C100.148 27.27 100.13 27.612 100.13 27.936H103.568C103.568 32.31 103.478 34.992 103.316 36C103.136 37.026 102.416 37.548 101.138 37.548C100.904 37.548 100.49 37.512 99.896 37.476L99.608 36.36C100.112 36.396 100.562 36.414 100.958 36.414C101.606 36.414 102.002 36.108 102.128 35.514C102.254 34.83 102.326 32.688 102.344 29.124H100.076C99.824 32.976 99.032 35.856 97.7 37.764L96.692 36.882C98.168 34.812 98.906 31.482 98.942 26.91V25.254H97.07V24.012ZM129.308 28.404V31.932H120.326V33.174H130.136V37.8H128.858V37.044H120.326V37.782H119.03V28.404H129.308ZM120.326 35.892H128.858V34.218H120.326V35.892ZM120.326 30.888H128.048V29.448H120.326V30.888ZM131.792 26.226V29.484H130.532V27.342H117.788V29.484H116.528V26.226H123.656C123.476 25.794 123.296 25.416 123.098 25.056L124.358 24.84L124.25 24.768C125.114 23.688 125.726 22.518 126.122 21.222L127.364 21.492C127.238 21.87 127.112 22.23 126.968 22.59H132.17V23.724H128.966C129.344 24.228 129.65 24.696 129.866 25.128L128.714 25.56C128.39 24.912 128.012 24.3 127.58 23.724H126.446C126.122 24.336 125.744 24.912 125.348 25.452L124.376 24.858C124.574 25.272 124.772 25.722 124.952 26.226H131.792ZM118.688 23.724C118.256 24.426 117.788 25.074 117.248 25.668L116.114 24.948C117.194 23.832 117.986 22.572 118.49 21.204L119.732 21.474C119.588 21.87 119.426 22.23 119.282 22.59H124.106V23.724H121.082C121.478 24.264 121.82 24.786 122.072 25.272L120.884 25.722C120.56 25.038 120.164 24.372 119.714 23.724H118.688ZM141.728 22.014H150.53V30.33H146.786V32.454H150.836V33.678H146.786V36.018H151.502V37.26H140.666V36.018H145.49V33.678H141.422V32.454H145.49V30.33H141.728V22.014ZM149.288 29.178V26.748H146.786V29.178H149.288ZM145.49 29.178V26.748H142.97V29.178H145.49ZM142.97 25.614H145.49V23.166H142.97V25.614ZM146.786 23.166V25.614H149.288V23.166H146.786ZM135.374 27.972H137.336V23.706H135.122V22.482H140.864V23.706H138.668V27.972H140.648V29.214H138.668V33.3C139.352 33.066 140 32.814 140.648 32.526V33.786C138.992 34.47 137.21 35.046 135.302 35.514L134.978 34.272C135.77 34.128 136.562 33.948 137.336 33.732V29.214H135.374V27.972ZM155.066 22.104H169.61V23.364H162.914V30.168H170.294V31.41H162.914V37.782H161.582V31.41H154.346V30.168H161.582V23.364H155.066V22.104ZM157.262 24.516C157.946 25.776 158.594 27.144 159.206 28.638L158 29.232C157.388 27.684 156.74 26.316 156.056 25.11L157.262 24.516ZM167.468 24.426L168.656 24.984C168.116 26.406 167.396 27.792 166.514 29.16L165.362 28.566C166.244 27.162 166.946 25.794 167.468 24.426ZM187.412 30.312V37.818H186.098V36.918H176.702V37.818H175.388V30.312H187.412ZM176.702 35.676H186.098V31.554H176.702V35.676ZM174.11 28.458L173.858 27.234C175.442 26.694 177.404 24.696 179.744 21.258L181.076 21.708C179.456 24.012 177.818 25.848 176.198 27.18C179.654 27.036 182.93 26.802 186.026 26.514C185.342 25.542 184.64 24.624 183.92 23.796L185.09 23.238C186.638 25.038 188.078 27.036 189.41 29.214L188.15 29.826C187.7 29.07 187.25 28.368 186.818 27.684C183.02 28.026 178.79 28.278 174.11 28.458Z" fill="#002163"/>
<g filter="url(#filter0_dd_1993_83442)">
<path d="M205 26C205 19.3726 210.373 14 217 14H306C312.627 14 318 19.3726 318 26V60H205V26Z" fill="white"/>
<rect x="237.91" y="27.9414" width="2.69159" height="14.9533" rx="1.34579" transform="rotate(38.5 237.91 27.9414)" fill="#17224E"/>
<rect x="233.117" y="27.9531" width="2.69159" height="8.2243" rx="1.34579" transform="rotate(38.5 233.117 27.9531)" fill="#17224E"/>
<rect x="241.301" y="29.6836" width="2.69159" height="14.9533" rx="1.34579" transform="rotate(38.5 241.301 29.6836)" fill="#17224E"/>
<rect x="241.895" y="34.9336" width="2.69159" height="8.2243" rx="1.34579" transform="rotate(38.5 241.895 34.9336)" fill="#17224E"/>
<path fill-rule="evenodd" clip-rule="evenodd" d="M264.927 31.1445C265.566 31.1445 266.055 31.2518 266.396 31.4648C266.742 31.6737 266.994 31.9122 267.151 32.1807C267.309 32.4445 267.428 32.6617 267.509 32.832H267.662L267.85 31.6914C267.889 31.45 268.098 31.2725 268.343 31.2725H268.786C269.094 31.2725 269.33 31.5492 269.28 31.8535L267.714 41.3721C267.573 42.2158 267.268 42.9023 266.8 43.4307C266.331 43.9632 265.756 44.3534 265.074 44.6006C264.392 44.852 263.661 44.9775 262.881 44.9775C262.148 44.9775 261.534 44.8838 261.04 44.6963C260.546 44.5131 260.15 44.2702 259.851 43.9678C259.668 43.7841 259.511 43.5915 259.383 43.3916C259.247 43.1812 259.332 42.9096 259.545 42.7773L260.088 42.4395C260.328 42.2896 260.647 42.3695 260.806 42.6045C260.844 42.6607 260.884 42.7187 260.926 42.7783C261.088 43.0126 261.332 43.2153 261.66 43.3857C261.992 43.5605 262.46 43.6475 263.06 43.6475C263.849 43.6474 264.539 43.4556 265.131 43.0723C265.723 42.6887 266.09 42.0877 266.23 41.2695L266.537 39.2754H266.41C266.274 39.4544 266.084 39.6762 265.841 39.9404C265.598 40.2002 265.272 40.4322 264.863 40.6367C264.454 40.837 263.929 40.9375 263.29 40.9375C262.493 40.9374 261.812 40.7499 261.245 40.375C260.678 40 260.271 39.4542 260.024 38.7383C259.781 38.0225 259.745 37.1534 259.915 36.1309C260.081 35.1253 260.401 34.2496 260.874 33.5039C261.351 32.7539 261.94 32.1737 262.639 31.7646C263.337 31.3514 264.1 31.1445 264.927 31.1445ZM264.824 32.5C264.181 32.5 263.625 32.6617 263.156 32.9854C262.692 33.3092 262.314 33.7446 262.024 34.29C261.735 34.8354 261.534 35.4408 261.424 36.1055C261.313 36.7871 261.317 37.39 261.436 37.9141C261.556 38.4339 261.798 38.8433 262.165 39.1416C262.536 39.4356 263.039 39.582 263.674 39.582C264.275 39.582 264.809 39.444 265.278 39.167C265.751 38.89 266.143 38.4915 266.454 37.9717C266.765 37.4519 266.98 36.8297 267.1 36.1055C267.219 35.3981 267.21 34.7736 267.074 34.2324C266.938 33.6912 266.68 33.2668 266.301 32.96C265.926 32.6533 265.433 32.5 264.824 32.5Z" fill="#17224E"/>
<path fill-rule="evenodd" clip-rule="evenodd" d="M275.405 31.1445C275.916 31.1445 276.409 31.23 276.882 31.4004C277.355 31.5708 277.764 31.848 278.109 32.2314C278.454 32.6107 278.696 33.1138 278.832 33.7402C278.968 34.3665 278.96 35.1378 278.807 36.0537L278.771 36.2725C278.732 36.5149 278.523 36.6934 278.277 36.6934H271.563C271.444 37.4832 271.465 38.1136 271.628 38.585C271.798 39.0665 272.095 39.4139 272.516 39.627C272.938 39.8357 273.467 39.9404 274.101 39.9404C274.506 39.9404 274.88 39.8852 275.221 39.7744C275.561 39.6594 275.866 39.4885 276.135 39.2627C276.307 39.1153 276.461 38.9448 276.598 38.752C276.735 38.5588 276.975 38.4542 277.202 38.5215L277.633 38.6494C277.927 38.7366 278.075 39.0675 277.904 39.3223C277.71 39.6123 277.476 39.8783 277.202 40.1191C276.78 40.4899 276.285 40.7795 275.719 40.9883C275.156 41.1928 274.54 41.2959 273.871 41.2959C272.929 41.2958 272.152 41.0865 271.538 40.6689C270.925 40.2472 270.497 39.6592 270.254 38.9053C270.011 38.1468 269.972 37.2644 270.139 36.2588C270.305 35.2532 270.635 34.3666 271.129 33.5996C271.623 32.8283 272.239 32.2273 272.976 31.7969C273.714 31.3623 274.523 31.1446 275.405 31.1445ZM275.176 32.5C274.609 32.5 274.08 32.6531 273.59 32.96C273.1 33.2624 272.691 33.6461 272.363 34.1104C272.064 34.5295 271.868 34.9563 271.774 35.3896H277.374C277.472 34.8357 277.447 34.3409 277.298 33.9062C277.153 33.4716 276.899 33.1284 276.537 32.877C276.179 32.6256 275.725 32.5 275.176 32.5Z" fill="#17224E"/>
<path d="M292.984 28.9209C293.293 28.9209 293.528 29.1982 293.477 29.5029L293.183 31.2725H294.701C295.009 31.2725 295.244 31.5478 295.195 31.8516L295.15 32.1299C295.111 32.3724 294.903 32.5507 294.657 32.5508H292.97L292.016 38.2783C291.947 38.7045 291.957 39.0242 292.047 39.2373C292.14 39.446 292.281 39.5867 292.469 39.6592C292.66 39.7273 292.867 39.7617 293.089 39.7617C293.255 39.7617 293.391 39.7524 293.498 39.7354C293.634 39.7082 293.763 39.8063 293.773 39.9443L293.827 40.6514C293.844 40.8798 293.703 41.0898 293.478 41.1367C293.45 41.1427 293.42 41.1493 293.39 41.1553C293.198 41.1979 292.961 41.2188 292.68 41.2188C292.254 41.2187 291.853 41.1274 291.478 40.9443C291.103 40.7611 290.815 40.4814 290.615 40.1064C290.415 39.7315 290.361 39.2584 290.455 38.6875L291.468 32.5508H290.582C290.274 32.5508 290.039 32.2755 290.088 31.9717L290.133 31.6934C290.172 31.4511 290.38 31.2726 290.626 31.2725H291.678L291.997 29.3389C292.037 29.0976 292.246 28.9211 292.49 28.9209H292.984Z" fill="#17224E"/>
<path fill-rule="evenodd" clip-rule="evenodd" d="M255.874 28C256.112 28 256.317 28.168 256.364 28.4014L258.797 40.4922C258.859 40.8017 258.622 41.0908 258.307 41.0908H257.67C257.43 41.0907 257.223 40.9197 257.179 40.6836L256.558 37.3838H251.265L249.47 40.8223C249.383 40.9873 249.212 41.0908 249.026 41.0908H248.501C248.123 41.0908 247.882 40.6885 248.059 40.3555L254.506 28.2646C254.593 28.1018 254.763 28.0001 254.947 28H255.874ZM251.999 35.9775H256.294L255.184 30.0713H255.082L251.999 35.9775Z" fill="#17224E"/>
<path d="M285.683 31.1445C286.339 31.1446 286.893 31.2812 287.345 31.5537C287.801 31.8222 288.123 32.2315 288.31 32.7812C288.502 33.3267 288.53 34.0174 288.393 34.8525L287.415 40.6738C287.374 40.9146 287.166 41.0908 286.922 41.0908H286.427C286.118 41.0908 285.883 40.8135 285.933 40.5088L286.859 34.9541C286.987 34.1873 286.886 33.5869 286.558 33.1523C286.235 32.7177 285.721 32.5 285.018 32.5C284.533 32.5 284.083 32.6047 283.67 32.8135C283.261 33.0223 282.913 33.327 282.628 33.7275C282.347 34.1281 282.155 34.6136 282.053 35.1846L281.149 40.6719C281.11 40.9134 280.901 41.0908 280.656 41.0908H280.162C279.853 41.0905 279.618 40.8133 279.669 40.5088L281.139 31.6904C281.179 31.4495 281.388 31.2727 281.632 31.2725H282.076C282.385 31.2727 282.62 31.55 282.569 31.8545L282.41 32.8066H282.538C282.845 32.3081 283.261 31.908 283.785 31.6055C284.309 31.2987 284.942 31.1445 285.683 31.1445Z" fill="#17224E"/>
<g opacity="0.01">
<path fill-rule="evenodd" clip-rule="evenodd" d="M304.323 30.0185C304.42 29.9209 304.578 29.9209 304.676 30.0185L309.484 34.8269C309.582 34.9245 309.582 35.0828 309.484 35.1804L304.676 39.9887C304.578 40.0864 304.42 40.0864 304.323 39.9887L303.757 39.4231C303.659 39.3254 303.659 39.1671 303.757 39.0695L307.823 35.0036L303.757 30.9378C303.659 30.8401 303.659 30.6819 303.757 30.5842L304.323 30.0185Z" fill="#17224E"/>
</g>
<path d="M205 50L204.878 52.31C204.663 56.3975 201.397 59.6633 197.31 59.8784L195 60H205V50Z" fill="white"/>
<rect x="205" y="50" width="113" height="10" fill="white"/>
<path d="M318 50L318.122 52.31C318.337 56.3975 321.603 59.6633 325.69 59.8784L328 60H318V50Z" fill="white"/>
</g>
<defs>
<filter id="filter0_dd_1993_83442" x="171" y="2" width="181" height="94" filterUnits="userSpaceOnUse" color-interpolation-filters="sRGB">
<feFlood flood-opacity="0" result="BackgroundImageFix"/>
<feColorMatrix in="SourceAlpha" type="matrix" values="0 0 0 0 0 0 0 0 0 0 0 0 0 0 0 0 0 0 127 0" result="hardAlpha"/>
<feOffset dy="4"/>
<feGaussianBlur stdDeviation="5"/>
<feComposite in2="hardAlpha" operator="out"/>
<feColorMatrix type="matrix" values="0 0 0 0 0.0156863 0 0 0 0 0.211765 0 0 0 0 0.603922 0 0 0 0.07 0"/>
<feBlend mode="normal" in2="BackgroundImageFix" result="effect1_dropShadow_1993_83442"/>
<feColorMatrix in="SourceAlpha" type="matrix" values="0 0 0 0 0 0 0 0 0 0 0 0 0 0 0 0 0 0 127 0" result="hardAlpha"/>
<feOffset dy="12"/>
<feGaussianBlur stdDeviation="12"/>
<feComposite in2="hardAlpha" operator="out"/>
<feColorMatrix type="matrix" values="0 0 0 0 0.0156863 0 0 0 0 0.211765 0 0 0 0 0.603922 0 0 0 0.08 0"/>
<feBlend mode="normal" in2="effect1_dropShadow_1993_83442" result="effect2_dropShadow_1993_83442"/>
<feBlend mode="normal" in="SourceGraphic" in2="effect2_dropShadow_1993_83442" result="shape"/>
</filter>
</defs>
</svg>
