<svg width="591" height="60" viewBox="0 0 591 60" fill="none" xmlns="http://www.w3.org/2000/svg">
<path d="M9.952 30.416C10.112 28.624 10.24 27.04 10.32 25.648L11.248 25.744C11.152 27.12 11.04 28.336 10.944 29.36H12.096C12.288 28.176 12.384 26.896 12.4 25.52V24.608H9.856V23.584H14.768V24.608H13.36V25.52C13.328 26.896 13.232 28.176 13.072 29.36H14.88V30.416H12.88C12.784 30.848 12.688 31.264 12.576 31.664H13.392V36.144C13.392 36.32 13.488 36.416 13.712 36.448H14.096C14.352 36.432 14.496 36.256 14.528 35.936C14.576 35.552 14.608 34.928 14.608 34.096L15.408 34.4C15.408 35.744 15.328 36.56 15.168 36.88C15.008 37.168 14.672 37.312 14.128 37.344H13.696C12.848 37.344 12.432 36.992 12.432 36.32V32.144C11.744 34.4 10.672 36.208 9.216 37.584L8.368 36.848C8.736 36.496 9.088 36.128 9.408 35.744C9.264 35.376 9.104 35.008 8.944 34.64C7.968 35.312 6.784 35.968 5.408 36.576L5.136 35.616C5.36 35.504 5.488 35.328 5.488 35.104V23.568H9.216V31.232H6.496V35.008C7.184 34.672 7.872 34.256 8.544 33.776C8.288 33.28 8.032 32.784 7.76 32.288L8.544 31.792C9.184 32.944 9.696 33.968 10.08 34.832C10.896 33.584 11.504 32.112 11.888 30.416H9.952ZM3.648 29.584V37.632H2.608V29.68C2.192 31.152 1.648 32.512 1.008 33.728L0.528 32.544C1.504 30.912 2.192 29.04 2.608 26.96H0.88V25.904H2.608V22.944H3.648V25.904H4.864V26.96H3.648V28.32C4.224 29.104 4.816 29.968 5.392 30.912L4.8 31.792C4.368 30.896 3.984 30.16 3.648 29.584ZM6.496 27.856V30.256H8.24V27.856H6.496ZM8.24 26.88V24.528H6.496V26.88H8.24ZM28.176 28.8V34.496H27.04V29.856H20.72V34.528H19.568V28.8H28.176ZM23.184 30.88H24.32V31.984C24.256 33.536 23.712 34.784 22.688 35.712C21.68 36.56 20.032 37.232 17.744 37.712L17.088 36.688C19.36 36.24 20.944 35.664 21.856 34.944C22.688 34.176 23.12 33.2 23.184 31.984V30.88ZM29.072 37.344H25.968C24.976 37.344 24.48 36.832 24.48 35.824V32.752H25.584V35.584C25.584 36.048 25.824 36.288 26.304 36.288H28.864C29.2 36.288 29.44 36.192 29.6 36.016C29.792 35.792 29.92 35.168 29.984 34.112L31.04 34.448C30.944 35.824 30.72 36.656 30.4 36.96C30.112 37.216 29.68 37.344 29.072 37.344ZM21.04 22.928H22.176V28.128H21.04V22.928ZM17.904 23.6H19.008V27.728H17.904V23.6ZM25.712 25.184C25.2 26.16 24.592 26.976 23.904 27.616L23.04 26.816C24.128 25.744 24.944 24.4 25.472 22.8L26.576 23.088C26.448 23.456 26.32 23.808 26.192 24.144H30.912V25.184H25.712ZM27.136 25.68C28.064 26.224 28.928 26.88 29.728 27.648L29.024 28.464C28.208 27.648 27.344 26.944 26.416 26.352L27.136 25.68Z" fill="#405580"/>
<g clip-path="url(#clip0_1993_83322)">
<path fill-rule="evenodd" clip-rule="evenodd" d="M64.6045 23.7145C65.2118 23.7147 65.7452 24.119 65.9092 24.7038L69.2041 36.4616H65.4697L64.7412 33.57H60.8105L59.793 36.4616H56.0586L60.9014 23.7145H64.6045ZM71.5723 23.7145C72.3471 23.7145 72.9643 24.3635 72.9258 25.1374L72.3613 36.4616H70.2559L69.3438 33.2077C69.1859 32.6446 69.1203 32.0593 69.1494 31.4753L69.5361 23.7145H71.5723ZM77.7393 23.6794C78.3242 23.6796 78.8435 24.0553 79.0264 24.611L81.0957 30.9001H81.2451L84.3428 23.6794H87.2256C88.0005 23.6794 88.6176 24.3283 88.5791 25.1022L88.0146 36.4264H84.6289L84.9902 29.0573H84.8906L81.9229 36.3268H79.8818L77.6367 29.0075H77.5371L77.1631 36.4264H73.7773L74.4121 23.6794H77.7393ZM94.0908 23.3845C94.2355 22.9239 94.889 22.9239 95.0029 23.3845L95.4102 25.0309C95.7129 26.2545 96.5767 27.2467 97.7441 27.7126L98.6914 28.0905C99.0858 28.2481 99.0669 28.8137 98.6621 28.9714L97.6895 29.3493C96.491 29.8152 95.5611 30.8074 95.1768 32.0309L94.6592 33.6774C94.5145 34.1379 93.862 34.1379 93.748 33.6774L93.3398 32.0309C93.037 30.8075 92.1733 29.8152 91.0059 29.3493L90.0596 28.9714C89.6649 28.8139 89.6837 28.248 90.0889 28.0905L91.0605 27.7126C92.259 27.2467 93.1889 26.2545 93.5732 25.0309L94.0908 23.3845ZM61.7207 30.9811H64.0879L63.1416 27.2253H63.042L61.7207 30.9811Z" fill="url(#paint0_radial_1993_83322)"/>
<path fill-rule="evenodd" clip-rule="evenodd" d="M64.6045 23.7145C65.2118 23.7147 65.7452 24.119 65.9092 24.7038L69.2041 36.4616H65.4697L64.7412 33.57H60.8105L59.793 36.4616H56.0586L60.9014 23.7145H64.6045ZM71.5723 23.7145C72.3471 23.7145 72.9643 24.3635 72.9258 25.1374L72.3613 36.4616H70.2559L69.3438 33.2077C69.1859 32.6446 69.1203 32.0593 69.1494 31.4753L69.5361 23.7145H71.5723ZM77.7393 23.6794C78.3242 23.6796 78.8435 24.0553 79.0264 24.611L81.0957 30.9001H81.2451L84.3428 23.6794H87.2256C88.0005 23.6794 88.6176 24.3283 88.5791 25.1022L88.0146 36.4264H84.6289L84.9902 29.0573H84.8906L81.9229 36.3268H79.8818L77.6367 29.0075H77.5371L77.1631 36.4264H73.7773L74.4121 23.6794H77.7393ZM94.0908 23.3845C94.2355 22.9239 94.889 22.9239 95.0029 23.3845L95.4102 25.0309C95.7129 26.2545 96.5767 27.2467 97.7441 27.7126L98.6914 28.0905C99.0858 28.2481 99.0669 28.8137 98.6621 28.9714L97.6895 29.3493C96.491 29.8152 95.5611 30.8074 95.1768 32.0309L94.6592 33.6774C94.5145 34.1379 93.862 34.1379 93.748 33.6774L93.3398 32.0309C93.037 30.8075 92.1733 29.8152 91.0059 29.3493L90.0596 28.9714C89.6649 28.8139 89.6837 28.248 90.0889 28.0905L91.0605 27.7126C92.259 27.2467 93.1889 26.2545 93.5732 25.0309L94.0908 23.3845ZM61.7207 30.9811H64.0879L63.1416 27.2253H63.042L61.7207 30.9811Z" fill="url(#paint1_linear_1993_83322)"/>
<path fill-rule="evenodd" clip-rule="evenodd" d="M64.6045 23.7145C65.2118 23.7147 65.7452 24.119 65.9092 24.7038L69.2041 36.4616H65.4697L64.7412 33.57H60.8105L59.793 36.4616H56.0586L60.9014 23.7145H64.6045ZM71.5723 23.7145C72.3471 23.7145 72.9643 24.3635 72.9258 25.1374L72.3613 36.4616H70.2559L69.3438 33.2077C69.1859 32.6446 69.1203 32.0593 69.1494 31.4753L69.5361 23.7145H71.5723ZM77.7393 23.6794C78.3242 23.6796 78.8435 24.0553 79.0264 24.611L81.0957 30.9001H81.2451L84.3428 23.6794H87.2256C88.0005 23.6794 88.6176 24.3283 88.5791 25.1022L88.0146 36.4264H84.6289L84.9902 29.0573H84.8906L81.9229 36.3268H79.8818L77.6367 29.0075H77.5371L77.1631 36.4264H73.7773L74.4121 23.6794H77.7393ZM94.0908 23.3845C94.2355 22.9239 94.889 22.9239 95.0029 23.3845L95.4102 25.0309C95.7129 26.2545 96.5767 27.2467 97.7441 27.7126L98.6914 28.0905C99.0858 28.2481 99.0669 28.8137 98.6621 28.9714L97.6895 29.3493C96.491 29.8152 95.5611 30.8074 95.1768 32.0309L94.6592 33.6774C94.5145 34.1379 93.862 34.1379 93.748 33.6774L93.3398 32.0309C93.037 30.8075 92.1733 29.8152 91.0059 29.3493L90.0596 28.9714C89.6649 28.8139 89.6837 28.248 90.0889 28.0905L91.0605 27.7126C92.259 27.2467 93.1889 26.2545 93.5732 25.0309L94.0908 23.3845ZM61.7207 30.9811H64.0879L63.1416 27.2253H63.042L61.7207 30.9811Z" fill="#8690BB"/>
</g>
<path d="M105.187 25.12C104.803 25.712 104.371 26.224 103.891 26.656L103.203 25.792C103.971 25.088 104.611 24.096 105.139 22.816L106.179 23.04C106.035 23.424 105.891 23.776 105.747 24.096H110.323V25.12H107.907C107.875 25.664 107.827 26.192 107.763 26.672H110.771V27.728H107.523C107.475 27.888 107.427 28.032 107.395 28.176C108.611 28.784 109.635 29.408 110.467 30.048L109.651 30.864C108.979 30.256 108.115 29.648 107.027 29.008C106.387 30.128 105.267 31.056 103.683 31.792L102.915 30.848C104.579 30.112 105.667 29.2 106.195 28.112L106.355 27.728H103.139V26.672H106.643C106.739 26.176 106.787 25.664 106.819 25.12H105.187ZM111.443 24.016H116.707V29.872H111.443V24.016ZM115.587 28.848V25.04H112.563V28.848H115.587ZM115.571 31.024V37.632H114.403V36.912H106.483V37.632H105.331V31.024H115.571ZM106.483 35.888H114.403V34.512H106.483V35.888ZM106.483 33.504H114.403V32.048H106.483V33.504ZM121.091 32.112V33.6H124.787V32.112H121.091ZM124.787 31.152V29.6H121.091V31.152H124.787ZM121.091 34.576V37.632H119.987V28.592H125.891V36.112C125.891 37.04 125.443 37.52 124.547 37.52H123.267L122.979 36.432L124.179 36.48C124.579 36.48 124.787 36.272 124.787 35.872V34.576H121.091ZM131.507 29.92H128.867C127.891 29.92 127.411 29.392 127.411 28.352V22.976H128.547V25.056C130.307 24.784 131.731 24.496 132.835 24.208L133.203 25.216C131.859 25.552 130.307 25.856 128.547 26.112V28.112C128.547 28.624 128.755 28.88 129.187 28.88H131.283C131.603 28.88 131.827 28.784 131.955 28.624C132.115 28.4 132.211 27.808 132.275 26.816L133.347 27.152C133.235 28.464 133.027 29.264 132.739 29.552C132.483 29.792 132.067 29.92 131.507 29.92ZM128.547 33.536V35.824C128.547 36.144 128.739 36.32 129.155 36.32H131.331C131.651 36.32 131.891 36.24 132.019 36.096C132.195 35.872 132.307 35.28 132.371 34.304L133.411 34.624C133.315 35.92 133.107 36.704 132.803 36.992C132.547 37.232 132.131 37.36 131.555 37.36H128.835C127.875 37.36 127.411 36.928 127.411 36.08V30.528H128.547V32.496C130.147 32.336 131.571 32.064 132.835 31.68L133.203 32.704C131.763 33.12 130.211 33.392 128.547 33.536ZM124.739 24.064C125.699 25.36 126.451 26.48 126.979 27.44L126.035 28.112C125.859 27.76 125.667 27.408 125.459 27.056C123.747 27.328 121.699 27.52 119.331 27.648L119.011 26.688C119.219 26.624 119.395 26.512 119.539 26.384C120.531 25.36 121.363 24.208 122.003 22.928L123.091 23.264C122.355 24.688 121.555 25.808 120.659 26.624C122.003 26.544 123.427 26.416 124.931 26.224C124.595 25.712 124.227 25.168 123.843 24.624L124.739 24.064ZM136.819 37.424H135.443L135.203 36.304C135.619 36.336 136.035 36.368 136.419 36.368C136.851 36.368 137.075 36.144 137.075 35.696V31.792C136.435 32.064 135.763 32.32 135.091 32.544L134.803 31.392C135.571 31.184 136.339 30.928 137.075 30.624V26.976H135.123V25.872H137.075V22.944H138.227V25.872H140.051V26.976H138.227V30.112C138.819 29.824 139.395 29.504 139.971 29.152V30.336C139.395 30.656 138.819 30.976 138.227 31.264V35.984C138.227 36.944 137.747 37.424 136.819 37.424ZM140.579 29.776H148.227V30.848C147.731 32.352 146.915 33.648 145.763 34.72C146.835 35.456 148.147 36.096 149.699 36.64L149.075 37.632C147.427 36.992 146.051 36.256 144.947 35.424C143.699 36.352 142.163 37.104 140.355 37.664L139.731 36.688C141.427 36.16 142.851 35.488 144.019 34.656C142.787 33.536 141.955 32.288 141.539 30.896H140.579V29.776ZM142.595 30.896C143.011 32.048 143.747 33.088 144.835 34.016C145.843 33.12 146.595 32.08 147.091 30.896H142.595ZM141.811 23.568H147.187V27.008C147.187 27.392 147.411 27.6 147.859 27.6H149.203V28.672H147.571C146.547 28.672 146.051 28.192 146.051 27.264V24.656H142.947V25.584C142.947 27.088 142.211 28.256 140.739 29.088L139.971 28.208C141.187 27.616 141.811 26.784 141.811 25.696V23.568ZM158.883 28.944C158.595 29.392 158.291 29.808 157.971 30.192L157.267 29.344C158.515 27.744 159.363 25.584 159.811 22.88L160.947 23.072C160.803 23.888 160.627 24.656 160.419 25.36H165.139V26.464H163.955C163.859 29.152 163.235 31.456 162.083 33.36C163.091 34.8 164.291 35.904 165.667 36.672L165.011 37.648C163.619 36.848 162.419 35.744 161.427 34.336C160.467 35.616 159.251 36.688 157.747 37.552L157.091 36.512C158.627 35.68 159.843 34.624 160.771 33.328C160.019 32.048 159.395 30.592 158.883 28.944ZM160.067 26.464C159.907 26.912 159.731 27.328 159.539 27.728C160.019 29.488 160.643 31.008 161.395 32.304C162.291 30.656 162.771 28.704 162.851 26.464H160.067ZM151.107 25.344H154.163C153.875 24.576 153.523 23.84 153.139 23.12L154.259 22.8C154.707 23.728 155.075 24.576 155.331 25.344H157.731V26.448H153.843V27.92C153.843 28.24 153.827 28.544 153.827 28.832H156.883C156.883 32.72 156.803 35.104 156.659 36C156.499 36.912 155.859 37.376 154.723 37.376C154.515 37.376 154.147 37.344 153.619 37.312L153.363 36.32C153.811 36.352 154.211 36.368 154.563 36.368C155.139 36.368 155.491 36.096 155.603 35.568C155.715 34.96 155.779 33.056 155.795 29.888H153.779C153.555 33.312 152.851 35.872 151.667 37.568L150.771 36.784C152.083 34.944 152.739 31.984 152.771 27.92V26.448H151.107V25.344Z" fill="#405580"/>
<path d="M205.365 37.494H202.053C200.775 37.494 200.145 36.9 200.145 35.73V33.426H198.471C198.003 34.614 197.445 35.496 196.833 36.108C195.969 36.936 194.259 37.566 191.721 37.998L190.965 36.234C193.071 36.018 194.529 35.586 195.321 34.974C195.753 34.65 196.131 34.146 196.491 33.426H193.413V28.368H205.059V33.426H202.035V35.334C202.035 35.658 202.215 35.82 202.593 35.82H205.005C205.239 35.82 205.419 35.712 205.527 35.532C205.653 35.316 205.743 34.686 205.779 33.66L207.525 34.218C207.381 35.82 207.129 36.774 206.805 37.062C206.499 37.35 206.013 37.494 205.365 37.494ZM194.961 24.102H192.207V22.518H198.273C198.093 22.122 197.877 21.744 197.661 21.402L199.731 21.078C199.893 21.51 200.055 21.978 200.235 22.518H206.139V24.102H203.493L202.845 25.722H207.093V27.342H191.361V25.722H195.573L194.961 24.102ZM197.535 25.722H200.883L201.531 24.102H196.923L197.535 25.722ZM203.241 31.806V29.97H195.231V31.806H203.241ZM210.945 28.386C210.459 29.034 209.937 29.664 209.397 30.276L208.767 28.26C210.405 26.244 211.611 23.868 212.403 21.132L214.167 21.96C213.807 23.112 213.375 24.228 212.853 25.272V37.764H210.945V28.386ZM220.593 27.594H222.411V37.71H220.593V27.594ZM216.093 27.648H217.911V30.294C217.875 33.786 216.993 36.36 215.283 37.98L213.861 36.738C215.319 35.406 216.057 33.246 216.093 30.294V27.648ZM218.361 21.312H220.071C221.151 23.616 223.023 25.632 225.687 27.36L224.625 28.962C222.195 27.378 220.395 25.434 219.207 23.112C217.857 25.704 216.147 27.72 214.059 29.142L213.015 27.54C215.319 25.956 217.101 23.868 218.361 21.312ZM235.803 29.574V31.374H238.431V29.574H235.803ZM235.803 33.12V35.172H238.431V33.12H235.803ZM235.803 36.972V37.782H233.949V28.008C233.589 28.476 233.229 28.944 232.869 29.394L232.581 28.494V30.366C232.095 30.582 231.609 30.798 231.123 30.996V35.766C231.123 36.99 230.475 37.62 229.215 37.62H227.595L227.181 35.802C227.667 35.874 228.135 35.928 228.567 35.928C228.999 35.928 229.233 35.712 229.233 35.28V31.698C228.585 31.914 227.919 32.13 227.253 32.31L226.785 30.402C227.613 30.24 228.423 30.042 229.233 29.79V26.154H227.127V24.336H229.233V21.222H231.123V24.336H232.725V26.154H231.123V29.106C231.627 28.89 232.095 28.674 232.563 28.44L232.239 27.432C233.643 25.56 234.615 23.49 235.191 21.24L237.027 21.6C236.775 22.464 236.487 23.292 236.145 24.102H238.665C238.395 23.274 238.089 22.446 237.729 21.654L239.547 21.168C239.925 22.23 240.231 23.202 240.447 24.102H243.129V25.902H240.285V27.81H242.769V29.574H240.285V31.374H242.769V33.12H240.285V35.172H243.327V36.972H235.803ZM238.431 25.902H235.803V27.81H238.431V25.902ZM254.073 21.006C254.361 21.582 254.631 22.23 254.883 22.95H261.309V24.768H248.187V28.476C248.133 32.436 247.557 35.622 246.477 38.016L244.875 36.594C245.775 34.65 246.243 31.932 246.279 28.476V22.95H252.795C252.543 22.374 252.273 21.852 251.967 21.366L254.073 21.006Z" fill="#17224E"/>
<path d="M289.811 23.6H298.627V28.832H289.811V23.6ZM297.475 27.744V24.688H290.963V27.744H297.475ZM293.315 30.416V37.36H292.195V36.544H288.819V37.36H287.683V30.416H293.315ZM288.819 35.456H292.195V31.52H288.819V35.456ZM300.755 30.416V37.36H299.603V36.544H296.099V37.36H294.963V30.416H300.755ZM296.099 35.456H299.603V31.52H296.099V35.456ZM306.707 23.104H307.811V27.376H308.707V28.448H305.011V29.248C305.011 29.776 304.995 30.272 304.979 30.752H307.987V37.376H306.867V31.824H304.931C304.739 34.4 304.291 36.368 303.571 37.728L302.723 36.992C303.491 35.392 303.891 32.8 303.907 29.248V23.424H305.011V27.376H306.707V23.104ZM309.459 24.352H311.939C312.163 23.84 312.339 23.328 312.451 22.8L313.603 22.944C313.475 23.44 313.315 23.904 313.107 24.352H316.691V31.12H312.995L312.803 31.504C312.323 32.32 311.555 32.96 310.499 33.424H313.619V31.76H314.739V33.424H317.507V34.528H314.739V37.552H313.619V34.528H308.723V33.424H310.307L309.843 32.688C310.755 32.272 311.411 31.76 311.827 31.12H309.459V24.352ZM315.635 30.112V28.208H313.587C313.555 28.912 313.459 29.552 313.331 30.112H315.635ZM312.259 30.112C312.419 29.536 312.515 28.912 312.547 28.208H310.499V30.112H312.259ZM310.499 27.232H312.563V25.376H310.499V27.232ZM313.603 25.376V27.232H315.635V25.376H313.603ZM326.419 30.08V32.24H329.267V30.08H326.419ZM326.419 33.312V35.696H329.267V33.312H326.419ZM326.419 36.8V37.536H325.283V28.16C324.899 28.768 324.467 29.344 324.019 29.888L323.635 28.672C324.947 26.944 325.859 25.04 326.403 22.96L327.523 23.184C327.283 24.048 326.979 24.88 326.627 25.696H329.523C329.267 24.848 328.947 24.016 328.579 23.216L329.683 22.912C330.067 23.872 330.355 24.736 330.563 25.536L330.131 25.696H333.187V26.816H330.403V28.992H332.867V30.08H330.403V32.24H332.867V33.312H330.403V35.696H333.363V36.8H326.419ZM329.267 26.816H326.419V28.992H329.267V26.816ZM323.811 29.52V30.688C323.331 30.928 322.835 31.152 322.323 31.36V35.984C322.323 36.88 321.843 37.344 320.899 37.344H319.427L319.187 36.224C319.635 36.272 320.083 36.304 320.499 36.304C320.931 36.304 321.155 36.096 321.155 35.68V31.824C320.499 32.048 319.827 32.272 319.155 32.464L318.867 31.312C319.651 31.136 320.419 30.912 321.155 30.656V26.976H319.107V25.856H321.155V22.896H322.323V25.856H323.939V26.976H322.323V30.208C322.835 29.984 323.331 29.76 323.811 29.52ZM342.643 22.688C342.947 23.264 343.235 23.904 343.523 24.624H349.347V25.728H337.491V29.312C337.427 32.816 336.883 35.616 335.843 37.728L334.899 36.88C335.795 35.056 336.275 32.544 336.307 29.312V24.624H342.259C342.003 24 341.699 23.424 341.379 22.912L342.643 22.688Z" fill="#405580"/>
<path d="M382.419 29.36V30.496C381.811 30.8 381.203 31.088 380.579 31.344V36.112C380.579 37.072 380.115 37.552 379.187 37.552H377.699L377.443 36.448C377.907 36.496 378.355 36.528 378.787 36.528C379.219 36.528 379.443 36.288 379.443 35.84V31.808C378.707 32.08 377.939 32.336 377.171 32.576L376.883 31.44C377.763 31.232 378.611 30.976 379.443 30.688V26.976H377.123V25.872H379.443V22.976H380.579V25.872H382.371V26.976H380.579V30.24C381.203 29.968 381.811 29.68 382.419 29.36ZM384.387 30.368V37.6H383.299V23.584H390.323C390.323 25.36 390.227 26.544 390.051 27.136C389.859 27.712 389.251 28.016 388.227 28.016H387.075L386.755 27.008C387.011 27.008 387.315 27.024 387.699 27.024C388.083 27.024 388.387 26.992 388.579 26.96C388.755 26.896 388.899 26.784 389.011 26.592C389.123 26.288 389.187 25.632 389.219 24.64H384.387V29.312H390.467V30.304C390.147 32 389.587 33.456 388.755 34.656C389.523 35.392 390.467 36.064 391.587 36.688L390.819 37.568C389.763 36.896 388.851 36.208 388.115 35.472C387.347 36.352 386.403 37.072 385.315 37.616L384.755 36.608C385.779 36.096 386.643 35.44 387.347 34.64C386.243 33.328 385.571 31.904 385.315 30.368H384.387ZM386.355 30.368C386.579 31.616 387.107 32.768 387.971 33.808C388.611 32.832 389.075 31.68 389.363 30.368H386.355ZM393.891 24.32H399.635V22.96H400.819V24.32H406.563V25.376H400.819V26.896H405.635V27.952H400.819V29.472H407.123V30.512H401.299C401.731 31.536 402.259 32.448 402.883 33.248C403.779 32.832 404.643 32.192 405.475 31.312L406.275 32.08C405.459 32.896 404.547 33.536 403.523 33.984C404.579 35.104 405.859 35.952 407.347 36.512L406.739 37.52C403.763 36.32 401.587 33.984 400.243 30.512H399.683C399.123 31.312 398.403 32.048 397.523 32.72V36.128C398.723 35.776 399.907 35.344 401.091 34.864L401.315 35.936C399.651 36.608 397.971 37.152 396.259 37.568L395.875 36.576C396.211 36.448 396.387 36.256 396.387 36V33.488C395.523 34.016 394.563 34.496 393.475 34.928L392.867 33.936C395.427 33.04 397.283 31.904 398.467 30.512H393.331V29.472H399.635V27.952H394.819V26.896H399.635V25.376H393.891V24.32Z" fill="#405580"/>
<path d="M447.987 27.184H444.227V26.112H448.483V22.96H449.603V26.112H451.443V27.184H449.603V35.952C449.603 36.96 449.155 37.472 448.291 37.472H446.227L445.987 36.368C446.643 36.416 447.283 36.448 447.891 36.448C448.275 36.448 448.483 36.176 448.483 35.664V28.368C447.539 31.184 446.083 33.52 444.099 35.408L443.475 34.384C445.555 32.528 447.059 30.128 447.987 27.184ZM443.315 23.568V33.552H442.291V24.64H438.707V33.68H437.651V23.568H443.315ZM440.019 25.904H441.011V30.864C440.979 32.688 440.675 34.144 440.115 35.232C439.555 36.24 438.659 37.024 437.411 37.6L436.787 36.624C437.987 36.08 438.835 35.376 439.315 34.48C439.763 33.552 439.987 32.352 440.019 30.864V25.904ZM441.619 34.112C442.515 34.928 443.251 35.744 443.859 36.544L443.059 37.344C442.531 36.544 441.811 35.712 440.899 34.816L441.619 34.112ZM457.731 22.88L458.899 23.04C458.723 23.472 458.515 23.872 458.291 24.256H465.267V25.184C464.243 26.368 462.995 27.376 461.523 28.208C463.331 28.976 465.347 29.472 467.571 29.696L467.043 30.768C464.515 30.48 462.259 29.84 460.275 28.848C458.323 29.744 456.035 30.4 453.443 30.8L452.915 29.712C455.235 29.392 457.267 28.88 459.027 28.176C458.131 27.648 457.299 27.04 456.531 26.368C455.923 26.912 455.267 27.408 454.531 27.856L453.827 26.928C455.747 25.824 457.059 24.48 457.731 22.88ZM460.259 27.616C461.555 26.976 462.675 26.208 463.619 25.344H457.507L457.299 25.6C458.195 26.384 459.187 27.056 460.259 27.616ZM459.283 30H460.419C460.419 30.64 460.355 31.248 460.259 31.824H465.891C465.859 34.528 465.619 36.144 465.155 36.672C464.691 37.2 463.891 37.472 462.755 37.472C462.243 37.472 461.619 37.44 460.883 37.408L460.595 36.368L462.483 36.448C463.443 36.432 464.035 36.224 464.291 35.84C464.531 35.456 464.675 34.464 464.723 32.864H459.987C459.859 33.28 459.683 33.68 459.475 34.064C458.659 35.504 456.787 36.704 453.843 37.632L453.075 36.688C455.699 35.92 457.443 34.944 458.275 33.776C458.467 33.488 458.643 33.184 458.771 32.864H454.003V31.824H459.091C459.219 31.248 459.283 30.64 459.283 30Z" fill="#405580"/>
<path d="M498.115 23.264C499.075 23.568 499.971 23.936 500.771 24.384L500.163 25.312C499.299 24.8 498.435 24.416 497.555 24.128L498.115 23.264ZM503.267 22.88L504.403 23.024C504.275 23.376 504.147 23.728 503.987 24.048H510.435V24.736C510.243 25.52 509.987 26.304 509.667 27.072L508.563 26.736C508.835 26.24 509.059 25.68 509.251 25.056H506.531C506.467 25.44 506.371 25.792 506.243 26.112C507.075 27.344 508.723 28.192 511.187 28.656L510.771 29.68C508.435 29.2 506.771 28.336 505.779 27.056C505.587 27.344 505.379 27.616 505.139 27.872C504.355 28.608 503.075 29.2 501.283 29.616L500.851 28.592C502.419 28.256 503.555 27.792 504.259 27.184C504.835 26.656 505.235 25.952 505.427 25.056H503.379C502.931 25.632 502.403 26.16 501.795 26.64L501.123 25.744C502.179 24.976 502.883 24.016 503.267 22.88ZM509.347 30.048V34.8H508.195V31.12H500.211V34.928H499.059V30.048H509.347ZM503.747 31.728L504.899 31.824C504.675 33.856 504.195 35.216 503.443 35.92C502.611 36.784 500.755 37.344 497.875 37.568L497.427 36.544C499.971 36.4 501.651 35.968 502.467 35.232C503.187 34.544 503.619 33.376 503.747 31.728ZM500.339 26.272L501.011 27.056C500.211 27.888 499.219 28.672 498.035 29.408L497.267 28.512C498.483 27.824 499.507 27.072 500.339 26.272ZM505.267 34.752C507.347 35.296 509.235 35.952 510.947 36.72L510.323 37.68C508.499 36.816 506.611 36.128 504.675 35.632L505.267 34.752ZM520.259 22.72C520.515 23.264 520.771 23.888 521.011 24.576H526.627V25.68H523.843C523.651 26.528 523.395 27.344 523.059 28.112H526.963V29.216H515.475V31.584C515.411 34.08 514.835 36.08 513.731 37.584L512.851 36.8C513.779 35.552 514.275 33.808 514.307 31.584V28.112H517.587L516.915 25.68H513.987V24.576H519.843C519.619 23.968 519.347 23.424 519.059 22.928L520.259 22.72ZM518.723 28.112H521.955C522.307 27.344 522.579 26.528 522.739 25.68H518.051L518.723 28.112Z" fill="#405580"/>
<path d="M563.651 25.264H558.163V24.16H570.339V25.264H564.835V35.392H571.379V36.496H557.091V35.392H563.651V25.264ZM585.027 23.552V33.344H587.331V34.416H582.499C584.147 35.024 585.651 35.76 586.995 36.608L586.355 37.584C584.851 36.592 583.315 35.792 581.747 35.216L582.291 34.416H577.811L578.643 35.136C577.427 36.08 575.939 36.912 574.147 37.616L573.443 36.704C575.171 36.032 576.611 35.28 577.779 34.416H573.123V33.344H575.427V23.552H585.027ZM576.595 33.344H583.859V31.84H576.595V33.344ZM576.595 30.912H583.859V29.44H576.595V30.912ZM576.595 28.496H583.859V27.008H576.595V28.496ZM576.595 26.096H583.859V24.64H576.595V26.096Z" fill="#405580"/>
<defs>
<radialGradient id="paint0_radial_1993_83322" cx="0" cy="0" r="1" gradientTransform="matrix(-29.001 12.2621 -5.94695 -14.0565 85.0722 24.1837)" gradientUnits="userSpaceOnUse">
<stop stop-color="white"/>
<stop offset="1" stop-color="white" stop-opacity="0.8"/>
</radialGradient>
<linearGradient id="paint1_linear_1993_83322" x1="56.0586" y1="29.7503" x2="98.9767" y2="29.7503" gradientUnits="userSpaceOnUse">
<stop stop-color="#354CA6"/>
<stop offset="1" stop-color="#7590F9"/>
</linearGradient>
<clipPath id="clip0_1993_83322">
<rect width="43.225" height="14" fill="white" transform="translate(56 23)"/>
</clipPath>
</defs>
</svg>
