<svg width="284" height="40" viewBox="0 0 284 40" fill="none" xmlns="http://www.w3.org/2000/svg">
<path d="M13.002 26.5C13.002 26.2239 13.2258 26 13.502 26H16.502C16.7781 26 17.002 26.2239 17.002 26.5C17.002 26.7761 16.7781 27 16.502 27H13.502C13.2258 27 13.002 26.7761 13.002 26.5Z" fill="#464749"/>
<path fill-rule="evenodd" clip-rule="evenodd" d="M14.2784 13.552C14.3652 13.2339 14.6563 13 15.002 13C15.3476 13 15.6387 13.2338 15.7255 13.552C18.1441 13.9025 20.002 15.9843 20.002 18.5V22L20.7826 24.3419C20.8905 24.6657 20.6495 25 20.3083 25H9.6957C9.35442 25 9.11343 24.6657 9.22135 24.3419L10.002 22V18.5C10.002 15.9843 11.8599 13.9026 14.2784 13.552ZM19.002 18.5V22.1623L19.6146 24H10.3894L11.002 22.1623V18.5C11.002 16.2909 12.7928 14.5 15.002 14.5C17.2111 14.5 19.002 16.2909 19.002 18.5Z" fill="#464749"/>
<path fill-rule="evenodd" clip-rule="evenodd" d="M38.7605 19.53C39.0201 19.6243 39.154 19.9111 39.0598 20.1707C39.0195 20.2816 39 20.391 39 20.5001C39 21.0159 39.474 21.6416 40.6134 22.1674C41.7103 22.6737 43.2607 23.0001 45 23.0001C46.7393 23.0001 48.2897 22.6737 49.3866 22.1674C50.526 21.6416 51 21.0159 51 20.5001C51 20.391 50.9805 20.2816 50.9402 20.1707C50.846 19.9111 50.9799 19.6243 51.2395 19.53C51.499 19.4358 51.7859 19.5697 51.8801 19.8293C51.9581 20.0438 52 20.2686 52 20.5001C52 21.6411 51.0189 22.5155 49.8056 23.0754C48.5499 23.655 46.8503 24.0001 45 24.0001C43.1497 24.0001 41.4501 23.655 40.1944 23.0754C38.9811 22.5155 38 21.6411 38 20.5001C38 20.2686 38.0419 20.0438 38.1199 19.8293C38.2141 19.5697 38.501 19.4358 38.7605 19.53Z" fill="#464749"/>
<path fill-rule="evenodd" clip-rule="evenodd" d="M40.1668 14.0849C41.4743 13.3808 43.2133 13 45 13C46.7867 13 48.5257 13.3808 49.8332 14.0849C51.1263 14.7812 52 15.8059 52 17C52 18.1941 51.1263 19.2188 49.8332 19.9151C48.5257 20.6192 46.7867 21 45 21C43.2133 21 41.4743 20.6192 40.1668 19.9151C38.8737 19.2188 38 18.1941 38 17C38 15.8059 38.8737 14.7812 40.1668 14.0849ZM45 14C43.3389 14 41.7712 14.3567 40.6409 14.9654C39.496 15.5818 39 16.3376 39 17C39 17.6624 39.496 18.4182 40.6409 19.0346C41.7712 19.6433 43.3389 20 45 20C46.6611 20 48.2288 19.6433 49.3591 19.0346C50.504 18.4182 51 17.6624 51 17C51 16.3376 50.504 15.5818 49.3591 14.9654C48.2288 14.3567 46.6611 14 45 14Z" fill="#464749"/>
<path fill-rule="evenodd" clip-rule="evenodd" d="M38.7605 22.8731C39.0201 22.9673 39.154 23.2542 39.0598 23.5137C39.0195 23.6246 39 23.734 39 23.8431C39 24.3589 39.474 24.9846 40.6134 25.5105C41.7103 26.0167 43.2607 26.3431 45 26.3431C46.7393 26.3431 48.2897 26.0167 49.3866 25.5105C50.526 24.9846 51 24.3589 51 23.8431C51 23.734 50.9805 23.6246 50.9402 23.5137C50.846 23.2542 50.9799 22.9673 51.2395 22.8731C51.499 22.7788 51.7859 22.9128 51.8801 23.1723C51.9581 23.3868 52 23.6116 52 23.8431C52 24.9841 51.0189 25.8585 49.8056 26.4184C48.5499 26.998 46.8503 27.3431 45 27.3431C43.1497 27.3431 41.4501 26.998 40.1944 26.4184C38.9811 25.8585 38 24.9841 38 23.8431C38 23.6116 38.0419 23.3868 38.1199 23.1723C38.2141 22.9128 38.501 22.7788 38.7605 22.8731Z" fill="#464749"/>
<path fill-rule="evenodd" clip-rule="evenodd" d="M75 26C78.3137 26 81 23.3137 81 20C81 16.6863 78.3137 14 75 14C71.6863 14 69 16.6863 69 20C69 23.3137 71.6863 26 75 26ZM75 27C78.866 27 82 23.866 82 20C82 16.134 78.866 13 75 13C71.134 13 68 16.134 68 20C68 23.866 71.134 27 75 27Z" fill="#464749"/>
<path fill-rule="evenodd" clip-rule="evenodd" d="M74.939 22.333C75.2612 22.333 75.5224 22.5942 75.5224 22.9165C75.5224 23.2388 75.2612 23.5 74.939 23.5H74.7446C74.4224 23.5 74.1611 23.2388 74.1611 22.9165C74.1611 22.5942 74.4224 22.333 74.7446 22.333H74.939ZM75.0361 16.5C75.7336 16.5 76.2438 16.7029 76.6855 17.0605C77.1195 17.4113 77.3691 17.9504 77.3691 18.6387C77.3691 19.5742 76.763 19.9369 76.2031 20.3887C75.5902 20.8833 75.4248 21.0083 75.4248 21.167C75.4248 21.4859 75.164 21.7451 74.8451 21.7451C74.5232 21.7451 74.2588 21.4842 74.2588 21.1623V20.7773C74.2591 20.4028 74.6429 20.1849 75.4248 19.6113C75.9412 19.2325 76.2031 18.9405 76.2031 18.6387C76.2031 18.3628 76.1795 18.0915 75.8144 17.8389C75.6325 17.7137 75.3334 17.6639 75.0371 17.667C74.7292 17.6701 74.4252 17.7292 74.2588 17.8389C73.9135 18.0659 73.8691 18.3969 73.8691 18.6162C73.8691 18.7359 73.7721 18.833 73.6523 18.833H73.2861C72.9641 18.833 72.6857 18.5714 72.7083 18.2502C72.7323 17.9098 72.8235 17.5629 73.1416 17.2305C73.5795 16.7724 74.2125 16.5 75.0361 16.5Z" fill="#464749"/>
<path d="M107 24H103C102.724 24 102.5 24.2239 102.5 24.5C102.5 24.7761 102.724 25 103 25H107C107.276 25 107.5 24.7761 107.5 24.5C107.5 24.2239 107.276 24 107 24Z" fill="#464749"/>
<path fill-rule="evenodd" clip-rule="evenodd" d="M109 14H101V26H109V14ZM101 13C100.448 13 100 13.4477 100 14V26C100 26.5523 100.448 27 101 27H109C109.552 27 110 26.5523 110 26V14C110 13.4477 109.552 13 109 13H101Z" fill="#464749"/>
<rect x="136" width="148" height="40" rx="20" fill="#F3F7FD"/>
<rect x="136" width="148" height="40" rx="20" fill="url(#paint0_linear_1993_83354)"/>
<rect x="136.25" y="0.25" width="147.5" height="39.5" rx="19.75" stroke="#296BEF" stroke-opacity="0.25" stroke-width="0.5"/>
<path d="M159.004 9.852H159.916C159.748 9.456 159.532 9.084 159.292 8.736L160.036 8.46C160.276 8.844 160.48 9.312 160.672 9.852H161.272C161.416 9.324 161.536 8.76 161.608 8.16L162.448 8.256C162.376 8.82 162.268 9.348 162.124 9.852H163.072C163.336 9.396 163.552 8.916 163.744 8.388L164.524 8.676C164.308 9.132 164.092 9.528 163.876 9.852H164.944V10.572H161.908C161.788 10.908 161.644 11.232 161.5 11.532H165.28V12.264H163.396C163.888 12.864 164.62 13.344 165.604 13.704L165.232 14.472C164.704 14.232 164.248 13.956 163.864 13.668V13.788C163.768 14.46 163.672 15.036 163.564 15.516H164.848C164.824 17.484 164.668 18.588 164.392 18.84C164.164 19.056 163.672 19.164 162.904 19.164H162.352L162.136 18.432C162.424 18.432 162.688 18.444 162.928 18.444C163.36 18.444 163.648 18.372 163.768 18.252C163.912 18.108 163.996 17.424 164.02 16.212H159.532C159.76 15.516 159.928 14.916 160.036 14.4L160.84 14.472C160.744 14.844 160.648 15.192 160.552 15.516H162.76C162.88 15.108 162.976 14.628 163.048 14.1H159.868V13.68C159.508 14.004 159.112 14.292 158.692 14.532L158.248 13.848C158.992 13.44 159.616 12.912 160.108 12.264H158.656V11.532H160.588C160.756 11.22 160.912 10.896 161.044 10.572H159.004V9.852ZM160.156 13.404H163.54C163.144 13.056 162.832 12.672 162.592 12.264H161.08C160.804 12.684 160.492 13.068 160.156 13.404ZM155.98 12.348V14.352H157.396V12.348H155.98ZM157.396 11.544V9.48H155.98V11.544H157.396ZM155.968 15.168C155.896 16.788 155.644 18.12 155.212 19.176L154.576 18.588C154.96 17.508 155.152 16.128 155.164 14.46V8.664H158.224V18.18C158.224 18.816 157.9 19.14 157.252 19.14H156.412L156.208 18.348C156.496 18.372 156.748 18.384 156.988 18.384C157.252 18.384 157.396 18.216 157.396 17.892V15.168H155.968ZM158.752 16.944H163.048V17.688H158.752V16.944ZM170.08 12.9H171.88V9.612H170.284V8.772H175.78V12.456C175.78 14.856 175.96 16.524 176.332 17.484C176.488 17.868 176.632 18.072 176.764 18.072C176.812 18.072 176.848 17.916 176.896 17.616C176.92 17.28 176.944 16.788 176.968 16.128L177.652 16.452C177.604 17.604 177.508 18.348 177.364 18.672C177.244 18.912 177.112 19.044 176.956 19.044C176.512 19.044 176.128 18.768 175.792 18.216C175.216 17.208 174.928 15.288 174.928 12.456V9.612H172.72V12.9H174.364V13.728H172.72V19.212H171.88V13.728H170.08V12.9ZM167.884 8.316C168.676 8.928 169.336 9.54 169.864 10.164L169.276 10.764C168.784 10.176 168.124 9.552 167.284 8.904L167.884 8.316ZM166.516 11.868H169.024V17.172C169.408 16.836 169.816 16.452 170.26 16.008L170.488 16.92C169.792 17.616 169.048 18.228 168.256 18.768L167.92 18C168.088 17.832 168.184 17.652 168.184 17.448V12.696H166.516V11.868ZM189.4 14.7L189.532 15.54L188.32 15.732V19.164H187.444V15.876L183.7 16.488L183.58 15.648L187.444 15.024V8.244H188.32V14.88L189.4 14.7ZM184.72 8.868C185.584 9.48 186.304 10.092 186.892 10.716L186.304 11.316C185.776 10.728 185.044 10.104 184.108 9.456L184.72 8.868ZM184.36 11.628C185.236 12.276 185.98 12.912 186.58 13.56L185.968 14.172C185.428 13.56 184.684 12.912 183.748 12.216L184.36 11.628ZM178.756 11.436H180.724V9.66C180.148 9.744 179.56 9.816 178.936 9.876L178.768 9.06C180.328 8.94 181.72 8.688 182.92 8.328L183.22 9.144C182.704 9.288 182.164 9.408 181.588 9.516V11.436H183.244V12.264H181.588V12.852C182.26 13.392 182.956 14.004 183.652 14.676L183.16 15.408C182.536 14.676 182.02 14.1 181.588 13.68V19.164H180.724V13.56C180.244 14.736 179.608 15.804 178.792 16.764L178.42 15.804C179.44 14.772 180.172 13.584 180.628 12.264H178.756V11.436ZM191.896 19.068H190.888L190.708 18.252C191.02 18.288 191.32 18.312 191.608 18.312C191.932 18.312 192.1 18.132 192.1 17.772V14.904C191.62 15.096 191.14 15.276 190.636 15.444L190.42 14.592C190.996 14.448 191.548 14.268 192.1 14.064V11.232H190.648V10.404H192.1V8.208H192.94V10.404H194.212V11.232H192.94V13.716C193.384 13.5 193.816 13.284 194.236 13.044V13.884C193.804 14.124 193.372 14.34 192.94 14.544V17.988C192.94 18.708 192.592 19.068 191.896 19.068ZM194.644 9.936H197.524V8.232H198.364V9.936H201.256V10.764H198.364V12.72H200.788V13.488C200.368 14.808 199.672 15.936 198.7 16.872C199.492 17.484 200.464 18.024 201.604 18.492L201.148 19.212C199.948 18.684 198.928 18.072 198.112 17.4C197.176 18.144 196.036 18.756 194.692 19.236L194.284 18.516C195.556 18.096 196.636 17.544 197.512 16.86C196.504 15.876 195.844 14.772 195.508 13.536H194.872V12.72H197.524V10.764H194.644V9.936ZM196.312 13.536C196.624 14.592 197.224 15.528 198.088 16.356C198.916 15.552 199.528 14.616 199.924 13.536H196.312ZM206.2 12.516V13.824H210.964V12.516H206.2ZM210.964 14.58H206.2V15.852H210.964V14.58ZM210.964 16.608H206.2V19.176H205.384V12.9C204.712 13.74 203.932 14.52 203.068 15.216L202.504 14.484C204.016 13.284 205.18 11.916 206.008 10.368H202.828V9.528H206.404C206.608 9.06 206.788 8.592 206.932 8.124L207.808 8.232C207.664 8.676 207.52 9.108 207.352 9.528H213.316V10.368H206.992C206.752 10.848 206.5 11.316 206.212 11.76H211.78V18.24C211.78 18.828 211.444 19.128 210.772 19.152H209.428L209.212 18.36C209.668 18.384 210.1 18.408 210.496 18.408C210.808 18.408 210.964 18.264 210.964 17.976V16.608ZM215.008 8.676H218.692V9.372C218.332 10.452 217.9 11.568 217.396 12.744C218.164 13.8 218.584 14.76 218.632 15.624C218.632 16.14 218.5 16.512 218.26 16.74C217.924 17.016 217.324 17.16 216.46 17.172L216.172 16.296C216.364 16.32 216.52 16.344 216.64 16.344C217.084 16.32 217.384 16.26 217.54 16.164C217.684 16.056 217.768 15.876 217.768 15.624C217.768 14.808 217.348 13.884 216.508 12.876C217.072 11.628 217.516 10.5 217.828 9.504H215.848V19.212H215.008V8.676ZM220.108 11.676V13.032H223.648V11.676H220.108ZM223.648 10.884V9.504H220.108V10.884H223.648ZM221.488 13.824H220.108V17.928C220.828 17.712 221.548 17.436 222.256 17.112L222.448 17.916C221.584 18.288 220.504 18.648 219.196 18.996L218.992 18.252C219.16 18.192 219.256 18.096 219.256 17.976V8.688H224.488V13.824H222.268C222.412 14.532 222.652 15.192 223 15.792C223.576 15.468 224.14 14.988 224.68 14.34L225.244 14.904C224.692 15.552 224.08 16.056 223.396 16.404C223.948 17.16 224.668 17.808 225.58 18.348L225.1 19.104C223.108 17.832 221.896 16.068 221.488 13.824ZM229.948 8.316L230.74 8.628C229.852 11.148 228.688 13.068 227.224 14.388L226.552 13.8C228.052 12.432 229.18 10.608 229.948 8.316ZM234.04 14.676C234.976 15.972 235.768 17.364 236.44 18.84L235.636 19.2C235.456 18.792 235.276 18.408 235.096 18.048C232.984 18.384 230.62 18.624 228.004 18.792L227.848 17.952C228.808 17.448 230.008 15.552 231.46 12.264L232.3 12.552C231.268 14.832 230.236 16.62 229.204 17.916C231.16 17.796 232.996 17.592 234.712 17.316C234.244 16.452 233.764 15.66 233.26 14.94L234.04 14.676ZM233.86 8.232C234.556 10.464 235.756 12.288 237.472 13.704L236.86 14.412C235.072 12.924 233.824 10.992 233.128 8.64L233.86 8.232ZM239.776 13.32H245.068V17.016H239.776V13.32ZM244.24 16.248V14.1H240.616V16.248H244.24ZM247.156 19.116H245.5L245.284 18.288L246.964 18.312C247.324 18.312 247.516 18.072 247.516 17.592V9.54H239.356V8.7H248.38V17.832C248.38 18.684 247.972 19.116 247.156 19.116ZM238.876 11.064H246.256V11.844H238.876V11.064Z" fill="#0D0D0D"/>
<path d="M154.936 23.432H155.908V32H154.936V23.432ZM157.712 23.432H160.784C162.14 23.432 163.16 23.816 163.856 24.608C164.492 25.328 164.816 26.372 164.816 27.716C164.816 29.036 164.468 30.08 163.784 30.824C163.064 31.604 162.032 32 160.688 32H157.712V23.432ZM158.696 24.284V31.148H160.52C161.636 31.148 162.476 30.848 163.04 30.26C163.568 29.684 163.844 28.832 163.844 27.716C163.844 26.564 163.592 25.712 163.1 25.16C162.572 24.572 161.756 24.284 160.628 24.284H158.696ZM166.904 26.156C167.096 26.156 167.276 26.228 167.42 26.372C167.564 26.516 167.636 26.684 167.636 26.888C167.636 27.092 167.564 27.272 167.42 27.416C167.276 27.548 167.096 27.62 166.904 27.62C166.688 27.62 166.52 27.548 166.388 27.416C166.244 27.272 166.172 27.092 166.172 26.888C166.172 26.684 166.244 26.516 166.388 26.372C166.52 26.228 166.688 26.156 166.904 26.156ZM166.904 30.548C167.096 30.548 167.276 30.62 167.42 30.764C167.564 30.908 167.636 31.076 167.636 31.28C167.636 31.484 167.564 31.664 167.42 31.808C167.276 31.94 167.096 32.012 166.904 32.012C166.688 32.012 166.52 31.94 166.388 31.808C166.244 31.664 166.172 31.484 166.172 31.28C166.172 31.076 166.244 30.908 166.388 30.764C166.52 30.62 166.688 30.548 166.904 30.548Z" fill="#898B8F"/>
<path d="M176.72 23.264C177.512 23.264 178.16 23.492 178.676 23.948C179.18 24.404 179.444 25.016 179.444 25.76C179.444 26.504 179.156 27.176 178.604 27.776C178.304 28.088 177.716 28.556 176.828 29.156C175.736 29.888 175.112 30.548 174.956 31.124H179.456V32H173.744C173.744 31.22 174.02 30.512 174.596 29.876C174.932 29.492 175.544 28.976 176.456 28.352C177.128 27.872 177.572 27.524 177.8 27.284C178.232 26.816 178.46 26.3 178.46 25.748C178.46 25.22 178.304 24.824 177.992 24.536C177.68 24.248 177.236 24.104 176.684 24.104C176.096 24.104 175.64 24.296 175.328 24.704C174.992 25.088 174.812 25.664 174.8 26.42H173.816C173.816 25.46 174.092 24.692 174.62 24.128C175.148 23.552 175.856 23.264 176.72 23.264ZM183.795 23.264C184.683 23.264 185.391 23.492 185.895 23.96C186.351 24.38 186.591 24.908 186.591 25.532C186.591 25.988 186.483 26.372 186.267 26.684C186.027 27.02 185.691 27.272 185.247 27.428V27.452C185.691 27.56 186.075 27.812 186.387 28.196C186.723 28.604 186.891 29.084 186.891 29.636C186.891 30.392 186.627 31.004 186.099 31.46C185.547 31.928 184.779 32.168 183.795 32.168C182.799 32.168 182.031 31.928 181.491 31.46C180.963 31.004 180.699 30.392 180.699 29.636C180.699 29.084 180.867 28.604 181.203 28.196C181.515 27.812 181.887 27.56 182.343 27.452V27.428C181.887 27.272 181.551 27.02 181.323 26.684C181.107 26.372 180.999 25.988 180.999 25.532C180.999 24.908 181.227 24.38 181.695 23.96C182.199 23.492 182.895 23.264 183.795 23.264ZM183.795 24.068C183.183 24.068 182.703 24.224 182.367 24.536C182.067 24.8 181.923 25.148 181.923 25.568C181.923 26 182.055 26.36 182.319 26.624C182.631 26.936 183.123 27.104 183.795 27.104C184.455 27.104 184.947 26.936 185.271 26.624C185.535 26.36 185.667 26 185.667 25.568C185.667 25.148 185.511 24.8 185.223 24.536C184.875 24.224 184.395 24.068 183.795 24.068ZM183.795 27.872C183.099 27.872 182.571 28.04 182.199 28.388C181.839 28.7 181.671 29.12 181.671 29.636C181.671 30.14 181.839 30.56 182.199 30.872C182.559 31.196 183.099 31.364 183.795 31.364C184.491 31.364 185.019 31.196 185.403 30.86C185.739 30.548 185.919 30.14 185.919 29.636C185.919 29.12 185.739 28.7 185.403 28.388C185.019 28.04 184.479 27.872 183.795 27.872ZM191.075 23.264C191.891 23.264 192.563 23.468 193.067 23.888C193.559 24.308 193.811 24.872 193.811 25.592C193.811 26.552 193.343 27.2 192.407 27.512C192.911 27.668 193.295 27.908 193.559 28.244C193.847 28.58 193.991 29 193.991 29.504C193.991 30.284 193.715 30.92 193.175 31.412C192.623 31.916 191.903 32.168 191.015 32.168C190.199 32.168 189.539 31.952 189.023 31.544C188.411 31.04 188.075 30.308 188.003 29.348H188.999C189.023 30.02 189.251 30.536 189.671 30.884C190.031 31.172 190.475 31.328 191.015 31.328C191.627 31.328 192.119 31.148 192.491 30.8C192.827 30.464 193.007 30.044 193.007 29.54C193.007 29.024 192.839 28.628 192.503 28.34C192.167 28.052 191.711 27.92 191.111 27.92H190.415V27.152H191.075C191.651 27.152 192.083 27.02 192.383 26.768C192.683 26.504 192.839 26.132 192.839 25.652C192.839 25.172 192.683 24.8 192.395 24.536C192.083 24.248 191.639 24.116 191.087 24.116C190.511 24.116 190.067 24.26 189.743 24.572C189.407 24.884 189.215 25.328 189.155 25.904H188.183C188.255 25.076 188.567 24.428 189.095 23.96C189.599 23.492 190.259 23.264 191.075 23.264ZM198.09 23.264C199.122 23.264 199.902 23.648 200.43 24.416C200.934 25.136 201.186 26.168 201.186 27.488C201.186 28.856 200.91 29.96 200.382 30.824C199.806 31.712 199.038 32.168 198.078 32.168C196.482 32.168 195.57 31.4 195.342 29.876H196.314C196.494 30.848 197.082 31.34 198.09 31.34C198.75 31.34 199.278 31.004 199.674 30.344C200.046 29.708 200.238 28.904 200.238 27.944C200.238 27.884 200.226 27.776 200.226 27.632H200.178C199.962 28.064 199.65 28.412 199.254 28.664C198.87 28.904 198.426 29.036 197.922 29.036C197.094 29.036 196.434 28.76 195.93 28.22C195.438 27.704 195.198 27.032 195.198 26.204C195.198 25.352 195.462 24.656 196.014 24.104C196.554 23.54 197.25 23.264 198.09 23.264ZM198.114 24.092C197.526 24.092 197.058 24.284 196.698 24.68C196.338 25.076 196.17 25.58 196.17 26.204C196.17 26.804 196.338 27.296 196.698 27.656C197.046 28.028 197.514 28.22 198.114 28.22C198.666 28.22 199.134 28.028 199.518 27.644C199.878 27.26 200.07 26.768 200.07 26.18C200.07 25.58 199.89 25.088 199.542 24.704C199.182 24.296 198.702 24.092 198.114 24.092ZM205.501 23.264C206.293 23.264 206.941 23.492 207.457 23.948C207.961 24.404 208.225 25.016 208.225 25.76C208.225 26.504 207.937 27.176 207.385 27.776C207.085 28.088 206.497 28.556 205.609 29.156C204.517 29.888 203.893 30.548 203.737 31.124H208.237V32H202.525C202.525 31.22 202.801 30.512 203.377 29.876C203.713 29.492 204.325 28.976 205.237 28.352C205.909 27.872 206.353 27.524 206.581 27.284C207.013 26.816 207.241 26.3 207.241 25.748C207.241 25.22 207.085 24.824 206.773 24.536C206.461 24.248 206.017 24.104 205.465 24.104C204.877 24.104 204.421 24.296 204.109 24.704C203.773 25.088 203.593 25.664 203.581 26.42H202.597C202.597 25.46 202.873 24.692 203.401 24.128C203.929 23.552 204.637 23.264 205.501 23.264ZM212.577 23.264C213.597 23.264 214.365 23.708 214.893 24.62C215.349 25.388 215.577 26.42 215.577 27.716C215.577 29.012 215.349 30.044 214.893 30.812C214.365 31.712 213.597 32.168 212.577 32.168C211.545 32.168 210.777 31.712 210.261 30.812C209.805 30.044 209.577 29.012 209.577 27.716C209.577 26.42 209.805 25.388 210.261 24.62C210.777 23.708 211.545 23.264 212.577 23.264ZM212.577 24.104C211.809 24.104 211.257 24.512 210.921 25.34C210.681 25.916 210.561 26.708 210.561 27.716C210.561 28.712 210.681 29.504 210.921 30.092C211.257 30.908 211.809 31.328 212.577 31.328C213.345 31.328 213.897 30.908 214.233 30.092C214.473 29.504 214.605 28.712 214.605 27.716C214.605 26.708 214.473 25.916 214.233 25.34C213.897 24.512 213.345 24.104 212.577 24.104Z" fill="#898B8F"/>
<path fill-rule="evenodd" clip-rule="evenodd" d="M269.362 18.5317C269.448 18.6171 269.448 18.7556 269.362 18.8411L265.155 23.0483C265.07 23.1338 264.931 23.1338 264.846 23.0483L260.638 18.8411C260.553 18.7556 260.553 18.6171 260.638 18.5317L261.133 18.0367C261.219 17.9513 261.357 17.9513 261.443 18.0367L265 21.5944L268.558 18.0367C268.643 17.9513 268.782 17.9513 268.867 18.0367L269.362 18.5317Z" fill="#898B8F"/>
<defs>
<linearGradient id="paint0_linear_1993_83354" x1="210" y1="0" x2="210" y2="40" gradientUnits="userSpaceOnUse">
<stop stop-color="white" stop-opacity="0"/>
<stop offset="1" stop-color="white" stop-opacity="0.69"/>
</linearGradient>
</defs>
</svg>
